<svg id="Layer_2" xmlns="http://www.w3.org/2000/svg" viewBox="0 0 1150.16 1104.27">
  <defs>
    <style>
      .cls-1 {
        fill: #f6f6f6;
      }

      .cls-2 {
        fill: #fff;
      }

      .cls-3 {
        stroke: #fff;
        stroke-width: 8.86px;
      }

      .cls-3, .cls-4 {
        fill: none;
        stroke-linecap: round;
        stroke-linejoin: round;
      }

      .cls-5 {
        fill: #907761;
      }

      .cls-6 {
        fill: #f2b03f;
        fill-rule: evenodd;
      }

      .cls-4 {
        stroke: #d6972c;
        stroke-width: 37.8px;
      }
    </style>
  </defs>
  <g id="Layer_1-2" data-name="Layer_1">
    <path class="cls-5" d="M583.66,0c-39.11,2.35-83.36,8.97-130.84,23.54-22.61,6.84-46.55,15.91-70.01,26.59-9.31,4.24-34.34,16.88-46.93,23.67-6.51,3.52-11.88,6.47-18.39,9.98-3.54,1.9-3.64,1.59-5.45,2.41.17-.57.71-1.34,1.52-2.25-18.96,11.84-37.75,25.13-56.71,40.13-4.78,3.78-9.01,7.22-13.04,10.52-11.86,11.19-23.34,23.08-34.36,35.63-17.99,20.33-34.58,42.35-49.66,65.71-29.4,45.52-53.8,97.77-69.92,154.37-5.9,20.71-10.97,43.04-14.71,66.8-1.39,9.36-2.57,18.86-3.49,28.5-.2,2.03-.37,4.02-.54,5.97-1.45,16.95-2.27,34.18-2.15,51.72-.22,11.59.39,26.52.45,34.8.02,2.32,0,4.08-.03,5.84,1.41,24.4,4.6,49.13,7.09,66.51,1.95,13.62,3.33,23.2,3.79,28.77l.28,1.08c3.62,13.22,7.83,26.8,12.59,40.59.08.22,3.18,10.45,2.93,11.54,1.66,4.98,3.33,9.82,4.98,14.43,1.19,3.32-.1.94-1.19-1.5-4.49-10.09-9.01-21.68-13.36-34.07-2.54-7.23-4.92-14.57-7.18-21.98,4.04,15.2,8.64,30.25,13.92,45.04.76,2.12,1.55,4.24,2.33,6.35,6.67,17.42,14.16,34.48,22.47,51.08,7.6,14.77,12.59,24.8,14.13,28.29,11.88,21.15,25.16,41.45,39.77,60.64,40.92,53.88,92.3,99.17,149.8,133.39,36.66,21.81,76.19,39.4,118.4,52.08,9.6,2.88,19.2,5.55,28.78,7.85,4.46,1.26,15.09,3.59,13.44,3.6-12.95.03-47.31-8.26-79.35-19.7-7.09-2.53-14.13-5.23-21.14-8.09,17.72,7.46,35.8,13.99,54.19,19.41,9.89,2.96,19.79,5.52,29.68,7.91.97.23,1.96.51,2.57.7,15.95,3.05,32.04,5.32,48.21,6.75,80.29,7.18,163-6.11,239.2-38.07.33-.16.64-.3.98-.46,9-4.17,14.82-7.18,24.75-11.19,22.65-11.31,71.36-40.98,94.76-57.14,11.26-7.78,15.42-10.07,15.81-9.39,3.38-2.1,2.82-.4,2.34.47-.45.81-1.2,1.83-1.95,2.85,1.21-1.01,2.43-2.02,3.63-3.04,2.1-1.78,4.09-3.48,6.29-5.34,13.83-11.64,20.58-17.61,23.38-19.44,7.89-8.16,16.97-17.55,23.19-23.43.39-.36.48-.39.8-.68,6.63-8.02,13.14-16.29,19.47-24.89,10.16-13.78,19.9-28.22,29.05-43.41,7.33-12.17,14.22-24.64,20.62-37.39,4.7-9.32,9.17-18.88,13.42-28.6,3.03-6.94,5.19-12.71,8.9-21.47,11.23-26.53,13.97-35.73,12.73-28.48-.59,3.42-1.96,8.28-3.35,12.97,3.36-9.33,6.6-18.83,9.56-28.65,8.44-26.87,14.12-53.95,16.94-57.28,2.89-3.43-3.53,32.87-5.82,44.14-5.85,27.93-13.99,55.19-23.95,81.62,5.16-11.05,9.98-22.26,14.42-33.64,4.1-11.68,7.87-23.54,11.26-35.58,2.27-8.07,6.43-24.55,9.1-35.95,1.09-4.69,2.19-9.25,3.27-14.18,1.55-5.62,3.54-14.5,4.4-16.96.72-2.08.48,1.57.02,6.08,2.93-15.06,5.28-30.23,6.94-45.5,10.94-100.53-6.57-204.32-48.32-295.85-1.47-3.19-2.95-6.39-4.48-9.55-.73-1.54-1.49-3.05-2.24-4.57-10.34-20.94-21.93-41.22-34.79-60.62-4.75-7.16-12.6-17.74-14.72-21.26-1.26-2.11-1.8-3.23-1.72-3.51-1.79-2.82-2.92-4.81-2.22-4.62.86.23,9.13,11.58,13.94,18.26,53.65,74.54,88.24,165.69,99.63,261.07,4.71,40.2,5.18,81,1.1,121.42-4.08,40.58-12.76,80.68-25.57,119.43-.8,3.08-1.61,6.18-2.5,9.32-6.63,23.3-15.25,47.21-25.93,71.4-.63,1.43-1.32,2.83-1.96,4.25.32-.61.65-1.2.97-1.81,2.68-5.14,7.41-14.91,7.92-15.34.61-.52.92-.51.98-.09,1.14-2.02,2.2-3.8,3.25-5.56,16.89-36.2,30.68-75.2,40.54-117.19,2.53-10.8,4.89-21.59,6.84-32.32,1.29-5.14,3.67-18.68,3.67-15.48,0,6.06-2.36,26.09-7.01,48.79-4.9,23.91-10.65,43.29-14.32,54.93-10.19,32.31-23.38,64.1-39.45,94.77-26.07,49.73-59.81,96.48-100.53,137.32-10.03,10.96-20.58,21.64-31.76,31.89-4.56,4.17-9.31,8.34-14.22,12.49,153.99-103.62,246.11-273.75,246.38-455.03-.19-140.06-55.2-275-153.94-377.57,1.09,1.38,2.16,2.71,3.26,4.14,8.07,10.54,11.97,16.82,7.36,12.02-2.85-2.98-8.88-9.93-16.54-18.43.42.68.84,1.38,1.35,2.13-.04-.06-.1-.1-.14-.15,0,.01.04.05.05.07.7,1.14-2.09-1.98-5.23-5.5-5.33-5.59-10.9-11.26-16.74-16.99-15.08-14.82-30.78-28.63-47.09-41.52-1.63-1.22-3.28-2.43-4.93-3.63,12.49,10.3,24.48,21.01,35.63,32.34,1.78,1.81,3.38,3.54,4.99,5.27,5.07,4.83,9.65,9.31,12.7,12.67,2.3,2.53,3.99,4.65,5.85,6.87-3.04-2.99-5.45-5.18-8.13-7.62,2.53,3.03,5.06,6.07,7.44,8.98-.8-.76-1-.77-2.41-2.29-8.91-9.5-22.42-23.53-40.77-39.69-17.73-15.62-32.6-26.64-38.42-30.91-5.44-3.99-10.98-7.86-16.56-11.65C789.46,30.55,687.75,1.64,583.66,0h0ZM516.44,3.08c-.27.04-.54.07-.81.1-39.66,6.32-78.69,17.15-116.03,32.38-.98.45-2.09.92-3.04,1.37-8.45,4.11-16.91,8.49-24.75,12.8,49.33-23.33,95.57-36.41,134.58-44.58,3.43-.71,6.71-1.38,10.06-2.06h0ZM394.08,42.38c-7.89,3.31-15.87,6.85-23.94,10.68-7.79,3.66-15.49,7.57-23.15,11.64-2.39,1.65-4.39,3.16-6.09,4.57,1.83-1.06,3.95-2.24,5.96-3.36,6.26-3.5,12.48-6.76,18.66-9.92,9.16-4.67,18.83-9.28,28.55-13.61ZM335.46,67.01c-20.7,11.96-40.58,25.4-59.46,40.22,15.52-11.47,31.25-21.94,46.98-31.39,3.54-2.69,7.8-5.69,12.48-8.83ZM267.57,85.88c-13.56,8.42-26.75,17.38-39.53,26.87-29.61,25.8-55.43,54.07-77.68,83.49,1.64-1.79.61.22,1.23-.17-.31.57-.62,1.18-.9,1.72,8.52-11.27,17.45-22.22,26.76-32.8,13.11-14.42,26.32-27.93,38.03-37.95,5.4-4.62,4.14-2.81.53,1.25,9.91-9.27,18.9-16.98,26.49-23.19,8.75-7.15,17.16-13.52,25.07-19.22ZM194.54,139.52c-2.37,1.98-4.71,3.97-7.04,5.98-19.45,21.26-37.5,44.17-53.86,68.54,10.83-15.83,21.28-29.41,30.66-40.78,8.84-10.73,18.94-22.1,30.24-33.74ZM152.69,182.56c-.53.69-1.07,1.36-1.6,2.05-.31.41-.61.82-.92,1.23.83-1.1,1.68-2.19,2.52-3.28ZM150.17,185.84c-.68.9-1.36,1.8-2.03,2.7-.99,1.32-1.99,2.63-2.97,3.96-60.81,82.86-100.85,183.11-111.78,288.35-2.44,23.66-3.39,47.4-2.9,71.07,2.5,125.05,44.99,248.92,120.14,346.22,9.66,12.49,19.88,24.5,30.54,36.06.17.18.45.45.62.63-10.79-11.83-21.14-24.11-30.88-36.92-82.91-109.09-124.85-250.91-115.79-389.91.3-4.64.98-14.39,2.37-26.64,4.27-37.67,13.6-85.89,33.89-139.48,6.45-17.04,13.23-32.38,19.86-46.2,4.24-9.5,8.76-18.94,13.59-28.32,2.54-4.92,5.12-9.79,7.79-14.63-2.93,4.99-5.8,9.99-8.55,14.99-3.64,6.64-15.42,28.26-27.61,57.44-12.93,30.94-19.44,53.24-23.77,66.64-3.65,11.29-4.05,11.07-1.75,1.03,2.23-9.71,5.02-19.24,6.71-24.99,19.72-64.95,51.09-127.06,92.53-182ZM116.53,221C41.18,317.17.26,434.48,0,555.1c.2,168.37,79.64,327.84,215.72,433.05-23.69-20.53-45.79-43.15-65.94-67.69-3.54-4.3-7.02-8.67-10.43-13.09-41.38-53.7-73.32-115.56-94.07-181.88-6.83-21.84-12.39-44.15-16.73-66.77-2.54-13.79-4.69-27.53-6.15-41.12-3.38-31.49-.98-26.57.27-18.86,1.18,7.26,3.02,22.19,5.11,34.38.97,5.66,2.05,11.38,3.18,17.12-9.04-49.72-13.16-107.73-6.42-170.46,4.64-42.83,13.65-81.37,24.15-114.57,16.1-50.73,38.95-99.44,67.84-144.19ZM107.14,323.97c-.44,1.01-.9,1.99-1.34,3.01-21.32,49.72-35.73,103.01-41.93,157.65-.2,1.75-.36,3.5-.54,5.25-.42,16.71-.04,32.81,1.09,48.05.5,6.89,1.17,11.62,1.91,19.08-.21-10.04-.14-20.03.12-29.96.02-.52.04-1.07.05-1.6.03-2.47.06-4.95.12-7.41.2-8.36.64-19.61,1.75-32.86,4.58-55.3,17.09-100.45,27.11-130,3.56-10.5,7.46-20.91,11.66-31.22ZM61.03,556.86c1.02,22.77,3.47,45.51,7.26,68.04.21,1.21.39,2.42.61,3.64.55,3.18,1.19,6.49,1.85,9.83.32,1.65.64,3.3.98,4.95.06.3.14.62.2.92.43-2.36-.11-10-1.4-23.6-.79-8.26-1.64-17.32-2.38-26.83-.85-.77-2.05-6.26-3.4-12.82-1.41-6.83-2.62-15.23-3.71-24.12ZM51.25,643.98c2.81,16.41,6.33,32.68,10.5,48.77,3.44,12.73,7.27,25.32,11.54,37.74,10.59,30.83,23.75,60.66,39.28,89.04,2.25,3.61,4.55,7.22,6.9,10.82-33.03-56.99-56.22-120.48-68.21-186.36ZM1072.36,682.36c0-.05-.05.03-.12.35-.33,1.4-.67,2.73-1,4.12.39-1.43.73-2.63,1.04-3.92.07-.29.09-.5.09-.55h-.01ZM1068.88,696.63c-.11.43-.22.91-.33,1.34-.3,1.25-.66,2.49-.97,3.74.12-.26.28-.64.4-.87.09-.17.13-.2.19-.29.18-1.09.47-2.59.71-3.91ZM86.26,726.28c.64,2.5,1.36,5.23,1.86,7.25.35.98.72,1.96,1.07,2.95,6.33,17.46,13.46,34.6,21.45,51.29,13.39,28.01,27.49,51.43,40.51,70.57-24.17-35.86-44.05-74.95-59.23-116.02-1.96-5.31-3.85-10.66-5.66-16.04ZM1052.24,752.82c-.82,2.35-1.7,4.68-2.56,7.02-.19.53-.39,1.06-.58,1.59-.99,2.67-1.95,5.36-2.98,8.02-5.82,15.3-12.3,30.35-19.37,45.02-8.48,19.36-18.43,38.87-29.92,58.21,24.98-40.11,43.27-81.01,55.41-119.85ZM1010.07,837.25c-2.87,5.24-5.79,10.44-8.81,15.57,2.42-4.04,4.8-8.14,7.14-12.29.56-1.09,1.11-2.2,1.67-3.29ZM1028.07,841.98c-31.59,54.19-72,103-119.6,143.07-30.57,25.74-64.01,47.79-99.41,65.85,10.89-5.32,21.54-10.96,31.89-16.92,24.09-13.87,47.13-29.62,68.82-47.2,10.61-8.6,20.88-17.67,30.81-27.11,1.05-1.02,2.1-2.03,3.14-3.05-2.49,1.57,11.11-11.51,25.17-26.44,11.73-13.18,22.89-26.92,33.41-41.2,2.39-3.25,5.04-7.08,7.58-10.73,5.78-9.38,11.31-18.96,16.61-28.75-3.58,5.34-7.25,10.77-9.09,12.86h0c-.05.05-.12.16-.16.2-1,1.1,1.71-3.45,3.77-7.07,2.24-4.23,4.46-8.55,7.05-13.51ZM152.3,860.02c1.37,1.99,2.73,4,4.07,5.89-1.37-1.95-2.73-3.92-4.07-5.89ZM945.36,937.6c-.93,1.05-1.86,2.11-2.8,3.16.53-.54,1.04-1.09,1.56-1.62.41-.52.83-1.02,1.24-1.54ZM908.99,959.53c-1.39,1.26-2.75,2.5-4.14,3.74-2.53,2.35-5.08,4.66-7.62,6.93-4.46,3.99-9.01,7.91-13.64,11.77-1.78,1.94-3.49,3.85-5.28,5.77-1.67,1.67-3.44,3.36-5.19,5.04,8.32-6.79,16.63-13.98,24.87-21.57.54-.49,1.08-1.01,1.62-1.51.8-.92,1.51-1.71,2.56-3.01.77-.95.65-1.17,1.83-2.46.64-.7,3.12-2.99,4.99-4.69ZM870.17,984.05c-3.98,2.6-18.08,12.97-25.96,18.29,4.89-3.32,10.09-6.85,13.5-9.27,4.11-2.93,8.27-5.93,12.46-9.02ZM851.2,1000.62c-2.25,1.65-4.5,3.29-6.77,4.89-22.16,15.65-45.89,29.68-70.91,41.83-8.02,3.87-23.89,11.53-44.16,18.79-3.13,1.45-6.26,2.88-9.38,4.27,3.49-1.05,6.93-2.16,10.36-3.27,8.31-3.05,16.61-6.32,25.09-9.95,18.76-7.99,37.67-17.48,56.44-28.4,13.16-8.45,25.81-17.45,37.88-26.96.49-.41.97-.81,1.46-1.21ZM843.68,1002.71c-12.39,8.34-24.94,16.1-37.57,23.14-9.08,5.09-18.37,9.86-27.78,14.4-1.9,1.19-4.94,3.11-5.36,3.36-1.95,1.14-3.89,2.24-5.84,3.34,18.07-8.51,36.09-18.21,53.84-29.18,4.49-2.78,13.7-8.94,22.71-15.06ZM880.99,1024.39c-2.01,1.43-4.05,2.8-6.08,4.2.88-.49,1.77-.98,2.65-1.47,1.14-.9,2.28-1.81,3.43-2.73ZM749.21,1063.02c-6.37,2.39-13.07,4.68-19.98,6.9-10.11,3.53-20.58,6.71-31.07,9.29-2.29.68-4.29,1.23-6.32,1.8,14.83-3.47,29.54-7.49,44.05-12.2.4-.12.71-.21,1.11-.33,4.1-1.77,8.17-3.6,12.21-5.46ZM696.82,1071.39c-48.96,14.09-100.36,21.08-152.18,19.64,24.35,1.44,49.47,1.12,75.18-1.25,21-1.94,41.9-5.2,62.57-9.7,1.8-.79,3.42-1.52,5.51-2.39-2.97.5-5.68.87-7.9.99-2.47.14,1.58-1.13,2.37-1.7,4.36-1.71,9.22-3.57,14.45-5.59ZM439.49,1085.88c23.17,6.59,48.3,12,75.12,15.37,5.36.67,10.71,1.22,16.05,1.71,32.05,2.32,64.34,1.54,96.37-2.23-33.25,3.63-71.15,4.55-112.34-.18-6.34-.73-12.84-1.6-19.49-2.63-18.75-2.94-37.35-6.99-55.71-12.04"/>
    <path class="cls-2" d="M780.71,162.03c-68.52-37.63-97.88,100.92.45,46.29-58.67,76.61,68.86,91.78,47.98,15.78,52.87,84.11,113.19-47.52,27.18-45.25,96.93-42.36-24.05-109.85-33.96-32.02,18.41-99.25-115.62-41.01-41.64,15.2"/>
    <path class="cls-6" d="M829.07,140.73l-13.51,39.71-13.48-38.99,11.68,39.64-33.52-22.82,32.4,24.42-40.75,2.06,40.75-.13-32.42,26.16,33.54-24.62-11.71,40.26,13.51-39.7,13.48,38.98-11.68-39.63,33.51,22.82-32.4-24.42,40.75-2.06-40.75.12,32.43-26.16-33.54,24.62,11.71-40.26"/>
    <path class="cls-6" d="M849.7,134.95l-33.1,45.34-2.7-55.51-.16,55.61-35.11-42.88,32.83,44.63-54.11-13.88,53.29,16.61-52.45,20.43,53.39-17.76-30.75,46.93,33.1-45.34,2.7,55.5.16-55.61,35.11,42.89-32.83-44.64,54.12,13.89-53.3-16.62,52.45-20.42-53.39,17.75,30.74-46.92"/>
    <path class="cls-2" d="M524.89,945.69c-73.73-6.6-46.55,124.74,17.98,39.98-21.78,88.76,94.62,53.45,47.62-4.54,77.83,52.86,80.12-84.25,6.38-49.58,67.99-73.59-62.61-86.16-41.63-14.87-21.75-93.1-115.88,8.37-30.35,29.01"/>
    <path class="cls-6" d="M558.74,908.84l3.37,39.58-26.51-28.7,25.2,29.95-37.75-7.06,37.39,8.87-34.57,17.28,35.3-15.59-18.18,35.01,19.73-34.1,5.14,39.38-3.37-39.58,26.51,28.7-25.19-29.95,37.75,7.06-37.39-8.87,34.57-17.28-35.3,15.59,18.18-35.01-19.73,34.1-5.14-39.38"/>
    <path class="cls-6" d="M574.44,895.98l-11.48,51.91-23.44-47.12,20.99,48.3-46.76-23.86,45.45,26.24-52.22,8.52,52.54-5.84-37.73,37.64,39.57-35.69-8.84,52.39,11.48-51.91,23.44,47.12-20.99-48.3,46.75,23.86-45.45-26.24,52.22-8.52-52.54,5.84,37.73-37.64-39.57,35.69,8.84-52.39"/>
    <path class="cls-4" d="M184.13,795.44c21.88-144.5,30.28-220.05,45.52-314.36,19.23-118.93,40.54-219.14,61.15-104.51,17.3,96.25,29.73,212.73,52.5,406.73"/>
    <path class="cls-4" d="M221.44,549.47c26.55-4.42,44.43-6.45,83.64-15.46"/>
    <path class="cls-4" d="M835.57,788.36c21.88-144.5,30.28-220.05,45.53-314.36,19.23-118.93,40.54-219.14,61.14-104.52,17.31,96.26,29.73,212.74,52.5,406.74"/>
    <path class="cls-4" d="M872.88,542.4c26.55-4.42,44.44-6.45,83.64-15.46"/>
    <path class="cls-4" d="M386.73,324.37c-1.12-2.58-5.93,358.59.59,430.77,3.54,39.2,59.02,25.66,122.3,16.32"/>
    <path class="cls-4" d="M577.57,315.02c-92.96,16.63-88.02,448.77-2.62,463.3,100.31,17.07,104.27-481.47,2.62-463.3Z"/>
    <path class="cls-4" d="M697.99,300.82c2.3,107.34-2.35,322.74.96,486.27"/>
    <path class="cls-4" d="M787.56,325.91c1.96,74.64-.79,300.2-1.44,445.63"/>
    <path class="cls-4" d="M700.42,578.02c40.16-1.16,45.89-2.22,78.8-7.36"/>
    <path class="cls-3" d="M229.81,460.71c7.55-42.38,12.23-59.73,18.38-95.25"/>
    <path class="cls-3" d="M309.71,496.14c5.89,48.5,19.6,178.64,33.46,273.15"/>
    <path class="cls-3" d="M184.64,792.4c3.64-30.04,7.87-52.29,13.34-86.57"/>
    <path class="cls-3" d="M385.41,502.23c-.49,47.68-7.28,209.4,4.66,259.54,5.86,24.61,63.74,19.63,91.75,14.45"/>
    <path class="cls-3" d="M517.13,437.05c1.24-86.45,68.64-171.92,100.21-96.61"/>
    <path class="cls-3" d="M544.14,749.77c30.89,71.78,93.26,11.16,94.76-74.52"/>
    <path class="cls-3" d="M699.37,352.08c-.1,62.02-2.61,293.91-3.3,326.2"/>
    <path class="cls-3" d="M741.9,577.81c11.14-.05,20.04-1.85,27.29-2.02"/>
    <path class="cls-3" d="M789.26,352.41c0,25.8.57,43.77,1.32,74.22"/>
    <path class="cls-3" d="M784.05,773.09c0-41.18,1.8-62.16,1.35-113.75"/>
    <path class="cls-3" d="M943.15,370.01c7.34,48.84,34.38,264.63,38.32,291.36"/>
    <path class="cls-3" d="M877.87,541.47c11.62-1.81,23.49-2.88,43.22-5.55"/>
    <path class="cls-1" d="M780.27,880.79c-51.33-23.77-65.65,77.71,2.62,33.39-38.55,58.22,54.27,62.84,35.42,9.01,42.34,58.1,79.35-39.93,17.37-34.01,67.88-35.39-22.81-78.11-26.11-21.43,8.37-72.57-85.5-23.87-29.31,13.04"/>
    <path class="cls-6" d="M814.12,863.01l-7.78,29.34-11.66-27.48,10.39,28.04-25.33-14.82,24.6,16.02-29.32,3.51,29.41-2.11-22.11,20.49,22.99-19.43-6.46,29.64,7.79-29.34,11.66,27.48-10.39-28.04,25.33,14.81-24.61-16.02,29.32-3.51-29.41,2.11,22.11-20.49-22.99,19.44,6.45-29.65"/>
    <path class="cls-6" d="M828.74,857.81l-21.65,34.38-4.7-39.93,2.64,40.15-27.48-29.22,25.92,30.6-39.75-7.34,39.3,9.35-36.85,17.34,37.66-15.46-19.87,35.4,21.65-34.38,4.7,39.94-2.64-40.16,27.48,29.22-25.92-30.59,39.75,7.34-39.29-9.35,36.85-17.34-37.66,15.46,19.87-35.4"/>
    <path class="cls-1" d="M354.79,907.2c-43.09-19.95-55.11,65.23,2.2,28.03-32.36,48.87,45.55,52.75,29.73,7.57,35.54,48.77,66.61-33.52,14.58-28.55,56.98-29.7-19.14-65.57-21.91-17.98,7.02-60.92-71.77-20.04-24.6,10.94"/>
    <path class="cls-6" d="M383.2,892.28l-6.53,24.63-9.79-23.07,8.73,23.53-21.26-12.43,20.65,13.45-24.61,2.95,24.69-1.77-18.56,17.2,19.3-16.31-5.42,24.88,6.54-24.62,9.79,23.06-8.72-23.53,21.26,12.43-20.65-13.45,24.61-2.95-24.69,1.77,18.56-17.2-19.3,16.32,5.42-24.89"/>
    <path class="cls-6" d="M395.46,887.92l-18.17,28.85-3.95-33.52,2.21,33.7-23.06-24.52,21.75,25.68-33.37-6.16,32.98,7.85-30.93,14.56,31.62-12.98-16.68,29.71,18.17-28.86,3.95,33.52-2.21-33.7,23.06,24.52-21.75-25.68,33.37,6.16-32.98-7.85,30.93-14.56-31.62,12.98,16.68-29.71"/>
    <path class="cls-1" d="M508.55,80.31c-54.48-25.23-69.68,82.48,2.79,35.44-40.93,61.8,57.6,66.7,37.59,9.57,44.94,61.66,84.23-42.38,18.44-36.11,72.05-37.56-24.21-82.91-27.71-22.74,8.88-77.03-90.76-25.34-31.11,13.84"/>
    <path class="cls-6" d="M544.48,61.43l-8.26,31.15-12.38-29.17,11.03,29.76-26.88-15.73,26.11,17.01-31.12,3.73,31.22-2.24-23.47,21.75,24.4-20.63-6.85,31.46,8.26-31.14,12.38,29.17-11.04-29.76,26.89,15.73-26.12-17.01,31.12-3.73-31.22,2.24,23.47-21.75-24.4,20.63,6.85-31.47"/>
    <path class="cls-6" d="M559.98,55.92l-22.98,36.48-4.99-42.39,2.8,42.62-29.16-31.01,27.51,32.48-42.2-7.79,41.71,9.92-39.11,18.41,39.98-16.41-21.09,37.57,22.98-36.48,4.99,42.39-2.8-42.62,29.16,31.01-27.51-32.48,42.2,7.79-41.71-9.92,39.11-18.41-39.98,16.41,21.09-37.57"/>
    <path class="cls-1" d="M294.72,206.43c-55.21-25.56-70.62,83.59,2.82,35.92-41.47,62.62,58.37,67.6,38.1,9.7,45.54,62.48,85.36-42.95,18.68-36.59,73.01-38.07-24.53-84.02-28.08-23.05,9-78.06-91.96-25.68-31.52,14.02"/>
    <path class="cls-6" d="M331.13,187.31l-8.37,31.56-12.55-29.56,11.18,30.16-27.24-15.94,26.46,17.24-31.54,3.77,31.64-2.27-23.78,22.04,24.73-20.9-6.94,31.89,8.37-31.56,12.55,29.56-11.18-30.16,27.24,15.93-26.46-17.23,31.54-3.77-31.64,2.26,23.78-22.04-24.73,20.91,6.94-31.89"/>
    <path class="cls-6" d="M346.85,181.72l-23.28,36.97-5.06-42.95,2.84,43.18-29.55-31.42,27.88,32.91-42.76-7.9,42.27,10.06-39.63,18.66,40.51-16.64-21.37,38.08,23.29-36.97,5.05,42.96-2.84-43.19,29.55,31.42-27.88-32.91,42.76,7.9-42.27-10.06,39.64-18.66-40.52,16.64,21.37-38.08"/>
  </g>
</svg>