<svg id="Layer_2" xmlns="http://www.w3.org/2000/svg" viewBox="0 0 1143.49 1104.27">
  <defs>
    <style>
      .cls-1 {
        fill: #f2f2f2;
      }

      .cls-1, .cls-2, .cls-3, .cls-4, .cls-5 {
        fill-rule: evenodd;
      }

      .cls-6, .cls-3 {
        fill: #fff;
      }

      .cls-2, .cls-7 {
        fill: #5e4e41;
      }

      .cls-8 {
        fill: #80ced1;
      }

      .cls-9 {
        fill: #907761;
      }

      .cls-4 {
        fill: #f2b03f;
      }

      .cls-5 {
        fill: #806853;
      }
    </style>
  </defs>
  <g id="Layer_1-2" data-name="Layer_1">
    <path class="cls-8" d="M580.27,0c-38.88,2.35-82.87,8.97-130.08,23.54-22.48,6.84-46.27,15.91-69.6,26.59-9.25,4.24-34.14,16.88-46.65,23.67-6.48,3.51-11.81,6.46-18.29,9.98-3.51,1.9-3.61,1.59-5.42,2.4.18-.57.71-1.33,1.51-2.24-18.85,11.84-37.53,25.13-56.38,40.12-4.75,3.78-8.96,7.23-12.96,10.52-11.79,11.2-23.2,23.08-34.16,35.63-17.89,20.33-34.38,42.36-49.38,65.72-29.23,45.52-53.49,97.76-69.52,154.36-5.86,20.71-10.91,43.04-14.62,66.8-1.38,9.37-2.56,18.86-3.48,28.51-.19,2.02-.37,4.01-.54,5.97-1.44,16.95-2.26,34.18-2.14,51.71-.22,11.6.39,26.53.45,34.81.01,2.33,0,4.08-.03,5.84,1.4,24.4,4.58,49.13,7.06,66.5,1.94,13.62,3.31,23.2,3.76,28.77.1.36.19.72.29,1.08,3.59,13.22,7.78,26.8,12.52,40.59.07.22,3.15,10.45,2.9,11.53,1.65,4.98,3.31,9.82,4.95,14.43,1.18,3.32-.1.94-1.18-1.51-4.47-10.09-8.96-21.68-13.28-34.06-2.52-7.23-4.89-14.57-7.13-21.99,4.02,15.21,8.58,30.26,13.84,45.04.75,2.12,1.53,4.24,2.31,6.35,6.63,17.42,14.07,34.48,22.34,51.08,7.56,14.77,12.52,24.79,14.05,28.29,11.82,21.16,25.02,41.45,39.54,60.65,40.68,53.87,91.77,99.17,148.94,133.38,36.44,21.81,75.74,39.4,117.71,52.09,9.54,2.88,19.09,5.54,28.61,7.85,4.44,1.26,15.01,3.59,13.36,3.6-12.87.02-47.03-8.27-78.89-19.71-7.04-2.53-14.05-5.23-21.01-8.09,17.62,7.46,35.59,13.99,53.87,19.42,9.83,2.96,19.67,5.52,29.5,7.9.97.24,1.95.51,2.56.71,15.85,3.05,31.85,5.32,47.93,6.75,79.82,7.18,162.05-6.11,237.81-38.07.33-.16.64-.3.97-.46,8.95-4.17,14.74-7.17,24.61-11.19,22.52-11.31,70.94-40.97,94.2-57.14,11.2-7.78,15.33-10.07,15.72-9.39,3.37-2.1,2.81-.4,2.33.47-.45.81-1.2,1.83-1.94,2.85,1.2-1.01,2.42-2.02,3.61-3.03,2.09-1.79,4.07-3.49,6.26-5.34,13.75-11.64,20.45-17.61,23.24-19.43,7.84-8.17,16.87-17.55,23.06-23.44.38-.36.47-.39.79-.68,6.59-8.01,13.07-16.29,19.36-24.88,10.09-13.79,19.78-28.23,28.88-43.42,7.29-12.17,14.14-24.64,20.5-37.39,4.67-9.33,9.11-18.87,13.34-28.6,3.01-6.94,5.16-12.71,8.85-21.47,11.16-26.53,13.89-35.73,12.65-28.48-.58,3.42-1.94,8.28-3.32,12.97,3.34-9.33,6.56-18.83,9.5-28.65,8.39-26.86,14.03-53.94,16.84-57.28,2.88-3.43-3.51,32.87-5.79,44.14-5.81,27.93-13.91,55.19-23.8,81.63,5.12-11.06,9.92-22.27,14.33-33.64,4.08-11.68,7.83-23.54,11.2-35.58,2.26-8.07,6.39-24.56,9.04-35.95,1.09-4.69,2.18-9.25,3.25-14.18,1.55-5.62,3.52-14.49,4.37-16.96.72-2.08.48,1.57.02,6.08,2.92-15.06,5.26-30.24,6.9-45.51,10.88-100.52-6.53-204.31-48.03-295.84-1.47-3.2-2.93-6.39-4.45-9.56-.73-1.53-1.49-3.04-2.23-4.57-10.29-20.93-21.81-41.21-34.59-60.61-4.72-7.16-12.53-17.75-14.63-21.27-1.26-2.1-1.79-3.23-1.71-3.5-1.78-2.82-2.91-4.81-2.22-4.63.86.23,9.09,11.59,13.87,18.27,53.33,74.54,87.73,165.69,99.05,261.07,4.68,40.2,5.15,80.99,1.09,121.41-4.06,40.58-12.68,80.69-25.42,119.43-.8,3.08-1.6,6.18-2.49,9.32-6.58,23.3-15.15,47.22-25.78,71.4-.62,1.43-1.31,2.83-1.94,4.25.32-.61.65-1.2.96-1.81,2.66-5.14,7.36-14.91,7.87-15.34.61-.51.92-.5.97-.09,1.15-2.02,2.2-3.81,3.24-5.56,16.79-36.2,30.5-75.2,40.3-117.19,2.52-10.8,4.87-21.59,6.8-32.32,1.29-5.14,3.65-18.68,3.65-15.49,0,6.06-2.34,26.09-6.96,48.8-4.87,23.91-10.6,43.28-14.25,54.93-10.12,32.31-23.23,64.1-39.22,94.77-25.92,49.73-59.46,96.48-99.94,137.31-9.97,10.97-20.46,21.64-31.58,31.89-4.52,4.17-9.25,8.34-14.13,12.49,153.1-103.62,244.68-273.74,244.95-455.03-.19-140.06-54.89-274.99-153.05-377.56,1.08,1.38,2.15,2.7,3.25,4.14,8.01,10.54,11.89,16.82,7.31,12.01-2.84-2.98-8.83-9.93-16.45-18.42.43.68.84,1.37,1.35,2.12-.05-.05-.1-.09-.14-.15.01.02.03.06.04.07.71,1.14-2.07-1.98-5.19-5.5-5.3-5.58-10.84-11.26-16.64-16.99-15-14.82-30.61-28.62-46.82-41.52-1.63-1.21-3.26-2.42-4.9-3.62,12.41,10.29,24.33,21,35.42,32.33,1.77,1.82,3.36,3.55,4.96,5.28,5.04,4.83,9.59,9.31,12.62,12.67,2.29,2.53,3.97,4.64,5.82,6.86-3.02-2.99-5.41-5.18-8.08-7.62,2.52,3.04,5.03,6.08,7.4,8.99-.8-.77-.99-.78-2.4-2.29-8.86-9.5-22.29-23.53-40.53-39.69-17.63-15.62-32.41-26.65-38.2-30.91-5.41-4-10.92-7.86-16.47-11.65C784.88,30.55,683.77,1.64,580.27,0ZM513.45,3.08c-.27.03-.54.06-.81.1-39.42,6.32-78.23,17.15-115.35,32.37-.98.46-2.08.93-3.03,1.38-8.4,4.11-16.8,8.49-24.61,12.8,49.04-23.34,95.02-36.42,133.8-44.58,3.4-.72,6.67-1.38,10-2.07ZM391.8,42.38c-7.85,3.3-15.78,6.84-23.8,10.67-7.75,3.67-15.41,7.58-23.02,11.64-2.37,1.65-4.36,3.17-6.05,4.57,1.82-1.06,3.93-2.24,5.93-3.36,6.22-3.49,12.4-6.76,18.55-9.91,9.1-4.67,18.72-9.28,28.39-13.61ZM333.52,67c-20.59,11.97-40.35,25.41-59.12,40.22,15.43-11.47,31.06-21.93,46.71-31.39,3.52-2.68,7.76-5.68,12.41-8.83ZM266.02,85.87c-13.48,8.42-26.6,17.38-39.3,26.87-29.44,25.81-55.11,54.07-77.23,83.5,1.63-1.79.6.22,1.22-.17-.3.57-.62,1.18-.89,1.72,8.47-11.28,17.35-22.22,26.61-32.8,13.03-14.43,26.16-27.93,37.8-37.95,5.37-4.63,4.12-2.82.53,1.24,9.85-9.27,18.78-16.97,26.33-23.18,8.7-7.15,17.06-13.52,24.93-19.23ZM193.41,139.52c-2.35,1.97-4.68,3.96-7,5.97-19.34,21.27-37.28,44.17-53.54,68.55,10.77-15.83,21.16-29.42,30.48-40.78,8.79-10.73,18.83-22.1,30.06-33.74ZM151.81,182.56c-.53.68-1.07,1.36-1.59,2.05-.3.4-.61.81-.91,1.22.82-1.1,1.67-2.18,2.5-3.27ZM149.31,185.84c-.68.9-1.35,1.79-2.02,2.7-.99,1.32-1.98,2.63-2.96,3.96-60.46,82.86-100.27,183.11-111.13,288.35-2.43,23.65-3.37,47.4-2.89,71.06,2.49,125.05,44.73,248.92,119.45,346.22,9.6,12.5,19.76,24.5,30.36,36.06.17.18.44.45.62.64-10.73-11.84-21.02-24.12-30.71-36.92-82.43-109.09-124.12-250.92-115.11-389.92.3-4.64.98-14.39,2.35-26.63,4.24-37.67,13.52-85.9,33.7-139.48,6.41-17.04,13.15-32.38,19.74-46.2,4.22-9.5,8.71-18.95,13.51-28.32,2.52-4.92,5.1-9.79,7.74-14.64-2.91,4.99-5.76,9.99-8.49,14.99-3.63,6.65-15.33,28.26-27.45,57.44-12.86,30.94-19.33,53.24-23.64,66.64-3.63,11.29-4.03,11.08-1.73,1.04,2.21-9.71,4.99-19.24,6.67-24.99,19.61-64.95,50.79-127.06,91.99-182ZM115.86,221C40.94,317.17.26,434.48,0,555.09c.21,168.37,79.18,327.84,214.47,433.05-23.54-20.53-45.51-43.15-65.55-67.69-3.52-4.3-6.98-8.67-10.38-13.09-41.14-53.69-72.89-115.56-93.52-181.88-6.79-21.84-12.32-44.15-16.63-66.77-2.53-13.79-4.67-27.53-6.12-41.13-3.36-31.48-.97-26.56.27-18.86,1.17,7.26,3,22.19,5.07,34.38.97,5.66,2.04,11.37,3.17,17.11-8.98-49.71-13.08-107.73-6.38-170.45,4.61-42.84,13.57-81.38,24.01-114.57,16.01-50.74,38.72-99.45,67.45-144.19ZM106.52,323.96c-.44,1.01-.9,2-1.33,3.01-21.2,49.73-35.52,103.02-41.68,157.66-.2,1.75-.36,3.5-.54,5.25-.42,16.71-.04,32.81,1.08,48.05.5,6.88,1.16,11.62,1.9,19.08-.21-10.04-.14-20.03.12-29.96.02-.53.04-1.07.06-1.6.03-2.47.05-4.95.11-7.41.2-8.35.64-19.61,1.74-32.85,4.55-55.3,17-100.45,26.95-130.01,3.53-10.5,7.42-20.9,11.59-31.22ZM60.68,556.86c1.02,22.77,3.45,45.51,7.22,68.04.2,1.21.39,2.42.6,3.63.55,3.19,1.19,6.5,1.84,9.83.32,1.65.64,3.3.98,4.95.06.3.13.62.19.92.43-2.36-.1-10-1.39-23.6-.78-8.26-1.63-17.31-2.36-26.82-.85-.77-2.05-6.26-3.39-12.83-1.39-6.83-2.61-15.22-3.69-24.12ZM50.96,643.98c2.79,16.41,6.29,32.68,10.44,48.76,3.42,12.73,7.23,25.33,11.47,37.75,10.53,30.82,23.61,60.65,39.05,89.03,2.24,3.62,4.52,7.22,6.86,10.83-32.84-56.99-55.89-120.48-67.82-186.37ZM1066.14,682.35s-.05.03-.13.35c-.32,1.41-.66,2.73-.98,4.13.39-1.43.72-2.63,1.03-3.92.07-.29.09-.5.08-.56ZM1062.68,696.62c-.11.44-.22.91-.33,1.34-.3,1.25-.66,2.49-.97,3.74.13-.26.28-.64.4-.87.09-.17.13-.21.2-.29.17-1.1.46-2.59.7-3.92ZM85.77,726.28c.64,2.49,1.35,5.23,1.84,7.24.35.99.71,1.96,1.07,2.94,6.29,17.46,13.38,34.6,21.33,51.3,13.31,28,27.33,51.42,40.27,70.57-24.04-35.86-43.79-74.95-58.89-116.02-1.95-5.32-3.82-10.66-5.62-16.03ZM1046.14,752.82c-.82,2.35-1.7,4.68-2.55,7.01-.19.54-.39,1.06-.58,1.6-.99,2.67-1.94,5.36-2.96,8.02-5.79,15.3-12.23,30.34-19.26,45.01-8.43,19.37-18.32,38.87-29.74,58.21,24.83-40.11,43.02-81.01,55.09-119.85ZM1004.21,837.25c-2.85,5.23-5.75,10.43-8.76,15.57,2.41-4.04,4.77-8.14,7.1-12.29.56-1.08,1.1-2.19,1.66-3.28ZM1022.11,841.97c-31.42,54.19-71.58,103-118.91,143.07-30.39,25.74-63.64,47.79-98.83,65.85,10.83-5.31,21.41-10.95,31.71-16.91,23.94-13.87,46.86-29.63,68.42-47.2,10.55-8.61,20.76-17.67,30.63-27.11,1.05-1.02,2.09-2.03,3.13-3.05-2.48,1.56,11.04-11.51,25.02-26.44,11.66-13.18,22.75-26.92,33.21-41.2,2.38-3.25,5.02-7.08,7.54-10.73,5.74-9.37,11.25-18.96,16.51-28.75-3.55,5.34-7.2,10.77-9.03,12.86h0s-.11.16-.15.2c-1,1.1,1.69-3.45,3.75-7.08,2.22-4.22,4.43-8.54,7.01-13.51ZM151.43,860.02c1.36,1.99,2.71,4,4.04,5.89-1.36-1.95-2.71-3.92-4.04-5.89ZM939.88,937.59c-.92,1.06-1.85,2.11-2.79,3.16.52-.53,1.03-1.08,1.55-1.62.41-.52.83-1.02,1.24-1.54ZM903.72,959.53c-1.39,1.26-2.74,2.5-4.12,3.74-2.52,2.35-5.05,4.66-7.58,6.92-4.43,3.99-8.95,7.91-13.55,11.77-1.77,1.94-3.47,3.85-5.26,5.77-1.66,1.67-3.41,3.36-5.15,5.05,8.27-6.8,16.53-13.99,24.72-21.58.54-.49,1.08-1.01,1.61-1.51.79-.92,1.5-1.72,2.55-3.01.76-.95.64-1.17,1.81-2.46.64-.71,3.11-2.99,4.97-4.69ZM865.13,984.05c-3.97,2.6-17.98,12.97-25.82,18.29,4.86-3.32,10.03-6.85,13.42-9.27,4.09-2.93,8.23-5.93,12.4-9.02ZM846.26,1000.61c-2.23,1.65-4.47,3.29-6.73,4.9-22.03,15.64-45.62,29.67-70.5,41.83-7.97,3.87-23.75,11.53-43.9,18.78-3.12,1.45-6.22,2.89-9.33,4.28,3.47-1.05,6.89-2.16,10.3-3.27,8.26-3.05,16.51-6.31,24.94-9.94,18.65-7.99,37.45-17.48,56.11-28.41,13.08-8.45,25.66-17.44,37.66-26.96.49-.4.96-.8,1.45-1.21ZM838.78,1002.71c-12.32,8.34-24.79,16.1-37.35,23.14-9.02,5.09-18.26,9.85-27.62,14.4-1.89,1.19-4.91,3.11-5.32,3.36-1.94,1.14-3.88,2.24-5.81,3.34,17.96-8.51,35.88-18.21,53.53-29.18,4.46-2.77,13.62-8.94,22.57-15.06ZM875.88,1024.38c-2,1.43-4.03,2.8-6.05,4.2.88-.49,1.76-.98,2.64-1.47,1.14-.9,2.27-1.81,3.41-2.73ZM744.87,1063.01c-6.33,2.39-13,4.68-19.87,6.9-10.05,3.53-20.46,6.72-30.89,9.29-2.28.67-4.26,1.23-6.28,1.8,14.74-3.47,29.37-7.49,43.8-12.19.4-.12.71-.21,1.1-.33,4.08-1.78,8.12-3.6,12.14-5.47ZM692.79,1071.39c-48.68,14.09-99.79,21.08-151.3,19.64,24.2,1.44,49.18,1.13,74.74-1.25,20.87-1.93,41.65-5.19,62.21-9.7,1.78-.78,3.39-1.52,5.47-2.39-2.95.5-5.64.86-7.85.99-2.46.14,1.57-1.13,2.35-1.7,4.34-1.72,9.17-3.57,14.38-5.59ZM436.95,1085.88c23.03,6.58,48.01,11.99,74.68,15.36,5.33.67,10.65,1.22,15.96,1.72,31.87,2.32,63.97,1.53,95.81-2.23-33.05,3.63-70.74,4.55-111.69-.19-6.3-.73-12.76-1.59-19.37-2.63-18.65-2.94-37.14-6.99-55.39-12.03"/>
    <path class="cls-5" d="M773.58,202.71c-129.49-24.84-257.07,82.58-284.73,239.74-27.65,157.16,55.03,304.93,184.52,329.78,129.5,24.84,257.08-82.58,284.73-239.74,27.66-157.16-55.03-304.93-184.52-329.78"/>
    <path class="cls-2" d="M814.04,259.76c-14.01-3.48-26.34-2.18-27.51,2.91-1.18,5.09,9.25,12.05,23.26,15.53,14.01,3.48,26.34,2.18,27.51-2.91,1.18-5.09-9.24-12.05-23.26-15.53"/>
    <path class="cls-2" d="M780.81,225.54c-10.79-2.68-20.28-1.68-21.18,2.24-.91,3.92,7.11,9.27,17.9,11.95,10.79,2.69,20.28,1.68,21.18-2.23.91-3.92-7.12-9.28-17.9-11.96"/>
    <path class="cls-2" d="M743.85,238.25c-12.38-3.35-23.35-2.42-24.48,2.08-1.13,4.49,8,10.85,20.37,14.2,12.38,3.35,23.34,2.42,24.48-2.07,1.13-4.49-8-10.86-20.37-14.21"/>
    <path class="cls-7" d="M910.41,430.99c8.89,32.1,5.13,73.84-7.05,115.09-.17-24.99,7.69-77.84,7.05-115.09"/>
    <path class="cls-7" d="M756.54,582.93c-.16,22.95-10.47,49.65-26.22,74.31,4.58-16.48,19.66-49.66,26.22-74.31"/>
    <path class="cls-7" d="M535.92,416.54c-6.68,15.84-7.5,37.54-3.97,59.6,1.73-12.82,1.18-40.52,3.97-59.6"/>
    <path class="cls-7" d="M831.26,677.74c-4.61,17.83-17.84,36.42-34.92,52.27,6.78-11.86,25-34.48,34.92-52.27"/>
    <path class="cls-7" d="M770.94,713.42c-3.97,12.19-13.96,24.51-26.52,34.74,5.22-7.93,18.86-22.82,26.52-34.74"/>
    <path class="cls-7" d="M600.91,681.34c2.07,15.29,11.23,32.15,23.85,47.14-4.47-10.57-17.36-31.31-23.85-47.14"/>
    <path class="cls-7" d="M895.58,351.18c-2.29-18.31-13.04-38.57-27.95-56.65,5.21,12.69,20.39,37.64,27.95,56.65"/>
    <path class="cls-7" d="M806.64,382.21c3.01-20.48,1.01-46.1-4.24-70.86.27,15.5,4,47.73,4.24,70.86"/>
    <path class="cls-7" d="M628.12,310.41c4-14.87,15.22-30.31,29.63-43.41-5.77,9.86-21.19,28.61-29.63,43.41"/>
    <path class="cls-7" d="M643.55,421.65c-13.49,39.89-15.87,94.21-9.85,149.26,3.82-32.15,3.77-101.42,9.85-149.26"/>
    <path class="cls-9" d="M178.68,714.63c31.09,81.53,103.51,142.37,189.6,159.3,86.09,16.94,173.29-12.52,228.29-77.11s69.78-154.89,38.69-236.41"/>
    <path class="cls-3" d="M379.72,570.3c-125.8,43.92-216.4,108.96-202.18,145.17,14.21,36.2,127.88,29.93,253.68-13.99,125.81-43.92,216.4-108.97,202.19-145.17-14.22-36.2-127.89-29.93-253.69,13.99"/>
    <path class="cls-1" d="M403.8,580.97c-100.75,33.4-179.98,84.84-176.83,114.81,3.15,29.97,87.51,27.18,188.25-6.21,100.75-33.4,179.99-84.84,176.83-114.81-3.15-29.96-87.5-27.18-188.25,6.21"/>
    <path class="cls-2" d="M515.44,828.85c-9.78,4.98-16.15,11.89-14.21,15.44,1.94,3.54,11.47,2.37,21.26-2.6,9.79-4.98,16.16-11.9,14.22-15.44-1.95-3.54-11.47-2.37-21.27,2.6"/>
    <path class="cls-2" d="M478.89,825.58c-7.54,3.83-12.44,9.16-10.95,11.88,1.5,2.73,8.83,1.83,16.37-2,7.54-3.83,12.44-9.15,10.94-11.88-1.49-2.73-8.82-1.83-16.36,2"/>
    <path class="cls-2" d="M464.31,851.43c-8.78,4.23-14.57,10.25-12.91,13.43,1.66,3.17,10.15,2.31,18.93-1.93,8.79-4.23,14.58-10.25,12.91-13.43-1.66-3.17-10.14-2.31-18.93,1.93"/>
    <path class="cls-7" d="M620.8,637.95c5.78,17.29,4.6,39.76-1.37,61.97-.66-13.45,2.59-41.91,1.37-61.97"/>
    <path class="cls-7" d="M588.66,699.5c3.26,12.25,1.43,27.79-3.73,42.94.14-9.37,3.68-28.97,3.73-42.94"/>
    <path class="cls-7" d="M249.19,778.69c10.14,15.34,28.9,28.91,50.54,38.82-10.36-9.13-35.25-25.04-50.54-38.82"/>
    <path class="cls-7" d="M334.07,766.96c12.95,18.74,35.9,37.21,61.97,52.22-12.78-11.99-43.08-34.19-61.97-52.22"/>
    <path class="cls-7" d="M477.66,736.23c9.69,11.99,15.62,30.16,17.8,49.56-4.6-10.47-10.77-34.01-17.8-49.56"/>
    <path class="cls-6" d="M783.23,729.55c-86.77-44.21-117.98,129.45,2.35,57.62-70.1,97.68,89.3,111.64,60.35,17.8,69.09,102.7,139.12-63.55,32.1-57.39,119.07-56.5-34.19-135.87-43.53-38.56,19.1-124.32-145.56-46.61-51.27,20.53"/>
    <path class="cls-4" d="M842.62,701.16l-15.29,49.97-18.29-48.03,16.07,48.9-42.62-27.12,41.3,29.16-50.67,4.14,50.74-1.73-39.37,33.83,40.82-31.95-13.03,50.58,15.29-49.97,18.29,48.03-16.07-48.9,42.62,27.12-41.29-29.16,50.67-4.14-50.75,1.73,39.37-33.83-40.81,31.95,13.02-50.58"/>
    <path class="cls-4" d="M868.1,693.16l-39.47,57.74-5.51-69.02,1.95,69.26-45.38-52.05,42.61,54.32-67.93-15.2,67.01,18.63-64.52,27.45,65.8-24.16-36.48,59.62,39.47-57.74,5.51,69.01-1.95-69.25,45.38,52.05-42.6-54.32,67.92,15.2-67-18.63,64.51-27.46-65.8,24.17,36.48-59.62"/>
    <path class="cls-6" d="M337.69,844.14c-97.04-8.3-60.58,164.34,23.87,52.5-28.19,116.88,124.74,69.81,62.61-6.23,102.66,69.14,104.96-111.24,8.13-65.25,89.05-97.16-82.81-113.01-54.84-19.34-29.1-122.36-152.4,11.61-39.77,38.32"/>
    <path class="cls-4" d="M382.03,795.48l4.64,52.05-35.02-37.61,33.29,39.26-49.69-9.09,49.23,11.47-45.39,22.91,46.37-20.7-23.74,46.15,25.78-44.96,6.97,51.77-4.64-52.05,35.02,37.61-33.29-39.26,49.69,9.09-49.23-11.47,45.39-22.91-46.37,20.7,23.74-46.15-25.78,44.96-6.97-51.77"/>
    <path class="cls-4" d="M402.62,778.48l-14.84,68.35-31.07-61.87,27.86,63.43-61.63-31.14,59.92,34.29-68.65,11.48,69.09-7.96-49.44,49.72,51.86-47.15-11.35,68.96,14.84-68.35,31.07,61.87-27.86-63.43,61.63,31.14-59.92-34.29,68.65-11.48-69.09,7.96,49.44-49.72-51.86,47.16,11.35-68.97"/>
  </g>
</svg>