<?xml version="1.0" encoding="UTF-8"?>
<svg xmlns="http://www.w3.org/2000/svg" xmlns:xlink="http://www.w3.org/1999/xlink" width="3600" height="3600" viewBox="0 0 3600 3600">

<path fill-rule="nonzero" fill="rgb(92.96875%, 81.25%, 76.951599%)" fill-opacity="1" d="M 1819.558594 533.671875 C 1730.390625 539.058594 1629.488281 554.238281 1521.21875 587.648438 C 1469.660156 603.351562 1415.089844 624.140625 1361.578125 648.648438 C 1340.359375 658.371094 1283.269531 687.351562 1254.589844 702.929688 C 1239.730469 710.988281 1227.5 717.75 1212.640625 725.808594 C 1204.578125 730.179688 1204.351562 729.46875 1200.21875 731.339844 C 1200.609375 730.03125 1201.828125 728.269531 1203.679688 726.179688 C 1160.449219 753.339844 1117.601562 783.820312 1074.371094 818.21875 C 1063.46875 826.878906 1053.820312 834.789062 1044.640625 842.351562 C 1017.589844 868.03125 991.425781 895.269531 966.28125 924.058594 C 925.261719 970.679688 887.4375 1021.210938 853.03125 1074.789062 C 785.996094 1179.179688 730.359375 1299.011719 693.597656 1428.808594 C 680.144531 1476.320312 668.578125 1527.53125 660.050781 1582.019531 C 656.886719 1603.511719 654.179688 1625.289062 652.085938 1647.398438 C 651.640625 1652.039062 651.234375 1656.609375 650.851562 1661.089844 C 647.539062 1699.96875 645.667969 1739.480469 645.941406 1779.710938 C 645.4375 1806.300781 646.835938 1840.539062 646.960938 1859.539062 C 646.996094 1864.871094 646.953125 1868.878906 646.898438 1872.921875 C 650.113281 1928.890625 657.394531 1985.609375 663.078125 2025.460938 C 667.53125 2056.691406 670.671875 2078.671875 671.722656 2091.441406 C 671.9375 2092.269531 672.152344 2093.089844 672.371094 2093.910156 C 680.613281 2124.238281 690.21875 2155.378906 701.085938 2187 C 701.257812 2187.5 708.324219 2210.960938 707.753906 2213.449219 C 711.539062 2224.878906 715.34375 2235.980469 719.097656 2246.539062 C 721.804688 2254.160156 718.878906 2248.691406 716.398438 2243.089844 C 706.148438 2219.949219 695.84375 2193.359375 685.941406 2164.960938 C 680.160156 2148.378906 674.71875 2131.558594 669.574219 2114.539062 C 678.800781 2149.410156 689.269531 2183.921875 701.316406 2217.828125 C 703.039062 2222.699219 704.84375 2227.550781 706.625 2232.398438 C 721.824219 2272.351562 738.902344 2311.488281 757.863281 2349.539062 C 775.1875 2383.421875 786.578125 2406.410156 790.078125 2414.429688 C 817.179688 2462.949219 847.460938 2509.488281 880.773438 2553.53125 C 974.078125 2677.085938 1091.25 2780.976562 1222.351562 2859.449219 C 1305.949219 2909.472656 1396.078125 2949.816406 1492.339844 2978.90625 C 1514.230469 2985.515625 1536.121094 2991.625 1557.960938 2996.914062 C 1568.128906 2999.804688 1592.378906 3005.15625 1588.601562 3005.164062 C 1559.078125 3005.226562 1480.71875 2986.210938 1407.660156 2959.976562 C 1391.5 2954.175781 1375.441406 2947.984375 1359.46875 2941.421875 C 1399.871094 2958.527344 1441.101562 2973.511719 1483.03125 2985.945312 C 1505.578125 2992.742188 1528.140625 2998.605469 1550.691406 3004.082031 C 1552.910156 3004.625 1555.160156 3005.25 1556.550781 3005.699219 C 1592.921875 3012.691406 1629.609375 3017.898438 1666.480469 3021.1875 C 1849.550781 3037.644531 2038.148438 3007.171875 2211.910156 2933.867188 C 2212.671875 2933.503906 2213.378906 2933.179688 2214.128906 2932.816406 C 2234.671875 2923.257812 2247.941406 2916.359375 2270.570312 2907.152344 C 2322.21875 2881.210938 2433.289062 2813.171875 2486.628906 2776.101562 C 2512.308594 2758.261719 2521.789062 2753.011719 2522.679688 2754.558594 C 2530.398438 2749.75 2529.121094 2753.640625 2528.019531 2755.640625 C 2526.988281 2757.496094 2525.28125 2759.84375 2523.570312 2762.179688 C 2526.328125 2759.859375 2529.121094 2757.554688 2531.851562 2755.21875 C 2536.640625 2751.132812 2541.191406 2747.226562 2546.199219 2742.976562 C 2577.738281 2716.273438 2593.109375 2702.585938 2599.511719 2698.40625 C 2617.488281 2679.679688 2638.210938 2658.152344 2652.398438 2644.660156 C 2653.269531 2643.828125 2653.46875 2643.761719 2654.199219 2643.09375 C 2669.328125 2624.714844 2684.179688 2605.738281 2698.621094 2586.019531 C 2721.761719 2554.410156 2743.988281 2521.300781 2764.859375 2486.441406 C 2781.570312 2458.539062 2797.269531 2429.929688 2811.859375 2400.691406 C 2822.589844 2379.300781 2832.769531 2357.410156 2842.460938 2335.089844 C 2849.371094 2319.171875 2854.300781 2305.949219 2862.761719 2285.851562 C 2888.359375 2225.011719 2894.621094 2203.910156 2891.78125 2220.539062 C 2890.449219 2228.378906 2887.308594 2239.53125 2884.160156 2250.289062 C 2891.808594 2228.878906 2899.210938 2207.101562 2905.949219 2184.578125 C 2925.179688 2122.960938 2938.140625 2060.859375 2944.558594 2053.199219 C 2951.171875 2045.328125 2936.519531 2128.589844 2931.300781 2154.441406 C 2917.96875 2218.488281 2899.398438 2281.019531 2876.699219 2341.648438 C 2888.449219 2316.300781 2899.460938 2290.589844 2909.578125 2264.5 C 2918.921875 2237.730469 2927.519531 2210.519531 2935.25 2182.898438 C 2940.429688 2164.398438 2949.921875 2126.578125 2955.988281 2100.460938 C 2958.488281 2089.699219 2961 2079.230469 2963.441406 2067.929688 C 2966.988281 2055.039062 2971.511719 2034.691406 2973.480469 2029.03125 C 2975.128906 2024.261719 2974.578125 2032.628906 2973.519531 2042.960938 C 2980.21875 2008.429688 2985.578125 1973.621094 2989.351562 1938.609375 C 3014.289062 1708.039062 2974.371094 1469.988281 2879.171875 1260.070312 C 2875.820312 1252.738281 2872.449219 1245.410156 2868.96875 1238.160156 C 2867.289062 1234.640625 2865.558594 1231.171875 2863.859375 1227.671875 C 2840.269531 1179.660156 2813.839844 1133.148438 2784.53125 1088.660156 C 2773.699219 1072.230469 2755.789062 1047.960938 2750.96875 1039.890625 C 2748.078125 1035.058594 2746.859375 1032.480469 2747.039062 1031.851562 C 2742.960938 1025.378906 2740.378906 1020.808594 2741.96875 1021.238281 C 2743.941406 1021.769531 2762.808594 1047.808594 2773.769531 1063.128906 C 2896.089844 1234.089844 2974.980469 1443.148438 3000.941406 1661.898438 C 3011.679688 1754.101562 3012.761719 1847.660156 3003.460938 1940.371094 C 2994.140625 2033.429688 2974.351562 2125.410156 2945.148438 2214.28125 C 2943.320312 2221.351562 2941.480469 2228.449219 2939.441406 2235.660156 C 2924.328125 2289.089844 2904.679688 2343.949219 2880.308594 2399.410156 C 2878.878906 2402.679688 2877.308594 2405.898438 2875.851562 2409.148438 C 2876.578125 2407.761719 2877.339844 2406.398438 2878.058594 2405 C 2884.171875 2393.21875 2894.949219 2370.800781 2896.109375 2369.828125 C 2897.511719 2368.648438 2898.210938 2368.660156 2898.339844 2369.609375 C 2900.960938 2364.980469 2903.371094 2360.878906 2905.75 2356.871094 C 2944.28125 2273.851562 2975.71875 2184.390625 2998.191406 2088.089844 C 3003.980469 2063.308594 3009.359375 2038.558594 3013.800781 2013.949219 C 3016.75 2002.179688 3022.171875 1971.109375 3022.171875 1978.441406 C 3022.160156 1992.339844 3016.800781 2038.269531 3006.191406 2090.351562 C 2995.019531 2145.199219 2981.890625 2189.628906 2973.519531 2216.339844 C 2950.289062 2290.449219 2920.230469 2363.359375 2883.570312 2433.691406 C 2824.128906 2547.75 2747.199219 2654.980469 2654.339844 2748.621094 C 2631.480469 2773.769531 2607.421875 2798.257812 2581.929688 2821.761719 C 2571.539062 2831.328125 2560.699219 2840.890625 2549.511719 2850.410156 C 2900.640625 2612.765625 3110.691406 2222.570312 3111.300781 1806.789062 C 3110.871094 1485.558594 2985.421875 1176.078125 2760.289062 940.839844 C 2762.769531 944.011719 2765.21875 947.039062 2767.730469 950.339844 C 2786.109375 974.5 2795.011719 988.910156 2784.511719 977.890625 C 2778 971.050781 2764.25 955.121094 2746.78125 935.628906 C 2747.761719 937.191406 2748.699219 938.78125 2749.871094 940.5 C 2749.769531 940.378906 2749.648438 940.28125 2749.539062 940.171875 C 2749.570312 940.199219 2749.628906 940.289062 2749.648438 940.320312 C 2751.269531 942.941406 2744.898438 935.78125 2737.738281 927.710938 C 2725.578125 914.890625 2712.878906 901.890625 2699.570312 888.738281 C 2665.179688 854.75 2629.371094 823.089844 2592.191406 793.511719 C 2588.460938 790.71875 2584.71875 787.949219 2580.949219 785.210938 C 2609.421875 808.808594 2636.761719 833.371094 2662.191406 859.359375 C 2666.25 863.519531 2669.898438 867.488281 2673.558594 871.460938 C 2685.140625 882.53125 2695.570312 892.808594 2702.519531 900.511719 C 2707.761719 906.320312 2711.621094 911.171875 2715.859375 916.261719 C 2708.949219 909.398438 2703.441406 904.378906 2697.339844 898.789062 C 2703.109375 905.75 2708.871094 912.710938 2714.300781 919.390625 C 2712.46875 917.640625 2712.03125 917.609375 2708.789062 914.140625 C 2688.480469 892.351562 2657.679688 860.171875 2615.839844 823.109375 C 2575.398438 787.289062 2541.5 762 2528.238281 752.210938 C 2515.820312 743.050781 2503.191406 734.191406 2490.460938 725.5 C 2288.839844 603.738281 2056.921875 537.429688 1819.558594 533.679688 Z M 1666.300781 540.738281 C 1665.679688 540.808594 1665.058594 540.878906 1664.449219 540.960938 C 1574.019531 555.449219 1485.019531 580.300781 1399.878906 615.210938 C 1397.628906 616.261719 1395.121094 617.328125 1392.941406 618.359375 C 1373.671875 627.800781 1354.390625 637.839844 1336.5 647.71875 C 1448.96875 594.210938 1554.410156 564.210938 1643.359375 545.480469 C 1651.171875 543.839844 1658.671875 542.320312 1666.300781 540.75 Z M 1387.289062 630.871094 C 1369.300781 638.441406 1351.101562 646.570312 1332.699219 655.351562 C 1314.929688 663.75 1297.378906 672.730469 1279.921875 682.050781 C 1274.480469 685.828125 1269.898438 689.300781 1266.039062 692.53125 C 1270.210938 690.101562 1275.050781 687.390625 1279.628906 684.820312 C 1293.898438 676.808594 1308.070312 669.320312 1322.171875 662.089844 C 1343.050781 651.371094 1365.101562 640.800781 1387.289062 630.871094 Z M 1253.609375 687.339844 C 1206.410156 714.78125 1161.078125 745.609375 1118.03125 779.589844 C 1153.421875 753.289062 1189.269531 729.289062 1225.160156 707.601562 C 1233.230469 701.449219 1242.949219 694.550781 1253.609375 687.339844 Z M 1098.808594 730.621094 C 1067.890625 749.929688 1037.820312 770.488281 1008.671875 792.25 C 941.15625 851.429688 882.289062 916.261719 831.546875 983.75 C 835.292969 979.648438 832.929688 984.25 834.355469 983.359375 C 833.660156 984.671875 832.933594 986.070312 832.300781 987.300781 C 851.738281 961.441406 872.097656 936.339844 893.324219 912.078125 C 923.214844 878.988281 953.328125 848.019531 980.035156 825.03125 C 992.347656 814.441406 989.472656 818.578125 981.238281 827.890625 C 1003.828125 806.640625 1024.328125 788.960938 1041.648438 774.710938 C 1061.578125 758.320312 1080.769531 743.710938 1098.808594 730.628906 Z M 932.289062 853.671875 C 926.898438 858.191406 921.546875 862.75 916.234375 867.359375 C 871.875 916.140625 830.71875 968.660156 793.429688 1024.578125 C 818.128906 988.269531 841.953125 957.109375 863.328125 931.039062 C 883.503906 906.441406 906.515625 880.351562 932.289062 853.671875 Z M 836.871094 952.371094 C 835.664062 953.941406 834.429688 955.488281 833.226562 957.070312 C 832.523438 958 831.828125 958.949219 831.128906 959.878906 C 833.019531 957.359375 834.960938 954.878906 836.871094 952.371094 Z M 831.128906 959.898438 C 829.582031 961.960938 828.03125 964.019531 826.496094 966.078125 C 824.234375 969.109375 821.957031 972.128906 819.71875 975.179688 C 681.054688 1165.210938 589.75 1395.128906 564.835938 1636.511719 C 559.269531 1690.761719 557.105469 1745.21875 558.214844 1799.488281 C 563.910156 2086.300781 660.792969 2370.398438 832.160156 2593.558594 C 854.1875 2622.21875 877.476562 2649.757812 901.800781 2676.265625 C 902.195312 2676.671875 902.816406 2677.296875 903.21875 2677.71875 C 878.613281 2650.574219 855.007812 2622.417969 832.796875 2593.039062 C 643.734375 2342.851562 548.117188 2017.570312 568.773438 1698.769531 C 569.460938 1688.121094 571.023438 1665.761719 574.175781 1637.679688 C 583.902344 1551.28125 605.1875 1440.679688 651.453125 1317.769531 C 666.164062 1278.691406 681.617188 1243.511719 696.746094 1211.808594 C 706.417969 1190.039062 716.71875 1168.359375 727.730469 1146.859375 C 733.507812 1135.578125 739.421875 1124.410156 745.480469 1113.300781 C 738.800781 1124.75 732.261719 1136.210938 726 1147.691406 C 717.6875 1162.910156 690.839844 1212.488281 663.03125 1279.421875 C 633.542969 1350.378906 618.710938 1401.53125 608.832031 1432.25 C 600.507812 1458.148438 599.59375 1457.671875 604.847656 1434.628906 C 609.929688 1412.371094 616.308594 1390.5 620.148438 1377.308594 C 665.117188 1228.359375 736.632812 1085.910156 831.128906 959.898438 Z M 754.421875 1040.53125 C 582.597656 1261.109375 489.292969 1530.160156 488.699219 1806.789062 C 489.167969 2192.960938 670.300781 2558.691406 980.589844 2800 C 926.585938 2752.90625 876.191406 2701.023438 830.234375 2644.757812 C 822.164062 2634.882812 814.226562 2624.871094 806.445312 2614.734375 C 712.085938 2491.570312 639.25 2349.691406 591.941406 2197.578125 C 576.367188 2147.5 563.6875 2096.308594 553.796875 2044.429688 C 548.003906 2012.808594 543.101562 1981.300781 539.765625 1950.121094 C 532.054688 1877.898438 537.535156 1889.191406 540.382812 1906.859375 C 543.066406 1923.5 547.265625 1957.75 552.023438 1985.699219 C 554.234375 1998.679688 556.691406 2011.789062 559.277344 2024.960938 C 538.679688 1910.929688 529.285156 1777.859375 544.644531 1634.011719 C 555.230469 1535.761719 575.78125 1447.378906 599.722656 1371.238281 C 636.433594 1254.878906 688.527344 1143.160156 754.421875 1040.53125 Z M 732.992188 1276.691406 C 731.996094 1279.011719 730.9375 1281.269531 729.953125 1283.601562 C 681.324219 1397.628906 648.476562 1519.859375 634.347656 1645.191406 C 633.894531 1649.199219 633.53125 1653.199219 633.113281 1657.21875 C 632.148438 1695.550781 633.023438 1732.460938 635.585938 1767.421875 C 636.742188 1783.21875 638.257812 1794.070312 639.953125 1811.191406 C 639.480469 1788.171875 639.621094 1765.25 640.230469 1742.46875 C 640.265625 1741.269531 640.320312 1740.011719 640.351562 1738.800781 C 640.417969 1733.128906 640.484375 1727.460938 640.617188 1721.808594 C 641.066406 1702.648438 642.070312 1676.828125 644.597656 1646.460938 C 655.039062 1519.628906 683.585938 1416.070312 706.410156 1348.289062 C 714.519531 1324.210938 723.429688 1300.339844 732.992188 1276.691406 Z M 627.867188 1810.851562 C 630.203125 1863.078125 635.777344 1915.210938 644.414062 1966.898438 C 644.886719 1969.679688 645.3125 1972.449219 645.804688 1975.230469 C 647.066406 1982.539062 648.519531 1990.121094 650.019531 1997.78125 C 650.753906 2001.558594 651.488281 2005.339844 652.257812 2009.128906 C 652.398438 2009.820312 652.5625 2010.539062 652.703125 2011.230469 C 653.683594 2005.820312 652.464844 1988.289062 649.507812 1957.109375 C 647.710938 1938.160156 645.761719 1917.390625 644.089844 1895.578125 C 642.148438 1893.820312 639.398438 1881.21875 636.324219 1866.171875 C 633.125 1850.5 630.335938 1831.25 627.867188 1810.851562 Z M 605.574219 2010.660156 C 611.972656 2048.28125 619.996094 2085.601562 629.519531 2122.5 C 637.355469 2151.691406 646.097656 2180.589844 655.824219 2209.058594 C 679.96875 2279.761719 709.972656 2348.171875 745.390625 2413.269531 C 750.515625 2421.550781 755.75 2429.828125 761.121094 2438.089844 C 685.808594 2307.378906 632.921875 2161.769531 605.574219 2010.660156 Z M 2933.910156 2098.660156 C 2933.890625 2098.539062 2933.789062 2098.71875 2933.621094 2099.46875 C 2932.878906 2102.691406 2932.101562 2105.730469 2931.351562 2108.929688 C 2932.25 2105.660156 2933 2102.890625 2933.730469 2099.941406 C 2933.890625 2099.269531 2933.941406 2098.789062 2933.910156 2098.660156 Z M 2925.960938 2131.398438 C 2925.710938 2132.390625 2925.46875 2133.480469 2925.21875 2134.46875 C 2924.53125 2137.339844 2923.710938 2140.171875 2923 2143.039062 C 2923.289062 2142.441406 2923.640625 2141.570312 2923.910156 2141.039062 C 2924.109375 2140.648438 2924.210938 2140.570312 2924.359375 2140.378906 C 2924.75 2137.871094 2925.429688 2134.441406 2925.960938 2131.398438 Z M 685.398438 2199.398438 C 686.867188 2205.121094 688.496094 2211.410156 689.628906 2216.019531 C 690.421875 2218.28125 691.265625 2220.519531 692.070312 2222.769531 C 706.503906 2262.808594 722.773438 2302.121094 740.988281 2340.421875 C 771.523438 2404.648438 803.679688 2458.359375 833.351562 2502.269531 C 778.230469 2420.039062 732.914062 2330.378906 698.304688 2236.171875 C 693.820312 2223.988281 689.527344 2211.730469 685.398438 2199.398438 Z M 2888.03125 2260.289062 C 2886.148438 2265.671875 2884.140625 2271.011719 2882.179688 2276.371094 C 2881.75 2277.589844 2881.289062 2278.800781 2880.851562 2280.019531 C 2878.601562 2286.160156 2876.410156 2292.320312 2874.058594 2298.410156 C 2860.789062 2333.511719 2846.019531 2368.019531 2829.890625 2401.660156 C 2810.558594 2446.070312 2787.890625 2490.808594 2761.679688 2535.171875 C 2818.640625 2443.179688 2860.351562 2349.378906 2888.03125 2260.289062 Z M 2791.859375 2453.921875 C 2785.328125 2465.929688 2778.671875 2477.859375 2771.769531 2489.640625 C 2777.300781 2480.359375 2782.71875 2470.960938 2788.058594 2461.460938 C 2789.339844 2458.96875 2790.589844 2456.429688 2791.859375 2453.921875 Z M 2832.921875 2464.761719 C 2760.871094 2589.050781 2668.75 2700.980469 2560.210938 2792.894531 C 2490.5 2851.925781 2414.238281 2902.503906 2333.53125 2943.925781 C 2358.359375 2931.722656 2382.640625 2918.792969 2406.25 2905.117188 C 2461.171875 2873.308594 2513.730469 2837.183594 2563.191406 2796.867188 C 2587.378906 2777.140625 2610.789062 2756.347656 2633.441406 2734.691406 C 2635.828125 2732.363281 2638.230469 2730.046875 2640.601562 2727.699219 C 2634.921875 2731.292969 2665.921875 2701.308594 2698 2667.058594 C 2724.738281 2636.835938 2750.179688 2605.3125 2774.171875 2572.570312 C 2779.621094 2565.121094 2785.679688 2556.339844 2791.460938 2547.960938 C 2804.628906 2526.460938 2817.261719 2504.480469 2829.320312 2482.019531 C 2821.179688 2494.28125 2812.808594 2506.730469 2808.609375 2511.511719 L 2808.589844 2511.519531 C 2808.5 2511.621094 2808.328125 2511.878906 2808.238281 2511.980469 C 2805.960938 2514.488281 2812.128906 2504.058594 2816.839844 2495.75 C 2821.929688 2486.050781 2827.011719 2476.140625 2832.921875 2464.761719 Z M 835.992188 2506.140625 C 839.105469 2510.71875 842.21875 2515.308594 845.269531 2519.660156 C 842.144531 2515.179688 839.054688 2510.679688 835.992188 2506.140625 Z M 2644.320312 2684.0625 C 2642.210938 2686.488281 2640.070312 2688.90625 2637.929688 2691.316406 C 2639.128906 2690.085938 2640.300781 2688.824219 2641.480469 2687.585938 C 2642.429688 2686.402344 2643.378906 2685.253906 2644.328125 2684.0625 Z M 2561.398438 2734.371094 C 2558.21875 2737.265625 2555.121094 2740.109375 2551.949219 2742.945312 C 2546.160156 2748.34375 2540.371094 2753.632812 2534.570312 2758.835938 C 2524.390625 2767.980469 2514.019531 2776.972656 2503.480469 2785.820312 C 2499.410156 2790.277344 2495.519531 2794.660156 2491.421875 2799.0625 C 2487.621094 2802.886719 2483.589844 2806.765625 2479.589844 2810.628906 C 2498.558594 2795.039062 2517.511719 2778.558594 2536.308594 2761.144531 C 2537.539062 2760.011719 2538.769531 2758.820312 2540 2757.671875 C 2541.808594 2755.570312 2543.441406 2753.746094 2545.839844 2750.777344 C 2547.589844 2748.597656 2547.320312 2748.089844 2550 2745.125 C 2551.460938 2743.511719 2557.121094 2738.273438 2561.398438 2734.371094 Z M 2472.878906 2790.617188 C 2463.78125 2796.585938 2431.640625 2820.359375 2413.679688 2832.574219 C 2424.808594 2824.945312 2436.671875 2816.863281 2444.441406 2811.304688 C 2453.828125 2804.589844 2463.320312 2797.699219 2472.878906 2790.617188 Z M 2429.609375 2828.601562 C 2424.480469 2832.386719 2419.351562 2836.148438 2414.171875 2839.824219 C 2363.640625 2875.714844 2309.539062 2907.890625 2252.480469 2935.769531 C 2234.199219 2944.644531 2198.011719 2962.207031 2151.78125 2978.855469 C 2144.640625 2982.175781 2137.519531 2985.464844 2130.390625 2988.660156 C 2138.351562 2986.242188 2146.191406 2983.714844 2154.011719 2981.164062 C 2172.949219 2974.175781 2191.890625 2966.683594 2211.21875 2958.363281 C 2254 2940.03125 2297.109375 2918.261719 2339.898438 2893.214844 C 2369.921875 2873.835938 2398.75 2853.210938 2426.269531 2831.378906 C 2427.398438 2830.449219 2428.488281 2829.527344 2429.609375 2828.601562 Z M 2412.460938 2833.414062 C 2384.210938 2852.53125 2355.589844 2870.335938 2326.800781 2886.480469 C 2306.089844 2898.164062 2284.910156 2909.078125 2263.441406 2919.507812 C 2259.109375 2922.230469 2252.191406 2926.652344 2251.230469 2927.226562 C 2246.789062 2929.84375 2242.351562 2932.359375 2237.910156 2934.882812 C 2279.109375 2915.371094 2320.210938 2893.121094 2360.679688 2867.957031 C 2370.921875 2861.59375 2391.921875 2847.460938 2412.460938 2833.414062 Z M 2497.53125 2883.121094 C 2492.960938 2886.390625 2488.289062 2889.539062 2483.671875 2892.746094 C 2485.691406 2891.628906 2487.710938 2890.503906 2489.71875 2889.371094 C 2492.328125 2887.304688 2494.929688 2885.222656 2497.53125 2883.121094 Z M 2197.058594 2971.71875 C 2182.539062 2977.199219 2167.25 2982.457031 2151.488281 2987.546875 C 2128.441406 2995.636719 2104.570312 3002.949219 2080.648438 3008.847656 C 2075.421875 3010.390625 2070.878906 3011.671875 2066.25 3012.980469 C 2100.058594 3005.019531 2133.601562 2995.800781 2166.699219 2985.007812 C 2167.609375 2984.726562 2168.320312 2984.523438 2169.230469 2984.25 C 2178.578125 2980.183594 2187.851562 2975.996094 2197.058594 2971.71875 Z M 2077.609375 2990.9375 C 1965.980469 3023.25 1848.761719 3039.285156 1730.609375 3035.976562 C 1786.121094 3039.277344 1843.410156 3038.558594 1902.03125 3033.117188 C 1949.898438 3028.675781 1997.558594 3021.199219 2044.699219 3010.863281 C 2048.800781 3009.0625 2052.488281 3007.375 2057.261719 3005.371094 C 2050.488281 3006.53125 2044.308594 3007.363281 2039.25 3007.652344 C 2033.609375 3007.96875 2042.851562 3005.050781 2044.648438 3003.742188 C 2054.601562 2999.8125 2065.671875 2995.558594 2077.609375 2990.9375 Z M 1490.839844 3024.15625 C 1543.679688 3039.265625 1600.960938 3051.671875 1662.128906 3059.394531 C 1674.351562 3060.933594 1686.550781 3062.199219 1698.730469 3063.335938 C 1771.820312 3068.660156 1845.449219 3066.855469 1918.480469 3058.214844 C 1842.679688 3066.542969 1756.238281 3068.65625 1662.308594 3057.796875 C 1647.871094 3056.125 1633.039062 3054.132812 1617.871094 3051.757812 C 1575.109375 3045.023438 1532.710938 3035.722656 1490.839844 3024.15625 "/>
<path fill-rule="evenodd" fill="rgb(82.617188%, 84.375%, 84.764099%)" fill-opacity="1" d="M 1919.648438 2109.730469 L 2456.238281 2170.640625 C 2456.238281 2170.640625 2486.480469 2476.351562 2492.71875 2668.628906 C 2494.941406 2737.171875 2006.429688 2689.339844 2006.429688 2689.339844 C 2001.980469 2631.867188 1991.691406 2547.578125 1991.691406 2547.578125 C 1991.691406 2547.578125 1947.410156 2608.050781 1910.109375 2672.886719 C 1910.109375 2672.886719 1774.988281 2638.226562 1782.921875 2606.019531 C 1841.488281 2368.460938 1919.648438 2109.730469 1919.648438 2109.730469 "/>
<path fill="none" stroke-width="140.91" stroke-linecap="round" stroke-linejoin="round" stroke="rgb(100%, 100%, 100%)" stroke-opacity="1" stroke-miterlimit="10" d="M 19196.484375 14902.695312 L 24562.382812 14293.59375 C 24562.382812 14293.59375 24864.804688 11236.484375 24927.1875 9313.710938 C 24949.414062 8628.28125 20064.296875 9106.601562 20064.296875 9106.601562 C 20019.804688 9681.328125 19916.914062 10524.21875 19916.914062 10524.21875 C 19916.914062 10524.21875 19474.101562 9919.492188 19101.09375 9271.132812 C 19101.09375 9271.132812 17749.882812 9617.734375 17829.21875 9939.804688 C 18414.882812 12315.390625 19196.484375 14902.695312 19196.484375 14902.695312 Z M 19196.484375 14902.695312 " transform="matrix(0.1, 0, 0, -0.1, 0, 3600)"/>
<path fill="none" stroke-width="140.91" stroke-linecap="round" stroke-linejoin="round" stroke="rgb(100%, 100%, 100%)" stroke-opacity="1" stroke-miterlimit="10" d="M 18718.90625 15302.890625 L 25190.898438 14594.882812 " transform="matrix(0.1, 0, 0, -0.1, 0, 3600)"/>
<path fill-rule="evenodd" fill="rgb(100%, 100%, 100%)" fill-opacity="1" d="M 1933.46875 2104.480469 L 1931.308594 2026.398438 L 1973.921875 2021.660156 L 1962.378906 2107.25 L 1933.46875 2104.480469 "/>
<path fill="none" stroke-width="140.91" stroke-linecap="round" stroke-linejoin="round" stroke="rgb(100%, 100%, 100%)" stroke-opacity="1" stroke-miterlimit="10" d="M 19334.6875 14955.195312 L 19313.085938 15736.015625 L 19739.21875 15783.398438 L 19623.789062 14927.5 Z M 19334.6875 14955.195312 " transform="matrix(0.1, 0, 0, -0.1, 0, 3600)"/>
<path fill-rule="evenodd" fill="rgb(100%, 100%, 100%)" fill-opacity="1" d="M 2411.53125 2159.050781 L 2421.390625 2082.03125 L 2464.148438 2085.148438 L 2439.460938 2167.058594 L 2411.53125 2159.050781 "/>
<path fill="none" stroke-width="140.91" stroke-linecap="round" stroke-linejoin="round" stroke="rgb(100%, 100%, 100%)" stroke-opacity="1" stroke-miterlimit="10" d="M 24115.3125 14409.492188 L 24213.90625 15179.6875 L 24641.484375 15148.515625 L 24394.609375 14329.414062 Z M 24115.3125 14409.492188 " transform="matrix(0.1, 0, 0, -0.1, 0, 3600)"/>
<path fill="none" stroke-width="140.91" stroke-linecap="round" stroke-linejoin="round" stroke="rgb(100%, 100%, 100%)" stroke-opacity="1" stroke-miterlimit="10" d="M 21852.382812 16196.40625 C 21881.796875 16185.898438 21788.90625 16194.21875 21758.984375 16203.007812 C 21695.585938 16221.601562 21683.515625 16302.382812 21705.585938 16355.78125 C 21790.585938 16560.78125 22282.5 16626.210938 22420.390625 16449.296875 C 22728.59375 16054.21875 21889.804688 15488.710938 21980 14986.71875 " transform="matrix(0.1, 0, 0, -0.1, 0, 3600)"/>
<path fill="none" stroke-width="140.91" stroke-linecap="round" stroke-linejoin="round" stroke="rgb(100%, 100%, 100%)" stroke-opacity="1" stroke-miterlimit="10" d="M 18570.195312 10004.6875 L 19468.398438 12874.21875 " transform="matrix(0.1, 0, 0, -0.1, 0, 3600)"/>
<path fill="none" stroke-width="140.91" stroke-linecap="round" stroke-linejoin="round" stroke="rgb(100%, 100%, 100%)" stroke-opacity="1" stroke-miterlimit="10" d="M 24048.90625 9507.03125 L 23748.398438 13019.296875 " transform="matrix(0.1, 0, 0, -0.1, 0, 3600)"/>
<path fill="none" stroke-width="140.91" stroke-linecap="round" stroke-linejoin="round" stroke="rgb(100%, 100%, 100%)" stroke-opacity="1" stroke-miterlimit="10" d="M 22627.8125 9456.289062 L 22355.507812 12722.304688 " transform="matrix(0.1, 0, 0, -0.1, 0, 3600)"/>
<path fill="none" stroke-width="140.91" stroke-linecap="round" stroke-linejoin="round" stroke="rgb(100%, 100%, 100%)" stroke-opacity="1" stroke-miterlimit="10" d="M 20945.117188 9457.890625 L 21024.414062 12295 " transform="matrix(0.1, 0, 0, -0.1, 0, 3600)"/>
<path fill="none" stroke-width="140.91" stroke-linecap="round" stroke-linejoin="round" stroke="rgb(100%, 100%, 100%)" stroke-opacity="1" stroke-miterlimit="10" d="M 18635.117188 26843.984375 C 19379.414062 26972.304688 20996.992188 27023.710938 22457.5 26526.992188 C 24036.484375 25990 25398.398438 24905.195312 25805.117188 24341.796875 " transform="matrix(0.1, 0, 0, -0.1, 0, 3600)"/>
<path fill="none" stroke-width="140.91" stroke-linecap="round" stroke-linejoin="round" stroke="rgb(100%, 100%, 100%)" stroke-opacity="1" stroke-miterlimit="10" d="M 22440.390625 27596.210938 C 21994.804688 27862.304688 22240.195312 28651.289062 23056.601562 28192.109375 C 23541.796875 27919.21875 23042.617188 27458.710938 22690.703125 27039.492188 C 22497.695312 26809.804688 22311.40625 26728.28125 22393.203125 26561.210938 " transform="matrix(0.1, 0, 0, -0.1, 0, 3600)"/>
<path fill-rule="evenodd" fill="rgb(98.4375%, 92.576599%, 89.84375%)" fill-opacity="1" d="M 2373.058594 964.03125 C 2402.070312 965.949219 2500.691406 1012.710938 2543.730469 1049.660156 C 2623.03125 1117.738281 2559.851562 1300.660156 2541.089844 1343.429688 C 2525.550781 1378.851562 2451.910156 1273.621094 2431.148438 1306.261719 C 2388.359375 1373.550781 2344.699219 1686.859375 2284.328125 1747.128906 C 2230.199219 1801.179688 2126.761719 1695.589844 2068.960938 1667.910156 C 1975.371094 1623.101562 1762.378906 1686.449219 1733.011719 1602.808594 C 1703.648438 1519.171875 1886.359375 1243.660156 1892.78125 1166.070312 C 1896.199219 1124.671875 1764.640625 1178.199219 1771.53125 1137.230469 C 1779.789062 1088.089844 1823.460938 885.628906 1942.351562 871.210938 C 1971.421875 867.679688 2101.460938 882.179688 2126.640625 894.238281 C 2144.511719 902.789062 2101.058594 921.160156 2093.398438 943.519531 C 2068.660156 1015.769531 2110.46875 1095.628906 2186.71875 1121.738281 C 2262.960938 1147.851562 2344.949219 1110.398438 2369.691406 1038.148438 C 2378.128906 1013.519531 2348.390625 962.398438 2373.058594 964.03125 "/>
<path fill="none" stroke-width="140.91" stroke-linecap="round" stroke-linejoin="round" stroke="rgb(100%, 100%, 100%)" stroke-opacity="1" stroke-miterlimit="10" d="M 23730.585938 26359.6875 C 24020.703125 26340.507812 25006.914062 25872.890625 25437.304688 25503.398438 C 26230.3125 24822.617188 25598.515625 22993.398438 25410.898438 22565.703125 C 25255.507812 22211.484375 24519.101562 23263.789062 24311.484375 22937.382812 C 23883.59375 22264.492188 23446.992188 19131.40625 22843.28125 18528.710938 C 22301.992188 17988.203125 21267.617188 19044.101562 20689.609375 19320.898438 C 19753.710938 19768.984375 17623.789062 19135.507812 17330.117188 19971.914062 C 17036.484375 20808.28125 18863.59375 23563.398438 18927.8125 24339.296875 C 18961.992188 24753.28125 17646.40625 24218.007812 17715.3125 24627.695312 C 17797.890625 25119.101562 18234.609375 27143.710938 19423.515625 27287.890625 C 19714.21875 27323.203125 21014.609375 27178.203125 21266.40625 27057.617188 C 21445.117188 26972.109375 21010.585938 26788.398438 20933.984375 26564.804688 C 20686.601562 25842.304688 21104.6875 25043.710938 21867.1875 24782.617188 C 22629.609375 24521.484375 23449.492188 24896.015625 23696.914062 25618.515625 C 23781.289062 25864.804688 23483.90625 26376.015625 23730.585938 26359.6875 Z M 23730.585938 26359.6875 " transform="matrix(0.1, 0, 0, -0.1, 0, 3600)"/>
<path fill="none" stroke-width="140.91" stroke-linecap="round" stroke-linejoin="round" stroke="rgb(100%, 100%, 100%)" stroke-opacity="1" stroke-miterlimit="10" d="M 21927.5 19005.3125 C 22533.28125 18468.710938 23099.882812 19165.585938 23062.1875 20578.398438 C 23049.609375 21049.609375 23399.6875 21829.804688 23660.78125 22221.289062 " transform="matrix(0.1, 0, 0, -0.1, 0, 3600)"/>
<path fill="none" stroke-width="140.91" stroke-linecap="round" stroke-linejoin="round" stroke="rgb(100%, 100%, 100%)" stroke-opacity="1" stroke-miterlimit="10" d="M 18246.601562 25032.695312 C 18278.984375 25476.601562 18920 27131.796875 19895 26930.117188 " transform="matrix(0.1, 0, 0, -0.1, 0, 3600)"/>
<path fill="none" stroke-width="140.91" stroke-linecap="round" stroke-linejoin="round" stroke="rgb(100%, 100%, 100%)" stroke-opacity="1" stroke-miterlimit="10" d="M 7951.71875 21185.195312 C 8653.867188 21756.601562 10316.484375 22770.898438 12144.296875 23143.59375 C 14120.390625 23546.601562 16198.90625 23272.617188 16963.59375 22951.40625 " transform="matrix(0.1, 0, 0, -0.1, 0, 3600)"/>
<path fill="none" stroke-width="140.91" stroke-linecap="round" stroke-linejoin="round" stroke="rgb(100%, 100%, 100%)" stroke-opacity="1" stroke-miterlimit="10" d="M 11483.398438 24202.617188 C 10856.796875 24203.398438 10639.101562 25138.28125 11770.117188 25165.195312 C 12442.109375 25181.09375 12196.601562 24423.515625 12080.195312 23794.882812 C 12016.289062 23450.3125 11870.195312 23257.890625 12056.40625 23139.609375 " transform="matrix(0.1, 0, 0, -0.1, 0, 3600)"/>
<path fill-rule="evenodd" fill="rgb(74.021912%, 81.25%, 72.459412%)" fill-opacity="1" d="M 1357.789062 1226.578125 C 1389.308594 1211.230469 1520.691406 1199.28125 1587.96875 1210.609375 C 1711.941406 1231.46875 1755.820312 1451.988281 1761.898438 1505.921875 C 1766.941406 1550.589844 1626.550781 1489.210938 1624.449219 1534.199219 C 1620.109375 1626.949219 1762.839844 1966.21875 1735.898438 2062.429688 C 1711.730469 2148.691406 1539.929688 2104.679688 1462.761719 2111.421875 C 1337.828125 2122.328125 1152.929688 2312.460938 1071.878906 2246.308594 C 990.832031 2180.148438 1016.410156 1795.910156 976.460938 1714.5 C 955.148438 1671.058594 849.605469 1802.898438 832.175781 1757.839844 C 811.265625 1703.78125 735.214844 1475.351562 851.011719 1390.160156 C 879.328125 1369.328125 1024.199219 1306.421875 1057.808594 1303.480469 C 1081.671875 1301.398438 1047.230469 1345.628906 1052.660156 1372.550781 C 1070.210938 1459.519531 1162.011719 1514.480469 1257.539062 1495.199219 C 1353.078125 1475.929688 1411.671875 1389.429688 1390.578125 1303.25 C 1381.851562 1267.539062 1330.96875 1239.640625 1357.789062 1226.578125 "/>
<path fill="none" stroke-width="140.91" stroke-linecap="round" stroke-linejoin="round" stroke="rgb(100%, 100%, 100%)" stroke-opacity="1" stroke-miterlimit="10" d="M 13577.890625 23734.21875 C 13893.085938 23887.695312 15206.914062 24007.1875 15879.6875 23893.90625 C 17119.414062 23685.3125 17558.203125 21480.117188 17618.984375 20940.78125 C 17669.414062 20494.101562 16265.507812 21107.890625 16244.492188 20658.007812 C 16201.09375 19730.507812 17628.398438 16337.8125 17358.984375 15375.703125 C 17117.304688 14513.085938 15399.296875 14953.203125 14627.617188 14885.78125 C 13378.28125 14776.71875 11529.296875 12875.390625 10718.789062 13536.914062 C 9908.320312 14198.515625 10164.101562 18040.898438 9764.609375 18855 C 9551.484375 19289.414062 8496.054688 17971.015625 8321.757812 18421.601562 C 8112.65625 18962.1875 7352.148438 21246.484375 8510.117188 22098.398438 C 8793.28125 22306.71875 10241.992188 22935.78125 10578.085938 22965.195312 C 10816.71875 22986.015625 10472.304688 22543.710938 10526.601562 22274.492188 C 10702.109375 21404.804688 11620.117188 20855.195312 12575.390625 21048.007812 C 13530.78125 21240.703125 14116.71875 22105.703125 13905.78125 22967.5 C 13818.515625 23324.609375 13309.6875 23603.59375 13577.890625 23734.21875 Z M 13577.890625 23734.21875 " transform="matrix(0.1, 0, 0, -0.1, 0, 3600)"/>
<path fill="none" stroke-width="140.91" stroke-linecap="round" stroke-linejoin="round" stroke="rgb(100%, 100%, 100%)" stroke-opacity="1" stroke-miterlimit="10" d="M 15770.78125 20221.71875 C 15775.703125 19775.3125 17077.382812 16616.09375 16958.085938 15621.210938 C 16920.898438 15311.015625 16532.304688 15050.195312 16283.085938 15372.890625 " transform="matrix(0.1, 0, 0, -0.1, 0, 3600)"/>
<path fill="none" stroke-width="140.91" stroke-linecap="round" stroke-linejoin="round" stroke="rgb(100%, 100%, 100%)" stroke-opacity="1" stroke-miterlimit="10" d="M 8655.078125 21603.59375 C 8318.515625 21268.28125 8257.851562 20275.3125 8497.578125 19724.414062 " transform="matrix(0.1, 0, 0, -0.1, 0, 3600)"/>
</svg>
