<svg id="Layer_2" xmlns="http://www.w3.org/2000/svg" viewBox="0 0 1143.48 1104.27">
  <defs>
    <style>
      .cls-1 {
        fill: #576241;
      }

      .cls-1, .cls-2, .cls-3, .cls-4, .cls-5, .cls-6, .cls-7, .cls-8, .cls-9, .cls-10 {
        fill-rule: evenodd;
      }

      .cls-2 {
        fill: #5d6f38;
      }

      .cls-3 {
        fill: #576142;
      }

      .cls-4 {
        fill: #59673c;
      }

      .cls-11 {
        stroke-width: 4.42px;
      }

      .cls-11, .cls-12, .cls-13, .cls-14, .cls-15, .cls-16 {
        fill: none;
        stroke-linecap: round;
        stroke-linejoin: round;
      }

      .cls-11, .cls-13, .cls-15 {
        stroke: #3e5932;
      }

      .cls-12 {
        stroke-width: 9.01px;
      }

      .cls-12, .cls-14, .cls-16 {
        stroke: #75614f;
      }

      .cls-13 {
        stroke-width: 3.13px;
      }

      .cls-5 {
        fill: #536234;
      }

      .cls-6 {
        fill: #d9941f;
      }

      .cls-14 {
        stroke-width: 8.96px;
      }

      .cls-7 {
        fill: #5a6a3a;
      }

      .cls-8 {
        fill: #58653f;
      }

      .cls-9 {
        fill: #d6972c;
      }

      .cls-17 {
        fill: #907761;
      }

      .cls-15 {
        stroke-width: 3.98px;
      }

      .cls-10 {
        fill: #f2b03f;
      }

      .cls-16 {
        stroke-width: 9.05px;
      }
    </style>
  </defs>
  <g id="Layer_1-2" data-name="Layer_1">
    <path class="cls-17" d="M580.27,0c-38.88,2.35-82.87,8.97-130.08,23.54-22.48,6.84-46.27,15.91-69.6,26.59-9.26,4.24-34.15,16.88-46.65,23.67-6.48,3.51-11.82,6.46-18.29,9.98-3.52,1.9-3.62,1.59-5.42,2.4.17-.57.7-1.33,1.51-2.24-18.85,11.84-37.53,25.13-56.38,40.13-4.75,3.77-8.96,7.22-12.96,10.52-11.8,11.19-23.2,23.07-34.17,35.63-17.88,20.32-34.37,42.35-49.38,65.71-29.22,45.52-53.48,97.76-69.51,154.36-5.87,20.71-10.91,43.04-14.63,66.8-1.38,9.37-2.56,18.87-3.47,28.51-.19,2.02-.37,4.01-.54,5.97-1.44,16.95-2.26,34.18-2.14,51.72-.22,11.59.39,26.52.45,34.8.01,2.33,0,4.08-.03,5.84,1.4,24.4,4.57,49.13,7.05,66.5,1.94,13.62,3.31,23.21,3.77,28.78.1.35.19.71.28,1.07,3.6,13.23,7.79,26.8,12.52,40.59.08.22,3.16,10.45,2.91,11.53,1.65,4.99,3.31,9.82,4.95,14.43,1.18,3.32-.1.94-1.18-1.51-4.47-10.09-8.96-21.68-13.28-34.06-2.52-7.23-4.89-14.56-7.13-21.98,4.02,15.2,8.58,30.25,13.83,45.03.76,2.13,1.54,4.24,2.32,6.35,6.63,17.42,14.07,34.49,22.34,51.08,7.55,14.77,12.52,24.8,14.05,28.29,11.81,21.16,25.02,41.45,39.54,60.65,40.68,53.87,91.77,99.17,148.93,133.38,36.45,21.81,75.75,39.41,117.72,52.09,9.54,2.88,19.09,5.54,28.61,7.85,4.44,1.26,15.01,3.59,13.36,3.6-12.87.02-47.04-8.27-78.89-19.7-7.05-2.53-14.05-5.23-21.02-8.09,17.62,7.45,35.6,13.99,53.88,19.41,9.83,2.96,19.67,5.52,29.5,7.91.97.23,1.95.5,2.56.7,15.85,3.05,31.85,5.32,47.93,6.75,79.82,7.18,162.05-6.11,237.81-38.07.33-.16.64-.3.97-.46,8.95-4.17,14.74-7.17,24.61-11.19,22.51-11.31,70.94-40.97,94.2-57.14,11.2-7.78,15.33-10.06,15.72-9.39,3.37-2.1,2.81-.4,2.33.47-.45.81-1.2,1.84-1.94,2.85,1.2-1.01,2.41-2.01,3.61-3.03,2.09-1.78,4.07-3.49,6.26-5.34,13.74-11.64,20.45-17.61,23.24-19.43,7.84-8.17,16.87-17.55,23.06-23.44.38-.36.46-.39.78-.68,6.6-8.01,13.07-16.29,19.37-24.88,10.09-13.78,19.78-28.22,28.88-43.42,7.29-12.17,14.13-24.64,20.5-37.39,4.67-9.32,9.11-18.87,13.34-28.6,3.01-6.94,5.16-12.71,8.85-21.47,11.16-26.53,13.89-35.73,12.65-28.48-.58,3.42-1.95,8.28-3.32,12.97,3.33-9.33,6.56-18.83,9.5-28.65,8.38-26.86,14.03-53.94,16.83-57.28,2.88-3.43-3.5,32.87-5.78,44.14-5.81,27.93-13.91,55.19-23.8,81.63,5.12-11.05,9.92-22.26,14.33-33.64,4.07-11.67,7.82-23.54,11.19-35.58,2.26-8.07,6.4-24.56,9.04-35.95,1.09-4.68,2.19-9.25,3.25-14.18,1.55-5.62,3.52-14.49,4.38-16.96.72-2.08.48,1.57.02,6.08,2.92-15.06,5.26-30.24,6.9-45.5,10.88-100.53-6.53-204.32-48.04-295.85-1.46-3.2-2.93-6.39-4.45-9.56-.73-1.53-1.48-3.04-2.22-4.57-10.29-20.93-21.81-41.21-34.59-60.61-4.73-7.16-12.53-17.75-14.64-21.26-1.25-2.11-1.79-3.23-1.71-3.51-1.78-2.82-2.9-4.81-2.21-4.63.86.24,9.08,11.59,13.87,18.27,53.33,74.54,87.72,165.69,99.04,261.07,4.69,40.2,5.16,80.99,1.1,121.41-4.06,40.58-12.69,80.69-25.42,119.43-.8,3.08-1.6,6.18-2.49,9.32-6.59,23.3-15.16,47.22-25.78,71.4-.62,1.43-1.31,2.83-1.94,4.25.31-.61.64-1.2.96-1.81,2.66-5.14,7.36-14.91,7.87-15.34.61-.51.91-.5.97-.09,1.14-2.02,2.2-3.81,3.23-5.56,16.8-36.19,30.51-75.2,40.31-117.19,2.52-10.8,4.87-21.59,6.8-32.32,1.29-5.14,3.65-18.68,3.65-15.49,0,6.07-2.34,26.09-6.97,48.8-4.87,23.91-10.59,43.28-14.24,54.93-10.13,32.32-23.24,64.1-39.22,94.77-25.92,49.73-59.46,96.48-99.94,137.31-9.97,10.97-20.47,21.64-31.58,31.89-4.53,4.17-9.26,8.34-14.13,12.49,153.09-103.61,244.68-273.74,244.94-455.03-.18-140.05-54.88-274.99-153.04-377.56,1.08,1.38,2.15,2.7,3.24,4.14,8.02,10.54,11.9,16.82,7.32,12.01-2.84-2.98-8.84-9.92-16.45-18.42.42.68.83,1.37,1.35,2.12-.05-.05-.1-.09-.15-.14,0,.01.04.05.05.06.7,1.14-2.07-1.97-5.2-5.49-5.29-5.59-10.83-11.26-16.63-17-15-14.82-30.61-28.62-46.82-41.52-1.63-1.21-3.26-2.42-4.9-3.62,12.41,10.29,24.33,21,35.41,32.34,1.78,1.81,3.37,3.54,4.96,5.27,5.05,4.83,9.6,9.31,12.63,12.67,2.29,2.53,3.97,4.64,5.82,6.86-3.02-2.99-5.42-5.18-8.08-7.62,2.52,3.04,5.03,6.08,7.4,8.99-.8-.77-.99-.78-2.41-2.29-8.85-9.5-22.28-23.53-40.52-39.69-17.63-15.62-32.41-26.65-38.2-30.91-5.41-4-10.92-7.86-16.47-11.65C784.88,30.55,683.76,1.64,580.27,0ZM513.45,3.08c-.27.03-.54.07-.81.1-39.43,6.32-78.23,17.15-115.35,32.37-.98.46-2.08.93-3.03,1.38-8.4,4.11-16.81,8.49-24.61,12.8,49.04-23.34,95.01-36.42,133.8-44.58,3.4-.72,6.67-1.38,10-2.06h0ZM391.79,42.38c-7.84,3.3-15.77,6.85-23.8,10.67-7.74,3.67-15.4,7.58-23.01,11.64-2.37,1.65-4.37,3.17-6.05,4.57,1.82-1.06,3.93-2.23,5.92-3.35,6.23-3.5,12.41-6.76,18.55-9.92,9.11-4.67,18.72-9.28,28.39-13.61ZM333.51,67c-20.58,11.97-40.35,25.41-59.11,40.22,15.43-11.46,31.06-21.93,46.71-31.39,3.51-2.68,7.75-5.68,12.4-8.83ZM266.02,85.88c-13.49,8.41-26.6,17.38-39.3,26.86-29.44,25.81-55.11,54.07-77.23,83.5,1.63-1.79.6.22,1.22-.17-.3.57-.62,1.18-.89,1.72,8.47-11.28,17.35-22.22,26.6-32.8,13.03-14.43,26.16-27.93,37.81-37.95,5.37-4.62,4.11-2.81.52,1.24,9.85-9.26,18.79-16.97,26.34-23.18,8.69-7.15,17.06-13.52,24.93-19.22ZM193.41,139.52c-2.35,1.97-4.68,3.96-7,5.97-19.34,21.27-37.28,44.17-53.54,68.55,10.77-15.83,21.16-29.41,30.48-40.78,8.79-10.73,18.82-22.1,30.06-33.74ZM151.81,182.56c-.53.68-1.07,1.36-1.59,2.05-.31.4-.61.82-.92,1.22.83-1.1,1.68-2.18,2.51-3.27ZM149.3,185.84c-.67.9-1.35,1.8-2.02,2.7-.98,1.32-1.97,2.63-2.95,3.96-60.46,82.86-100.27,183.11-111.13,288.35-2.43,23.65-3.37,47.4-2.89,71.06,2.48,125.05,44.73,248.92,119.45,346.22,9.6,12.5,19.75,24.51,30.36,36.06.17.18.44.45.62.64-10.73-11.84-21.02-24.11-30.71-36.92-82.43-109.09-124.12-250.91-115.12-389.91.31-4.64.99-14.39,2.36-26.64,4.24-37.67,13.52-85.9,33.69-139.48,6.42-17.04,13.16-32.38,19.75-46.2,4.22-9.5,8.71-18.95,13.51-28.32,2.52-4.92,5.1-9.79,7.74-14.63-2.91,4.99-5.76,9.98-8.49,14.99-3.63,6.64-15.33,28.25-27.46,57.43-12.85,30.94-19.32,53.24-23.63,66.64-3.63,11.29-4.03,11.08-1.74,1.04,2.22-9.71,5-19.24,6.67-24.99,19.61-64.95,50.79-127.06,91.99-182ZM115.86,221C40.94,317.17.26,434.48,0,555.09c.2,168.38,79.18,327.84,214.47,433.05-23.55-20.53-45.52-43.15-65.56-67.68-3.51-4.31-6.98-8.67-10.37-13.09-41.14-53.7-72.9-115.57-93.52-181.89-6.79-21.83-12.32-44.15-16.64-66.77-2.52-13.79-4.66-27.53-6.11-41.12-3.37-31.49-.98-26.57.27-18.87,1.17,7.26,3,22.2,5.07,34.38.97,5.66,2.04,11.38,3.17,17.12-8.99-49.72-13.08-107.74-6.39-170.46,4.62-42.84,13.58-81.37,24.02-114.57,16.01-50.74,38.72-99.44,67.45-144.19ZM106.52,323.96c-.44,1.02-.9,2-1.33,3.02-21.2,49.72-35.52,103.01-41.68,157.65-.2,1.75-.36,3.5-.54,5.25-.42,16.71-.04,32.81,1.08,48.05.5,6.89,1.16,11.62,1.9,19.08-.21-10.04-.14-20.03.12-29.96.02-.52.04-1.07.05-1.6.03-2.47.06-4.95.12-7.41.19-8.35.63-19.61,1.74-32.85,4.55-55.3,16.99-100.45,26.95-130.01,3.53-10.5,7.42-20.9,11.59-31.22ZM60.68,556.86c1.02,22.78,3.45,45.51,7.22,68.04.2,1.21.39,2.42.6,3.64.55,3.18,1.18,6.49,1.84,9.83.32,1.64.64,3.3.97,4.95.07.3.14.61.2.91.43-2.36-.11-10-1.39-23.59-.79-8.27-1.64-17.32-2.37-26.83-.84-.77-2.04-6.26-3.38-12.82-1.4-6.84-2.61-15.23-3.69-24.13ZM50.96,643.98c2.79,16.41,6.29,32.68,10.44,48.77,3.42,12.72,7.23,25.32,11.47,37.74,10.53,30.82,23.61,60.65,39.05,89.04,2.24,3.61,4.52,7.21,6.86,10.82-32.84-56.99-55.9-120.48-67.82-186.37ZM1066.14,682.35s-.05.03-.13.35c-.32,1.41-.66,2.74-.99,4.13.39-1.43.72-2.63,1.04-3.92.07-.29.09-.5.08-.56ZM1062.67,696.63c-.11.43-.21.9-.32,1.33-.3,1.26-.66,2.49-.97,3.74.13-.26.28-.64.4-.87.09-.17.13-.2.19-.29.18-1.09.47-2.59.7-3.91ZM85.76,726.28c.65,2.49,1.35,5.23,1.85,7.24.34.99.71,1.96,1.06,2.95,6.3,17.45,13.39,34.59,21.33,51.29,13.32,28.01,27.34,51.42,40.27,70.57-24.03-35.85-43.79-74.95-58.88-116.02-1.95-5.31-3.82-10.66-5.63-16.03ZM1046.14,752.82c-.83,2.35-1.7,4.68-2.55,7.02-.2.53-.39,1.06-.58,1.59-.99,2.67-1.94,5.36-2.97,8.02-5.78,15.3-12.22,30.34-19.25,45.01-8.44,19.37-18.32,38.87-29.75,58.21,24.84-40.1,43.03-81,55.1-119.85ZM1004.2,837.25c-2.84,5.24-5.75,10.44-8.75,15.57,2.4-4.04,4.77-8.14,7.1-12.28.56-1.09,1.1-2.2,1.65-3.29ZM1022.11,841.97c-31.42,54.2-71.58,103-118.91,143.08-30.39,25.73-63.64,47.79-98.84,65.85,10.83-5.32,21.42-10.96,31.71-16.92,23.95-13.87,46.87-29.62,68.43-47.2,10.55-8.6,20.75-17.67,30.63-27.11,1.04-1.02,2.09-2.03,3.13-3.05-2.48,1.57,11.03-11.51,25.02-26.44,11.66-13.18,22.75-26.92,33.21-41.2,2.38-3.25,5.02-7.07,7.54-10.73,5.74-9.37,11.25-18.96,16.51-28.75-3.55,5.34-7.2,10.77-9.03,12.86h0c-.04.05-.12.16-.16.2-.99,1.1,1.7-3.45,3.75-7.07,2.23-4.23,4.44-8.55,7.02-13.52ZM151.42,860.02c1.36,1.99,2.72,4,4.05,5.89-1.36-1.95-2.71-3.91-4.05-5.89ZM939.88,937.59c-.93,1.06-1.86,2.11-2.79,3.17.52-.54,1.03-1.09,1.55-1.63.41-.52.83-1.02,1.24-1.54ZM903.72,959.53c-1.39,1.26-2.74,2.5-4.12,3.74-2.52,2.35-5.05,4.66-7.58,6.93-4.43,3.98-8.96,7.9-13.55,11.76-1.78,1.94-3.47,3.86-5.26,5.78-1.66,1.66-3.41,3.35-5.16,5.04,8.27-6.8,16.54-13.99,24.73-21.58.54-.49,1.07-1.01,1.61-1.51.79-.92,1.5-1.71,2.54-3.01.77-.95.65-1.17,1.82-2.46.64-.71,3.11-2.99,4.97-4.69ZM865.12,984.05c-3.96,2.6-17.97,12.97-25.81,18.3,4.86-3.33,10.03-6.85,13.42-9.28,4.09-2.93,8.22-5.93,12.39-9.02ZM846.26,1000.61c-2.24,1.65-4.48,3.29-6.73,4.9-22.03,15.65-45.62,29.68-70.5,41.83-7.97,3.87-23.75,11.53-43.91,18.79-3.11,1.44-6.22,2.88-9.32,4.27,3.47-1.05,6.88-2.16,10.29-3.27,8.26-3.04,16.52-6.31,24.95-9.94,18.65-7.99,37.45-17.48,56.11-28.4,13.08-8.45,25.66-17.45,37.65-26.96.5-.41.97-.81,1.46-1.22ZM838.78,1002.71c-12.32,8.34-24.79,16.1-37.35,23.14-9.03,5.09-18.26,9.85-27.62,14.4-1.89,1.19-4.91,3.11-5.33,3.37-1.93,1.14-3.87,2.23-5.8,3.33,17.96-8.5,35.88-18.2,53.52-29.18,4.47-2.77,13.63-8.93,22.58-15.06ZM875.87,1024.39c-1.99,1.42-4.02,2.79-6.04,4.19.88-.49,1.76-.98,2.64-1.47,1.13-.9,2.27-1.81,3.4-2.72ZM744.86,1063.01c-6.33,2.39-12.99,4.69-19.86,6.9-10.05,3.53-20.46,6.72-30.89,9.29-2.28.68-4.26,1.23-6.28,1.81,14.74-3.48,29.37-7.5,43.8-12.2.39-.12.7-.21,1.1-.33,4.08-1.77,8.12-3.6,12.13-5.47ZM692.78,1071.39c-48.67,14.09-99.78,21.08-151.29,19.64,24.2,1.44,49.18,1.13,74.74-1.24,20.87-1.94,41.65-5.2,62.2-9.71,1.79-.78,3.4-1.52,5.48-2.39-2.95.5-5.65.87-7.85.99-2.46.14,1.57-1.13,2.35-1.7,4.34-1.72,9.17-3.57,14.37-5.59ZM436.95,1085.88c23.03,6.59,48.01,12,74.68,15.36,5.33.67,10.65,1.23,15.96,1.72,31.86,2.32,63.97,1.53,95.81-2.23-33.05,3.63-70.74,4.55-111.69-.18-6.3-.73-12.76-1.6-19.38-2.64-18.64-2.93-37.13-6.99-55.38-12.03"/>
    <path class="cls-1" d="M330.9,618.41c45.85-76.12,139.01-102.4,189.47-38.96-21.83-68.55-173.44-107.17-189.47,38.96"/>
    <path class="cls-2" d="M340.88,636.71c-63.95-61.65-160.74-62.91-193.09,11.44,3.38-71.87,139.84-148.44,193.09-11.44"/>
    <path class="cls-7" d="M330.87,618.04c45.72-98.96,142.48-130.82,197.22-45.68-24.92-91.01-184.83-146.45-197.22,45.68"/>
    <path class="cls-7" d="M322.74,624.98c58.94-50.18,141.06-44.56,162.76,23.58,2.66-63.93-107.09-141.28-162.76-23.58"/>
    <path class="cls-3" d="M331.43,623.68c-54.72-24.13-119.36-8.02-126.2,40.12-11.94-41.68,63.72-109.2,126.2-40.12"/>
    <path class="cls-8" d="M330.87,618.5c14.87-136.15,103.81-197.34,187.5-100.13-55.01-111.03-236.95-148.05-187.5,100.13"/>
    <path class="cls-7" d="M330.9,617.94c-28.8-177.15,42.62-274.19,159.91-167.66-92.34-130.26-290.93-139.06-159.91,167.66"/>
    <path class="cls-4" d="M330.38,613.66c-70.44-172.74-172.93-230-203.85-83.28.37-157.52,141.38-250.58,203.85,83.28"/>
    <path class="cls-5" d="M330.9,618.41c-46.93-75.79-140.47-101.41-190.03-37.61,20.86-68.7,171.91-108.4,190.03,37.61"/>
    <path class="cls-15" d="M309.78,488.74c-11.6-114.12,69.1-118.4,108.72-93.76"/>
    <path class="cls-15" d="M269.81,464.07c-19.94-38.64-53.65-58.03-80.61-50.97-16.55,4.34-31.83,27.15-40.29,42.59"/>
    <path class="cls-15" d="M340.34,530.85c4.06-58.98,44.48-97.1,108.94-70.51"/>
    <path class="cls-15" d="M200.71,537.56c20.41-15.29,78.89-1.42,103.66,30.7"/>
    <path class="cls-15" d="M215.09,583.31c13.59-11.9,58.55-15.99,71.17,2.12"/>
    <path class="cls-15" d="M232.38,617.37c19.73-17.41,53.61-15.52,58.69-11.4"/>
    <path class="cls-15" d="M351.41,595.66c13.3-16.49,51.87-20.64,67.54-14.28"/>
    <path class="cls-15" d="M362.99,552.77c8.71-30.51,49.34-50.41,75.51-46.26"/>
    <path class="cls-15" d="M399.34,546.05c17.77-11.31,45.36-16.95,69.17-8.49"/>
    <path class="cls-9" d="M328.35,610.67c71.27-7.78,137.5,62.34,147.81,156.48,10.32,94.14-39.17,176.88-110.44,184.66-71.26,7.78-137.5-62.33-147.81-156.47-10.31-94.14,39.17-176.89,110.44-184.67"/>
    <path class="cls-16" d="M247.68,682.22c.03,15.79,33.72,14.92,37.66-5.07"/>
    <path class="cls-16" d="M348.38,661.7c3.39,13.04,40.85,13.7,39.69-9.35"/>
    <path class="cls-16" d="M239.43,735.63c-1.44,14.46,32.69,25.39,39.93,3.69"/>
    <path class="cls-16" d="M332.49,712.85c3.2,21.69,40.96,16.43,43.29-2.92"/>
    <path class="cls-16" d="M413.05,711.5c2.23,14.73,29.71,4.79,27.75-8.31"/>
    <path class="cls-16" d="M233.72,806.93c-.26-.64.08.55.47,1.14,9.65,14.2,26.24,15.27,38.25,3.78"/>
    <path class="cls-16" d="M319.35,768.48c.55,17.59,41,19.36,42.42-6.78"/>
    <path class="cls-16" d="M410.2,791.91c10.02,10.21,39.27-.66,36.31-21.1"/>
    <path class="cls-16" d="M260.49,854.79c1.78,18.6,51.73,19.12,50.98-13.8"/>
    <path class="cls-16" d="M343.08,831.41c5.26,12.27,38.98,13.4,46.28-9.28"/>
    <path class="cls-16" d="M426.47,832.76c5.65,16.26,37.9,6.12,33.74-11.09"/>
    <path class="cls-16" d="M302.15,900.18c-1.44,9.62,45.71,10.81,47.78-13.59"/>
    <path class="cls-16" d="M397.05,873.06c2.12,8,27.79,13.26,29.98-4.45"/>
    <path class="cls-16" d="M354.78,924.79c7.03,11.99,42.19,12.51,47.79-15.1"/>
    <path class="cls-1" d="M840.74,644.36c67.82-49.69,158.73-38.6,179.61,35.2,5.97-67.8-112.24-156.88-179.61-35.2"/>
    <path class="cls-2" d="M842.77,663.98c-33.3-77.16-117.32-113.62-172.7-60.54,29.19-61.49,176.26-78.48,172.7,60.54"/>
    <path class="cls-7" d="M840.85,644.03c76.05-69.67,172.14-62.14,188.82,32.16,11.49-88.53-107.82-195.33-188.82-32.16"/>
    <path class="cls-7" d="M831.22,647.12c69.77-22.27,139.4,12.63,133.44,80.02,25.68-54.82-41.87-162.42-133.44-80.02"/>
    <path class="cls-3" d="M839.28,649.16c-38.95-41.05-101.25-50.6-124.8-11.08,4.8-40.74,95.5-72.03,124.8,11.08"/>
    <path class="cls-8" d="M840.68,644.43c62.71-113.39,162.68-134.32,200.22-18.9-7.45-117.01-152.73-215.77-200.22,18.9"/>
    <path class="cls-7" d="M840.91,643.95c39.58-165.13,137.35-223.74,200.81-87.92-33.02-147.42-203.13-227.63-200.81,87.92"/>
    <path class="cls-4" d="M842.02,640.03c1.61-176.5-66.92-263.9-147.5-147.14,57.86-137.34,214.92-167.07,147.5,147.14"/>
    <path class="cls-5" d="M840.74,644.36c-13.28-83.28-85.56-139.81-152.11-102.22,43.29-52.35,189.63-31.83,152.11,102.22"/>
    <path class="cls-13" d="M869.67,523.48c31.56-103.84,103.55-78.1,129.13-42.13"/>
    <path class="cls-13" d="M835.22,474.9c-4.33-18.26-9.85-50.01-27-61.05-16.92-10.89-54.29,6.31-72.09,23.29"/>
    <path class="cls-13" d="M880.97,571.39c25.08-49.99,74.28-68.5,120.83-21.75"/>
    <path class="cls-13" d="M756.64,526.25c23.4-5.89,69.38,27.58,79.27,64.66"/>
    <path class="cls-13" d="M752.49,571.44c16.21-5.43,56.94,7.42,61.34,27.84"/>
    <path class="cls-13" d="M755.14,607.47c23.58-7.99,52.45,6.04,55.38,11.49"/>
    <path class="cls-13" d="M866.95,632c17.64-9.54,52.81.93,64.16,12.2"/>
    <path class="cls-13" d="M892.73,598.8c18.74-23.45,61.47-25.98,82.8-12.8"/>
    <path class="cls-13" d="M926.9,606.21c19.65-3.39,45.79,1.77,63.48,17.85"/>
    <path class="cls-6" d="M841.35,636.68c65.04,19.24,97.24,104.62,71.85,190.55-25.38,85.94-98.79,140.08-163.83,120.84-65.04-19.24-97.24-104.63-71.86-190.56,25.38-85.93,98.79-140.07,163.84-120.83"/>
    <path class="cls-12" d="M744.81,669.67c-5.74,13.78,23.98,25.33,34.72,9.32"/>
    <path class="cls-12" d="M840.19,688.53c-1.81,12.62,30.65,26.88,38.05,6.34"/>
    <path class="cls-12" d="M718.1,713.26c-6.54,12.1,19.26,34.1,33.5,17.81"/>
    <path class="cls-12" d="M807.64,727.37c-5.13,20.1,29.75,29.3,38.85,13.26"/>
    <path class="cls-12" d="M878.44,755.62c-3.43,13.67,24.18,15.03,27.25,2.88"/>
    <path class="cls-12" d="M687.07,773.41c0-.65-.13.51,0,1.17,3.23,15.91,17.32,22.91,32,17.26"/>
    <path class="cls-12" d="M775.85,771.12c-5.94,15.56,28.72,31.87,39.5,9.58"/>
    <path class="cls-12" d="M846.59,824.75c5.01,12.58,34.52,13.77,39.4-5.15"/>
    <path class="cls-12" d="M692.96,824.95c-5.25,16.89,38.16,35.59,49.53,6.58"/>
    <path class="cls-12" d="M773.58,834.72c.1,12.62,29.13,25.93,43.78,8.8"/>
    <path class="cls-12" d="M845.87,866.35c-1.01,16.26,30.84,19.19,33.5,2.64"/>
    <path class="cls-12" d="M712.74,879.79c-4.77,7.87,35.95,26.13,46.66,5.59"/>
    <path class="cls-12" d="M805.47,890.78c-1.07,7.75,19.41,21.72,27.79,7.07"/>
    <path class="cls-12" d="M749.69,920.49c1.75,13.04,32.25,26.33,47.22,4.27"/>
    <path class="cls-1" d="M602.75,516.78c76.35-97.73,209.85-118.45,269.07-22.05-18.7-98.65-222.23-177.7-269.07,22.05"/>
    <path class="cls-2" d="M613.51,543.82c-78.23-96.19-212.11-114.25-269.45-16.69,16.79-99,218.75-182.09,269.45,16.69"/>
    <path class="cls-7" d="M602.77,516.27c80.02-129.4,219.44-157.23,280.94-30.06-19.19-130.29-231.39-234.05-280.94,30.06"/>
    <path class="cls-7" d="M590.34,524.51c90.12-59.59,202.94-37.97,221.52,60.09,14.46-88.11-124.56-213.77-221.52-60.09"/>
    <path class="cls-3" d="M602.6,524.18c-71.75-42.65-164.01-31.23-181.6,34.32-9.52-59.76,106.68-140.56,181.6-34.32"/>
    <path class="cls-8" d="M602.69,516.91c43.55-186.13,177.08-255.93,276.65-107.13-57.5-163.11-303.34-245.05-276.65,107.13"/>
    <path class="cls-7" d="M602.83,516.13c-10.04-250.29,105.25-372.69,249.8-205.33-105.98-196.04-379.63-241.69-249.8,205.33"/>
    <path class="cls-4" d="M602.83,510.12c-68.48-251.19-200.83-347.79-268.38-149.73,27.05-218.17,238.08-323.34,268.38,149.73"/>
    <path class="cls-5" d="M602.75,516.78c-52.25-112.9-177.52-164.16-256.93-84.12,40.48-91.66,256.43-121.21,256.93,84.12"/>
    <path class="cls-11" d="M595.35,333.58c3.15-160.07,115.67-152.39,166.41-111.59"/>
    <path class="cls-11" d="M526.96,278.42c-13.47-24.18-34.04-67.02-62.8-75.82-28.4-8.68-74.55,30.72-93.01,61.96"/>
    <path class="cls-11" d="M630.59,397.07c15.57-81.03,77.98-127.04,162.81-79.34"/>
    <path class="cls-11" d="M436.01,382.84c30.85-17.75,109.54,11.33,138.44,59.99"/>
    <path class="cls-11" d="M448.23,448.65c20.83-14.21,83.81-12.3,98.24,14.92"/>
    <path class="cls-11" d="M466.44,498.74c30.27-20.8,76.88-12.46,83.23-5.9"/>
    <path class="cls-11" d="M635,488.72c21.21-20.61,75.34-19.86,95.97-8.4"/>
    <path class="cls-11" d="M658.28,431.25c17.2-40.8,76.84-61.52,112.41-51.36"/>
    <path class="cls-11" d="M709.76,428.06c26.53-12.68,65.71-15.84,97.27-.11"/>
    <path class="cls-10" d="M600.53,505.63c100.04,1.23,179.99,109.53,178.42,241.69-1.58,132.16-84.08,238.46-184.12,237.23-100.05-1.23-180-109.53-178.42-241.69,1.57-132.16,84.07-238.46,184.12-237.23"/>
    <path class="cls-14" d="M476.71,591.17c-2.62,21.87,44.2,26.34,53.03-.69"/>
    <path class="cls-14" d="M619.68,579.7c2.49,18.64,54.29,25.86,56.56-6.26"/>
    <path class="cls-14" d="M456.28,663.77c-4.43,19.8,41.02,40.68,54.7,11.85"/>
    <path class="cls-14" d="M589.05,647.88c.77,30.6,53.98,29.68,60.47,3.25"/>
    <path class="cls-14" d="M700.88,659.59c.61,20.79,40.36,11.65,39.84-6.83"/>
    <path class="cls-14" d="M436.36,761.59c-.26-.93,0,.78.46,1.66,10.97,21.29,33.78,25.58,52.35,11.68"/>
    <path class="cls-14" d="M561.46,722.74c-2.19,24.47,53.55,33.73,59.92-2.25"/>
    <path class="cls-14" d="M683.39,770.51c12.15,15.84,54.52,5.71,53.86-23.11"/>
    <path class="cls-14" d="M465.38,832.4c-.67,26.08,68.44,35.22,72.96-10.52"/>
    <path class="cls-14" d="M583.74,813.93c5.21,17.88,51.75,25.13,65.68-5.06"/>
    <path class="cls-14" d="M699.05,829.85c5.08,23.48,51.47,14.87,48.61-9.68"/>
    <path class="cls-14" d="M515.45,902.31c-3.61,13.09,61.51,22.68,68.48-10.78"/>
    <path class="cls-14" d="M651.5,880.72c1.58,11.44,36.26,23.06,42.28-1.1"/>
    <path class="cls-14" d="M584.22,945.28c7.71,17.8,56.35,24.43,68.75-12.87"/>
  </g>
</svg>