<svg id="Layer_2" xmlns="http://www.w3.org/2000/svg" viewBox="0 0 1143.48 1104.27">
  <defs>
    <style>
      .cls-1 {
        stroke: #fefdf9;
        stroke-width: 3.64px;
      }

      .cls-1, .cls-2, .cls-3, .cls-4, .cls-5, .cls-6 {
        fill: none;
        stroke-linecap: round;
        stroke-linejoin: round;
      }

      .cls-7 {
        fill: #cec5be;
      }

      .cls-7, .cls-8, .cls-9, .cls-10, .cls-11, .cls-12 {
        fill-rule: evenodd;
      }

      .cls-13, .cls-12 {
        fill: #fefdf9;
      }

      .cls-14, .cls-8 {
        fill: #fff;
      }

      .cls-15, .cls-9 {
        fill: #ebdecb;
      }

      .cls-2 {
        stroke-width: 3.19px;
      }

      .cls-2, .cls-4, .cls-5, .cls-6 {
        stroke: #fff;
      }

      .cls-16 {
        fill: #f2b03f;
      }

      .cls-3 {
        stroke: #ebdecb;
        stroke-width: 7.4px;
      }

      .cls-17 {
        fill: #80ced1;
      }

      .cls-10 {
        fill: #988477;
      }

      .cls-11, .cls-18 {
        fill: #907761;
      }

      .cls-4 {
        stroke-width: 3.61px;
      }

      .cls-5 {
        stroke-width: 2.89px;
      }

      .cls-6 {
        stroke-width: 2.91px;
      }

      .cls-19 {
        fill: #636f4c;
      }
    </style>
  </defs>
  <g id="Layer_1-2" data-name="Layer_1">
    <path class="cls-16" d="M580.27,0c-38.88,2.35-82.87,8.97-130.08,23.53-22.48,6.85-46.28,15.91-69.6,26.6-9.25,4.24-34.14,16.87-46.65,23.67-6.48,3.51-11.81,6.46-18.29,9.97-3.51,1.91-3.61,1.6-5.42,2.41.17-.57.7-1.34,1.51-2.25-18.84,11.85-37.53,25.14-56.38,40.13-4.76,3.78-8.96,7.23-12.96,10.52-11.79,11.2-23.2,23.08-34.16,35.63-17.89,20.33-34.38,42.36-49.38,65.72-29.23,45.52-53.49,97.76-69.52,154.36-5.87,20.71-10.91,43.04-14.62,66.8-1.38,9.37-2.56,18.86-3.47,28.5-.2,2.03-.38,4.02-.54,5.97-1.45,16.95-2.26,34.18-2.14,51.72-.22,11.59.39,26.52.45,34.81.02,2.32,0,4.07-.03,5.84,1.4,24.4,4.57,49.13,7.05,66.5,1.95,13.62,3.31,23.2,3.77,28.77.09.36.19.72.29,1.08,3.59,13.22,7.78,26.8,12.52,40.59.07.21,3.16,10.44,2.91,11.53,1.65,4.98,3.31,9.82,4.95,14.43,1.18,3.32-.1.93-1.18-1.51-4.47-10.09-8.96-21.68-13.28-34.07-2.52-7.22-4.89-14.56-7.13-21.98,4.02,15.2,8.59,30.25,13.84,45.04.75,2.12,1.54,4.23,2.32,6.35,6.63,17.42,14.07,34.48,22.34,51.08,7.55,14.77,12.52,24.79,14.05,28.29,11.82,21.15,25.02,41.44,39.54,60.65,40.68,53.87,91.77,99.17,148.93,133.38,36.45,21.81,75.75,39.4,117.71,52.09,9.55,2.88,19.09,5.54,28.61,7.85,4.43,1.26,15.01,3.59,13.36,3.59-12.87.03-47.04-8.26-78.89-19.7-7.05-2.53-14.05-5.23-21.02-8.09,17.62,7.46,35.59,13.99,53.88,19.41,9.83,2.97,19.67,5.52,29.5,7.91.97.24,1.95.51,2.56.71,15.86,3.04,31.85,5.32,47.93,6.75,79.82,7.17,162.05-6.11,237.81-38.07.33-.16.64-.3.97-.46,8.95-4.17,14.74-7.18,24.61-11.19,22.52-11.31,70.94-40.98,94.2-57.14,11.19-7.78,15.33-10.07,15.72-9.39,3.37-2.1,2.81-.4,2.33.47-.45.81-1.2,1.83-1.94,2.85,1.2-1.01,2.41-2.02,3.61-3.04,2.09-1.78,4.07-3.48,6.26-5.33,13.74-11.65,20.45-17.61,23.24-19.44,7.84-8.16,16.87-17.55,23.06-23.43.38-.36.47-.39.78-.68,6.6-8.02,13.07-16.29,19.37-24.89,10.09-13.78,19.78-28.22,28.88-43.41,7.29-12.17,14.13-24.64,20.5-37.39,4.67-9.33,9.11-18.88,13.34-28.61,3.01-6.93,5.16-12.7,8.85-21.46,11.16-26.53,13.89-35.73,12.65-28.48-.58,3.42-1.95,8.28-3.32,12.97,3.33-9.33,6.56-18.83,9.5-28.65,8.38-26.87,14.03-53.94,16.83-57.28,2.88-3.44-3.5,32.87-5.78,44.14-5.81,27.93-13.91,55.19-23.81,81.62,5.13-11.05,9.93-22.26,14.34-33.63,4.08-11.68,7.82-23.54,11.2-35.58,2.25-8.07,6.39-24.56,9.04-35.95,1.08-4.69,2.18-9.25,3.25-14.18,1.54-5.62,3.52-14.49,4.37-16.96.72-2.08.48,1.57.02,6.07,2.92-15.05,5.26-30.23,6.9-45.5,10.88-100.53-6.53-204.32-48.04-295.85-1.46-3.19-2.93-6.38-4.45-9.55-.73-1.53-1.48-3.05-2.22-4.57-10.29-20.94-21.81-41.21-34.59-60.61-4.73-7.17-12.53-17.75-14.64-21.27-1.25-2.1-1.78-3.23-1.71-3.5-1.77-2.82-2.9-4.82-2.21-4.63.86.23,9.09,11.59,13.86,18.26,53.34,74.55,87.73,165.7,99.06,261.08,4.68,40.2,5.15,80.99,1.09,121.41-4.06,40.58-12.69,80.68-25.42,119.43-.8,3.08-1.6,6.18-2.49,9.32-6.59,23.3-15.16,47.22-25.78,71.4-.62,1.42-1.31,2.83-1.94,4.25.31-.61.64-1.2.96-1.81,2.66-5.14,7.36-14.92,7.87-15.34.61-.51.92-.51.97-.09,1.14-2.02,2.2-3.81,3.23-5.56,16.8-36.2,30.51-75.2,40.31-117.19,2.52-10.8,4.87-21.59,6.8-32.33,1.29-5.13,3.65-18.67,3.65-15.48,0,6.06-2.34,26.09-6.97,48.8-4.87,23.91-10.59,43.28-14.24,54.93-10.13,32.31-23.24,64.1-39.22,94.77-25.92,49.73-59.46,96.48-99.94,137.31-9.97,10.96-20.46,21.64-31.58,31.89-4.53,4.17-9.25,8.34-14.13,12.49,153.09-103.62,244.67-273.75,244.94-455.03-.18-140.06-54.88-275-153.04-377.56,1.08,1.38,2.15,2.7,3.24,4.14,8.02,10.53,11.9,16.81,7.32,12.01-2.84-2.98-8.84-9.93-16.45-18.43.42.69.83,1.38,1.35,2.13-.05-.05-.1-.1-.15-.15.02.02.04.06.05.07.71,1.14-2.07-1.98-5.19-5.5-5.3-5.59-10.84-11.26-16.64-16.99-15-14.82-30.61-28.63-46.82-41.52-1.63-1.22-3.26-2.42-4.9-3.62,12.41,10.29,24.33,21,35.41,32.33,1.78,1.82,3.37,3.55,4.97,5.28,5.04,4.82,9.59,9.31,12.62,12.66,2.29,2.54,3.97,4.65,5.82,6.87-3.02-2.99-5.42-5.18-8.08-7.62,2.52,3.04,5.03,6.07,7.4,8.98-.8-.76-1-.77-2.4-2.28-8.86-9.51-22.29-23.54-40.53-39.69-17.63-15.62-32.41-26.65-38.2-30.92-5.41-3.99-10.92-7.86-16.47-11.64C784.88,30.55,683.76,1.63,580.27,0ZM513.44,3.08c-.27.03-.54.06-.8.09-39.43,6.32-78.23,17.16-115.36,32.38-.98.46-2.07.92-3.03,1.37-8.4,4.12-16.8,8.5-24.61,12.8,49.04-23.33,95.01-36.41,133.79-44.57,3.41-.72,6.68-1.38,10-2.07ZM391.79,42.38c-7.84,3.3-15.78,6.84-23.8,10.67-7.75,3.66-15.4,7.58-23.02,11.64-2.37,1.65-4.37,3.16-6.05,4.57,1.82-1.06,3.93-2.24,5.93-3.36,6.22-3.49,12.4-6.76,18.55-9.91,9.11-4.68,18.72-9.29,28.39-13.61ZM333.51,67c-20.58,11.96-40.35,25.4-59.12,40.22,15.43-11.47,31.07-21.93,46.71-31.39,3.52-2.68,7.75-5.69,12.4-8.83ZM266.01,85.87c-13.48,8.42-26.59,17.38-39.3,26.87-29.44,25.8-55.11,54.07-77.23,83.5,1.64-1.79.61.22,1.23-.17-.3.57-.62,1.18-.89,1.72,8.47-11.28,17.35-22.23,26.61-32.8,13.03-14.43,26.16-27.93,37.81-37.96,5.37-4.62,4.11-2.81.52,1.25,9.85-9.27,18.79-16.97,26.34-23.19,8.69-7.14,17.05-13.51,24.92-19.22ZM193.41,139.52c-2.35,1.97-4.68,3.96-7,5.97-19.34,21.27-37.29,44.17-53.54,68.55,10.77-15.83,21.16-29.42,30.48-40.79,8.8-10.72,18.83-22.1,30.07-33.73ZM151.8,182.55c-.53.69-1.07,1.37-1.59,2.05l-.91,1.23c.82-1.1,1.67-2.18,2.5-3.28ZM149.3,185.84c-.68.89-1.35,1.79-2.02,2.69-.98,1.32-1.98,2.64-2.96,3.97-60.46,82.86-100.27,183.1-111.13,288.35-2.43,23.65-3.37,47.4-2.89,71.06,2.48,125.05,44.72,248.92,119.45,346.22,9.6,12.49,19.76,24.5,30.36,36.06.17.18.45.45.62.63-10.73-11.83-21.02-24.11-30.71-36.91-82.43-109.09-124.12-250.92-115.12-389.92.3-4.64.98-14.39,2.36-26.64,4.24-37.67,13.52-85.89,33.7-139.48,6.41-17.04,13.15-32.37,19.75-46.2,4.21-9.49,8.71-18.94,13.51-28.32,2.52-4.92,5.1-9.78,7.74-14.63-2.91,4.99-5.77,9.99-8.49,14.99-3.62,6.64-15.33,28.26-27.46,57.44-12.86,30.94-19.32,53.24-23.63,66.64-3.63,11.29-4.03,11.08-1.74,1.03,2.21-9.7,5-19.24,6.67-24.99,19.61-64.94,50.79-127.05,91.99-181.99ZM115.86,220.99C40.94,317.17.26,434.48,0,555.09c.2,168.37,79.18,327.84,214.47,433.05-23.55-20.53-45.52-43.15-65.56-67.69-3.52-4.3-6.98-8.67-10.37-13.09-41.14-53.7-72.9-115.56-93.52-181.88-6.79-21.84-12.32-44.16-16.63-66.78-2.53-13.78-4.66-27.52-6.12-41.12-3.36-31.49-.97-26.56.27-18.86,1.17,7.26,3,22.19,5.08,34.37.96,5.66,2.04,11.38,3.16,17.12-8.98-49.71-13.07-107.73-6.38-170.45,4.62-42.84,13.57-81.38,24.02-114.57,16-50.74,38.72-99.45,67.45-144.2ZM106.51,323.96c-.43,1.01-.89,2-1.32,3.01-21.2,49.72-35.52,103.02-41.68,157.66-.2,1.75-.36,3.5-.54,5.24-.42,16.72-.04,32.81,1.08,48.05.5,6.89,1.16,11.62,1.9,19.09-.21-10.04-.14-20.03.12-29.96.02-.53.04-1.08.05-1.6.03-2.48.06-4.95.11-7.41.2-8.36.64-19.61,1.74-32.86,4.55-55.29,17-100.45,26.95-130,3.54-10.5,7.42-20.91,11.59-31.22ZM60.68,556.86c1.02,22.77,3.45,45.5,7.21,68.04.21,1.21.39,2.42.61,3.63.55,3.19,1.19,6.5,1.84,9.83.32,1.65.64,3.3.98,4.95.06.3.13.62.2.92.43-2.36-.11-10.01-1.39-23.6-.79-8.26-1.63-17.32-2.36-26.83-.85-.77-2.05-6.26-3.39-12.82-1.39-6.83-2.61-15.23-3.69-24.12ZM50.96,643.98c2.79,16.4,6.29,32.67,10.44,48.76,3.42,12.73,7.23,25.33,11.47,37.74,10.53,30.83,23.61,60.66,39.05,89.04,2.23,3.61,4.52,7.22,6.86,10.82-32.84-56.99-55.9-120.48-67.82-186.36ZM1066.14,682.35c-.01-.05-.05.03-.13.35-.32,1.4-.66,2.73-.99,4.13.39-1.43.72-2.64,1.04-3.93.07-.29.09-.49.08-.55ZM1062.67,696.62c-.11.44-.21.91-.32,1.34-.3,1.25-.66,2.49-.97,3.74.13-.26.28-.64.4-.87.09-.18.13-.21.19-.29.17-1.1.47-2.59.7-3.92ZM85.76,726.27c.64,2.5,1.35,5.24,1.84,7.25.35.98.71,1.96,1.07,2.94,6.29,17.46,13.39,34.6,21.33,51.3,13.31,28,27.33,51.42,40.27,70.57-24.03-35.86-43.79-74.95-58.88-116.02-1.96-5.32-3.83-10.66-5.63-16.04ZM1046.14,752.82c-.83,2.35-1.7,4.68-2.55,7.01-.2.53-.39,1.06-.58,1.59-.99,2.68-1.94,5.36-2.97,8.02-5.78,15.31-12.22,30.35-19.25,45.02-8.43,19.36-18.32,38.87-29.75,58.21,24.84-40.11,43.02-81.01,55.1-119.85ZM1004.2,837.25c-2.84,5.23-5.75,10.43-8.75,15.57,2.41-4.04,4.77-8.15,7.1-12.29.56-1.08,1.1-2.19,1.65-3.28ZM1022.11,841.97c-31.42,54.19-71.58,103-118.91,143.07-30.39,25.74-63.64,47.79-98.83,65.85,10.83-5.32,21.41-10.96,31.71-16.92,23.95-13.87,46.87-29.62,68.43-47.2,10.55-8.6,20.75-17.66,30.63-27.11,1.04-1.01,2.09-2.02,3.13-3.04-2.48,1.56,11.03-11.51,25.02-26.44,11.66-13.18,22.75-26.93,33.21-41.2,2.38-3.25,5.02-7.08,7.54-10.73,5.74-9.38,11.25-18.96,16.51-28.75-3.55,5.34-7.2,10.77-9.03,12.85h-.01c-.04.05-.12.16-.16.21-.99,1.09,1.7-3.45,3.75-7.08,2.23-4.23,4.44-8.55,7.02-13.51ZM151.42,860.02c1.36,1.99,2.71,3.99,4.04,5.89-1.36-1.96-2.71-3.92-4.04-5.89ZM939.88,937.59c-.93,1.06-1.86,2.11-2.79,3.16.52-.54,1.03-1.08,1.55-1.62.41-.52.83-1.02,1.24-1.54ZM903.71,959.53c-1.39,1.26-2.74,2.5-4.12,3.73-2.52,2.36-5.05,4.66-7.58,6.93-4.43,3.99-8.96,7.91-13.56,11.77-1.77,1.94-3.46,3.85-5.25,5.77-1.66,1.67-3.41,3.36-5.16,5.04,8.27-6.79,16.54-13.98,24.73-21.57.54-.5,1.08-1.02,1.61-1.52.79-.91,1.5-1.71,2.55-3,.76-.95.64-1.17,1.81-2.47.64-.7,3.11-2.98,4.97-4.68ZM865.12,984.05c-3.97,2.6-17.98,12.97-25.82,18.29,4.86-3.32,10.03-6.85,13.42-9.27,4.09-2.93,8.23-5.93,12.4-9.02ZM846.26,1000.61c-2.24,1.65-4.48,3.29-6.73,4.89-22.03,15.65-45.62,29.68-70.5,41.84-7.97,3.87-23.75,11.52-43.9,18.78-3.11,1.45-6.22,2.88-9.33,4.28,3.47-1.06,6.89-2.16,10.3-3.27,8.26-3.05,16.52-6.31,24.95-9.94,18.65-7.99,37.45-17.49,56.11-28.41,13.09-8.45,25.66-17.44,37.66-26.96.49-.4.96-.81,1.45-1.21ZM838.78,1002.71c-12.32,8.33-24.8,16.1-37.35,23.14-9.03,5.09-18.26,9.85-27.62,14.4-1.89,1.18-4.91,3.11-5.32,3.36-1.94,1.14-3.88,2.24-5.81,3.34,17.96-8.51,35.88-18.21,53.53-29.18,4.46-2.77,13.62-8.94,22.58-15.06ZM875.87,1024.38c-1.99,1.43-4.02,2.8-6.04,4.2.88-.49,1.76-.98,2.64-1.47,1.13-.91,2.27-1.81,3.4-2.73ZM744.86,1063.01c-6.33,2.39-13,4.68-19.87,6.9-10.05,3.53-20.46,6.72-30.89,9.29-2.28.67-4.26,1.23-6.28,1.8,14.74-3.47,29.37-7.49,43.8-12.19.4-.13.71-.21,1.11-.34,4.08-1.77,8.12-3.59,12.14-5.46ZM692.78,1071.39c-48.67,14.09-99.78,21.08-151.29,19.64,24.2,1.44,49.18,1.12,74.74-1.25,20.88-1.93,41.66-5.2,62.21-9.7,1.79-.79,3.4-1.52,5.48-2.4-2.95.51-5.64.87-7.85,1-2.46.14,1.57-1.14,2.36-1.71,4.34-1.71,9.16-3.57,14.37-5.58ZM436.94,1085.87c23.04,6.59,48.02,12,74.68,15.37,5.33.67,10.65,1.22,15.96,1.72,31.87,2.32,63.97,1.53,95.81-2.24-33.05,3.63-70.74,4.56-111.69-.18-6.3-.73-12.76-1.6-19.38-2.63-18.64-2.94-37.13-6.99-55.39-12.04"/>
    <path class="cls-10" d="M670.02,921.71c16.08-.06,29.06,13.7,28.96,30.71-.1,17.02-13.23,30.89-29.31,30.95-16.08.07-29.06-13.69-28.96-30.71.1-17.01,13.23-30.88,29.31-30.95"/>
    <path class="cls-10" d="M514.53,922.35c16.08-.06,29.06,13.7,28.96,30.71-.1,17.02-13.23,30.89-29.31,30.95-16.08.07-29.06-13.69-28.96-30.71.1-17.01,13.23-30.88,29.31-30.95"/>
    <path class="cls-15" d="M546.8,149.28c-24.65.26-44.49,21.96-44.47,48.67l.15,202.37c.02,26.7,19.89,47.99,44.54,47.73l79.86-.84c24.65-.26,44.48-21.97,44.46-48.68l-.15-202.37c-.02-26.7-19.88-47.99-44.54-47.72l-79.86.84ZM560.6,181.55l52.31-.56c16.15-.17,29.16,13.78,29.17,31.27l.12,169.77c.02,17.49-12.98,31.71-29.12,31.88l-52.31.55c-16.15.17-29.16-13.77-29.17-31.26l-.12-169.78c-.01-17.49,12.98-31.7,29.13-31.87"/>
    <path class="cls-3" d="M546.8,149.28c-24.65.26-44.49,21.96-44.47,48.67l.15,202.37c.02,26.7,19.89,47.99,44.54,47.73l79.86-.84c24.65-.26,44.48-21.97,44.46-48.68l-.15-202.37c-.02-26.7-19.88-47.99-44.54-47.72l-79.86.84ZM560.6,181.55l52.31-.56c16.15-.17,29.16,13.78,29.17,31.27l.12,169.77c.02,17.49-12.98,31.71-29.13,31.88l-52.31.55c-16.15.17-29.16-13.77-29.17-31.26l-.13-169.78c-.01-17.49,12.98-31.7,29.13-31.87Z"/>
    <path class="cls-9" d="M686.3,144.77c0-.28-.22-.5-.5-.5l-198.14,2.09c-.28,0-.5.23-.5.51l.04,59.6c0,.27.22.49.5.49l198.14-2.09c.28,0,.5-.23.5-.51l-.05-59.59"/>
    <path class="cls-3" d="M686.3,144.77c0-.28-.22-.5-.5-.5l-198.14,2.09c-.28,0-.5.23-.5.51l.04,59.6c0,.27.22.49.5.49l198.14-2.09c.28,0,.5-.23.5-.51l-.05-59.59Z"/>
    <path class="cls-19" d="M502.79,365.6l175.86-.73c73.88-.3,136.09,63.93,132.54,143.89l-13.35,300.92c-3.55,79.96-60.3,144.68-134.18,144.98l-151.18.62c-73.88.31-129.52-63.97-132.54-143.89l-11.33-300.81c-3.01-79.91,60.3-144.68,134.18-144.98"/>
    <path class="cls-1" d="M393.36,520.01l9.72,293.38"/>
    <path class="cls-1" d="M498.05,936.43l176.39-.21"/>
    <path class="cls-14" d="M590.26,659.58s6.94-45.28,38.64-30.05c61.7,29.65-2.91,77.63-40.51,110.47-31.16-24.75-94.34-81.97-40.33-106.99,32.29-14.96,42.19,26.57,42.19,26.57"/>
    <path class="cls-18" d="M178.48,328.5c-5.05,2.54-7.27,8.28-4.96,12.87l8.9,17.72-18.54,9.31-3.49-6.94c-.68-1.37-2.38-1.89-3.8-1.18l-12.91,6.48c-1.42.71-2,2.38-1.32,3.75l3.52,7.01c-14.36,7.64-20.59,24.15-13.91,37.44l46.73,92.97c6.79,13.5,24.22,18.36,39.09,10.9l135.08-67.82c14.87-7.47,21.37-24.36,14.58-37.86l-46.74-92.99c-6.79-13.5-24.23-18.36-39.09-10.89l-35.03,17.59-8.91-17.72c-2.31-4.59-8.24-6.24-13.29-3.71l-45.93,23.07"/>
    <path class="cls-7" d="M228.46,367.44c28.98-14.55,63.2-5.1,76.37,21.1,13.17,26.19.34,59.28-28.64,73.83s-63.2,5.1-76.37-21.1c-13.17-26.19-.33-59.28,28.65-73.83"/>
    <path class="cls-8" d="M235.04,380.04c21.42-10.76,46.71-3.77,56.44,15.59,9.73,19.36.24,43.81-21.17,54.57-21.42,10.75-46.71,3.76-56.44-15.6-9.73-19.36-.25-43.81,21.17-54.56"/>
    <path class="cls-6" d="M345.64,443.02c22.5-5.64,14.82-28.33-5.41-62.76"/>
    <path class="cls-5" d="M160.38,456.75c-12.27-28.19-40-57.23-12.27-72.02"/>
    <path class="cls-2" d="M186.8,332.69c10.9-5.55,21.82-11.44,31.64-16.94"/>
    <path class="cls-13" d="M964.37,440.55l-15.99-4.53c-29.44,6.39-66.8,17.85-72.94,34l-50.65,169.72c-2.6,8.69,1.22,17.46,8.57,19.65l103.77,30.94c7.34,2.18,15.35-3.05,17.94-11.75l51.46-169.91c5.74-20.95-22.64-45.31-42.16-68.12"/>
    <path class="cls-11" d="M992.48,422.28c4.83-16.19-4.39-33.26-20.59-38.09-16.19-4.83-33.27,4.4-38.1,20.6v.05c-4.85,16.19,4.38,33.26,20.57,38.09,16.2,4.83,33.27-4.4,38.1-20.59l.02-.06"/>
    <path class="cls-4" d="M958.98,435.1c13.02,5.06,36.24-14.21,22.75-35.7"/>
    <path class="cls-16" d="M947.77,597.78c-4.72,2.52-10.32-9.19-15.5-8.13-5.18,1.06-6.52,14.2-11.75,13.72-5.23-.49-3.74-13.61-8.59-15.6-4.85-1.99-12.84,8.47-16.92,5.14-4.08-3.34,4.01-13.71,1.03-18.12s-15.08.05-16.72-5.07c-1.64-5.13,10.5-9.45,10.33-14.88-.17-5.43-12.53-8.39-11.21-13.68,1.32-5.29,13.65-2.19,16.35-6.92,2.7-4.72-6.01-14.16-2.14-17.93,3.86-3.78,12.46,5.76,17.18,3.24,4.71-2.53,2.42-15.44,7.6-16.51,5.18-1.06,7.33,11.89,12.56,12.37,5.22.48,10.08-11.82,14.94-9.83,4.85,1.99-.15,14.24,3.94,17.57,4.08,3.33,14.54-4.44,17.53-.03,2.98,4.41-7.57,12.06-5.92,17.19,1.64,5.13,14.38,4.34,14.55,9.77.17,5.43-12.58,6.07-13.9,11.36s9.66,11.75,6.95,16.48c-2.7,4.72-13.6-1.86-17.47,1.91-3.86,3.78,1.87,15.43-2.84,17.95"/>
    <path class="cls-12" d="M934.7,526.62c14.32,4.22,22.63,18.87,18.56,32.7-4.08,13.82-19.01,21.63-33.32,17.41-14.32-4.22-22.63-18.87-18.56-32.7s19-21.63,33.32-17.41"/>
    <path class="cls-17" d="M877.25,635.73l3.27.54c-.17,1.31-.04,2.34.37,3.09.42.76,1.12,1.28,2.1,1.56,1.05.3,1.92.26,2.59-.11.68-.37,1.12-.9,1.32-1.6.13-.45.13-.87,0-1.25-.13-.38-.44-.76-.93-1.15-.34-.27-1.13-.79-2.37-1.58-1.59-1.01-2.64-1.98-3.13-2.93-.69-1.33-.82-2.74-.39-4.25.27-.97.76-1.8,1.47-2.51.7-.71,1.56-1.16,2.56-1.35s2.11-.11,3.35.25c2.02.57,3.39,1.53,4.12,2.87.72,1.34.86,2.89.41,4.65l-3.29-.76c.13-1.02.04-1.81-.3-2.37-.34-.56-.96-.97-1.88-1.23-.94-.27-1.74-.25-2.41.05-.43.2-.71.54-.85,1.03-.13.45-.08.88.15,1.3.3.52,1.17,1.23,2.63,2.12,1.45.9,2.49,1.69,3.12,2.37.62.69,1.03,1.51,1.23,2.45.19.93.12,2-.22,3.21-.32,1.08-.86,2.03-1.64,2.83-.79.81-1.71,1.31-2.78,1.5-1.07.19-2.3.09-3.7-.31-2.03-.58-3.44-1.59-4.21-3.01-.78-1.42-.97-3.23-.58-5.41"/>
    <path class="cls-17" d="M891.3,646.44l5.41-19,5.22,1.5c1.97.56,3.23,1.03,3.78,1.39.84.55,1.44,1.39,1.79,2.52.35,1.14.31,2.46-.12,3.97-.34,1.17-.79,2.1-1.38,2.79-.58.69-1.22,1.19-1.9,1.48-.68.3-1.33.44-1.94.42-.83-.04-1.98-.27-3.45-.7l-2.12-.6-2.04,7.16-3.25-.93ZM899.05,631.59l-1.54,5.39,1.78.51c1.28.37,2.17.51,2.65.44.49-.08.92-.29,1.29-.64.36-.36.62-.81.78-1.38.2-.69.19-1.31-.03-1.85-.21-.55-.57-.96-1.06-1.22-.37-.2-1.13-.47-2.3-.8l-1.57-.45"/>
    <path class="cls-17" d="M906.32,650.75l5.41-19,11.03,3.16-.91,3.21-7.79-2.23-1.28,4.5,6.72,1.93-.91,3.21-6.72-1.93-2.3,8.08-3.25-.93"/>
  </g>
</svg>