<svg id="Layer_2" xmlns="http://www.w3.org/2000/svg" xmlns:xlink="http://www.w3.org/1999/xlink" viewBox="0 0 1143.48 1105.27">
  <defs>
    <style>
      .cls-1 {
        stroke-width: 1.01px;
      }

      .cls-1, .cls-2, .cls-3, .cls-4, .cls-5, .cls-6, .cls-7, .cls-8, .cls-9, .cls-10, .cls-11, .cls-12, .cls-13, .cls-14, .cls-15, .cls-16, .cls-17, .cls-18, .cls-19, .cls-20 {
        fill: none;
      }

      .cls-1, .cls-2, .cls-3, .cls-4, .cls-5, .cls-7, .cls-8, .cls-9, .cls-10, .cls-11, .cls-12, .cls-13, .cls-14, .cls-15, .cls-16, .cls-17, .cls-18, .cls-19, .cls-20 {
        stroke-linecap: round;
        stroke-linejoin: round;
      }

      .cls-1, .cls-9, .cls-13, .cls-17, .cls-18 {
        stroke: #907761;
      }

      .cls-21 {
        fill: #857365;
      }

      .cls-21, .cls-22, .cls-23, .cls-24, .cls-25, .cls-26, .cls-27, .cls-28, .cls-29, .cls-30, .cls-31, .cls-32, .cls-33, .cls-34, .cls-35, .cls-36, .cls-37, .cls-38, .cls-39, .cls-40, .cls-41, .cls-42, .cls-43, .cls-44, .cls-45, .cls-46 {
        fill-rule: evenodd;
      }

      .cls-2 {
        stroke: #7d6b5f;
        stroke-width: 3.96px;
      }

      .cls-22 {
        fill: #d1d0cc;
      }

      .cls-23 {
        fill: #f2f2f2;
      }

      .cls-3 {
        stroke: #4c6120;
        stroke-width: .85px;
      }

      .cls-24 {
        fill: #576241;
      }

      .cls-47, .cls-35 {
        fill: #f2c887;
      }

      .cls-25 {
        fill: #78614d;
      }

      .cls-26 {
        fill: #5d6f38;
      }

      .cls-48 {
        fill: #f6f6f6;
      }

      .cls-27 {
        fill: #576142;
      }

      .cls-4 {
        stroke: #927e70;
        stroke-width: 4.04px;
      }

      .cls-49, .cls-30 {
        fill: #fff;
      }

      .cls-28 {
        fill: #59673c;
      }

      .cls-29, .cls-50 {
        fill: #5e4e41;
      }

      .cls-5 {
        stroke: #827063;
        stroke-width: 4.06px;
      }

      .cls-7 {
        stroke-width: .65px;
      }

      .cls-7, .cls-14 {
        stroke: #fefdf9;
      }

      .cls-31 {
        fill: #d7ece4;
      }

      .cls-32 {
        fill: #e7ebec;
      }

      .cls-51 {
        clip-path: url(#clippath-1);
      }

      .cls-8 {
        stroke: #fff;
        stroke-width: .73px;
      }

      .cls-9 {
        stroke-width: 3.63px;
      }

      .cls-33 {
        fill: #536234;
      }

      .cls-10 {
        stroke-width: .82px;
      }

      .cls-10, .cls-11 {
        stroke: #3e5932;
      }

      .cls-52, .cls-39 {
        fill: #d7ebe2;
      }

      .cls-53 {
        fill: #398880;
      }

      .cls-54 {
        fill: #bed89a;
      }

      .cls-11 {
        stroke-width: .95px;
      }

      .cls-12 {
        stroke-width: 1.36px;
      }

      .cls-12, .cls-20 {
        stroke: #cfd7d9;
      }

      .cls-34 {
        fill: #927e70;
      }

      .cls-13 {
        stroke-width: 1.18px;
      }

      .cls-14 {
        stroke-width: .81px;
      }

      .cls-55 {
        fill: #80ced1;
      }

      .cls-36 {
        fill: #5a6a3a;
      }

      .cls-56 {
        fill: #806a56;
      }

      .cls-37 {
        fill: #988477;
      }

      .cls-15 {
        stroke-width: 1.93px;
      }

      .cls-15, .cls-16 {
        stroke: #75614f;
      }

      .cls-38 {
        fill: #c9deab;
      }

      .cls-16 {
        stroke-width: 1.67px;
      }

      .cls-40 {
        fill: #907761;
      }

      .cls-17 {
        stroke-width: 1.65px;
      }

      .cls-41 {
        fill: #dbddde;
      }

      .cls-18 {
        stroke-width: 1.74px;
      }

      .cls-42 {
        fill: #58653f;
      }

      .cls-43 {
        fill: #d6972c;
      }

      .cls-44 {
        fill: #dcdedf;
      }

      .cls-19 {
        stroke: #d8dee0;
        stroke-width: 3.35px;
      }

      .cls-57 {
        clip-path: url(#clippath);
      }

      .cls-20 {
        stroke-width: 1.44px;
      }

      .cls-45 {
        fill: #f2b03f;
      }

      .cls-46 {
        fill: #806853;
      }
    </style>
    <clipPath id="clippath">
      <rect class="cls-6" x="77.59" y="811.27" width="1018" height="294"/>
    </clipPath>
    <clipPath id="clippath-1">
      <path class="cls-6" d="M580.27,0c-38.88,2.36-82.87,8.98-130.08,23.54-22.48,6.85-46.28,15.91-69.6,26.6-9.26,4.24-34.15,16.87-46.66,23.66-6.47,3.52-11.81,6.47-18.28,9.98-3.52,1.91-3.62,1.6-5.42,2.41.17-.57.7-1.34,1.51-2.25-18.85,11.85-37.53,25.14-56.38,40.13-4.76,3.78-8.96,7.23-12.96,10.52-11.8,11.2-23.21,23.08-34.17,35.63-17.88,20.33-34.38,42.36-49.38,65.72-29.22,45.52-53.48,97.76-69.51,154.36-5.87,20.71-10.91,43.04-14.63,66.8-1.38,9.37-2.56,18.86-3.47,28.5-.19,2.03-.37,4.02-.54,5.98-1.44,16.95-2.26,34.18-2.14,51.72-.22,11.59.39,26.52.44,34.8.02,2.32,0,4.07-.02,5.84,1.4,24.4,4.57,49.13,7.05,66.51,1.94,13.62,3.31,23.2,3.77,28.77.09.36.19.72.28,1.08,3.6,13.22,7.79,26.8,12.52,40.59.08.22,3.16,10.45,2.91,11.54,1.65,4.98,3.31,9.82,4.95,14.43,1.18,3.32-.1.94-1.18-1.5-4.47-10.09-8.96-21.68-13.28-34.07-2.52-7.23-4.89-14.56-7.14-21.98,4.03,15.2,8.59,30.25,13.84,45.04.76,2.12,1.54,4.24,2.32,6.35,6.63,17.42,14.07,34.48,22.34,51.08,7.55,14.77,12.52,24.8,14.04,28.29,11.82,21.16,25.02,41.45,39.55,60.64,40.68,53.88,91.77,99.17,148.93,133.39,36.45,21.81,75.74,39.4,117.72,52.09,9.54,2.88,19.09,5.54,28.61,7.85,4.43,1.26,15.01,3.59,13.36,3.6-12.87.02-47.04-8.27-78.89-19.7-7.05-2.53-14.05-5.23-21.02-8.09,17.62,7.46,35.6,13.99,53.88,19.41,9.83,2.96,19.67,5.52,29.5,7.91.97.23,1.95.51,2.56.7,15.85,3.05,31.85,5.32,47.93,6.75,79.82,7.18,162.05-6.11,237.81-38.07.33-.16.64-.3.97-.46,8.95-4.17,14.74-7.18,24.61-11.19,22.51-11.31,70.94-40.98,94.2-57.14,11.19-7.78,15.33-10.07,15.72-9.39,3.36-2.09,2.81-.4,2.33.47-.45.81-1.2,1.83-1.94,2.85,1.2-1.01,2.41-2.02,3.6-3.04,2.09-1.78,4.08-3.48,6.26-5.34,13.75-11.64,20.46-17.61,23.25-19.43,7.84-8.17,16.87-17.55,23.06-23.44.38-.36.46-.39.78-.68,6.6-8.02,13.07-16.29,19.37-24.89,10.09-13.78,19.78-28.22,28.88-43.41,7.29-12.17,14.13-24.64,20.49-37.39,4.68-9.32,9.12-18.88,13.34-28.6,3.02-6.94,5.17-12.7,8.86-21.47,11.16-26.53,13.89-35.73,12.65-28.48-.58,3.42-1.95,8.28-3.33,12.97,3.34-9.33,6.57-18.83,9.51-28.65,8.38-26.87,14.03-53.95,16.83-57.28,2.88-3.43-3.51,32.87-5.78,44.14-5.81,27.93-13.91,55.19-23.81,81.62,5.13-11.05,9.93-22.26,14.34-33.64,4.07-11.68,7.82-23.54,11.19-35.58,2.26-8.07,6.4-24.55,9.04-35.95,1.09-4.69,2.19-9.25,3.25-14.18,1.55-5.62,3.52-14.5,4.38-16.96.72-2.08.48,1.57.02,6.08,2.92-15.06,5.26-30.23,6.9-45.5,10.88-100.53-6.53-204.32-48.04-295.86-1.46-3.19-2.93-6.38-4.45-9.55-.73-1.53-1.48-3.05-2.23-4.57-10.28-20.94-21.8-41.21-34.59-60.61-4.72-7.17-12.52-17.75-14.63-21.27-1.25-2.1-1.79-3.23-1.71-3.5-1.78-2.82-2.9-4.82-2.21-4.63.86.23,9.08,11.59,13.86,18.27,53.34,74.54,87.73,165.69,99.05,261.07,4.69,40.2,5.16,81,1.1,121.41-4.06,40.58-12.69,80.68-25.42,119.43-.8,3.08-1.6,6.18-2.49,9.32-6.59,23.3-15.16,47.21-25.78,71.4-.62,1.42-1.31,2.82-1.95,4.25.32-.61.65-1.2.97-1.81,2.66-5.14,7.36-14.91,7.86-15.34.62-.52.92-.51.98-.09,1.14-2.02,2.19-3.8,3.23-5.55,16.8-36.2,30.51-75.2,40.31-117.19,2.52-10.8,4.86-21.59,6.8-32.33,1.29-5.13,3.65-18.68,3.65-15.48,0,6.06-2.34,26.09-6.97,48.8-4.87,23.91-10.59,43.28-14.24,54.93-10.13,32.32-23.24,64.11-39.22,94.77-25.92,49.73-59.46,96.48-99.95,137.32-9.97,10.96-20.46,21.64-31.57,31.89-4.53,4.17-9.26,8.34-14.14,12.49,153.1-103.62,244.68-273.75,244.95-455.03-.19-140.06-54.88-274.99-153.04-377.56,1.08,1.38,2.15,2.7,3.24,4.14,8.02,10.53,11.9,16.81,7.32,12.01-2.84-2.98-8.84-9.93-16.45-18.43.42.69.83,1.38,1.34,2.13-.04-.05-.09-.1-.14-.15.01.02.04.06.05.07.7,1.14-2.07-1.98-5.2-5.5-5.29-5.59-10.84-11.26-16.64-16.99-14.99-14.82-30.61-28.63-46.81-41.52-1.63-1.22-3.27-2.42-4.9-3.62,12.41,10.29,24.33,21,35.41,32.33,1.78,1.82,3.37,3.55,4.96,5.28,5.05,4.83,9.6,9.31,12.63,12.66,2.28,2.54,3.97,4.65,5.82,6.87-3.02-2.99-5.42-5.18-8.08-7.62,2.51,3.04,5.03,6.07,7.4,8.99-.8-.77-1-.78-2.41-2.29-8.85-9.51-22.28-23.54-40.52-39.7-17.63-15.61-32.42-26.64-38.2-30.91-5.42-3.99-10.92-7.86-16.47-11.64C784.88,30.56,683.76,1.65,580.27,0h0ZM513.45,3.09c-.27.03-.54.06-.81.09-39.43,6.32-78.23,17.16-115.36,32.38-.98.46-2.07.92-3.02,1.37-8.4,4.12-16.81,8.5-24.61,12.81,49.04-23.34,95.01-36.42,133.79-44.58,3.41-.72,6.68-1.38,10.01-2.07ZM391.79,42.39c-7.84,3.3-15.77,6.84-23.8,10.67-7.74,3.66-15.4,7.58-23.01,11.64-2.37,1.65-4.37,3.17-6.05,4.57,1.82-1.06,3.93-2.24,5.92-3.36,6.22-3.49,12.41-6.76,18.55-9.91,9.11-4.68,18.72-9.29,28.39-13.61ZM333.51,67.01c-20.58,11.96-40.35,25.4-59.12,40.22,15.43-11.47,31.07-21.93,46.72-31.39,3.51-2.68,7.75-5.69,12.4-8.83ZM266.02,85.88c-13.49,8.42-26.6,17.38-39.31,26.87-29.43,25.8-55.1,54.07-77.23,83.5,1.64-1.79.61.22,1.23-.17-.3.57-.62,1.18-.9,1.72,8.48-11.28,17.36-22.23,26.61-32.8,13.03-14.43,26.16-27.93,37.81-37.96,5.37-4.62,4.11-2.81.52,1.25,9.85-9.27,18.79-16.97,26.34-23.19,8.69-7.14,17.06-13.51,24.93-19.22ZM193.41,139.53c-2.35,1.97-4.68,3.96-7,5.97-19.34,21.27-37.29,44.17-53.54,68.55,10.76-15.83,21.15-29.42,30.47-40.79,8.8-10.72,18.83-22.1,30.07-33.73ZM151.81,182.57c-.53.68-1.07,1.36-1.59,2.05-.31.4-.61.81-.92,1.22.83-1.1,1.67-2.18,2.51-3.28h0ZM149.3,185.85c-.67.89-1.35,1.79-2.02,2.69-.98,1.32-1.98,2.64-2.95,3.97-60.46,82.86-100.27,183.1-111.13,288.35-2.43,23.65-3.37,47.39-2.89,71.06,2.48,125.05,44.73,248.92,119.44,346.22,9.61,12.49,19.76,24.5,30.37,36.06.17.18.44.45.61.63-10.72-11.83-21.01-24.11-30.7-36.92-82.43-109.09-124.12-250.91-115.12-389.91.3-4.64.99-14.39,2.36-26.64,4.24-37.67,13.52-85.89,33.69-139.48,6.42-17.04,13.15-32.38,19.75-46.2,4.22-9.49,8.71-18.94,13.51-28.32,2.52-4.92,5.1-9.78,7.74-14.63-2.91,4.99-5.76,9.99-8.49,14.99-3.63,6.64-15.33,28.26-27.46,57.44-12.86,30.94-19.32,53.24-23.63,66.64-3.63,11.29-4.03,11.08-1.74,1.03,2.22-9.7,5-19.24,6.67-24.99,19.61-64.94,50.79-127.05,91.99-181.99ZM115.86,221C40.94,317.18.26,434.49,0,555.1c.2,168.37,79.18,327.84,214.47,433.05-23.55-20.54-45.52-43.16-65.56-67.69-3.51-4.3-6.98-8.67-10.37-13.09-41.14-53.7-72.9-115.56-93.52-181.88-6.8-21.84-12.32-44.16-16.64-66.77-2.52-13.79-4.66-27.53-6.11-41.12-3.37-31.49-.98-26.57.27-18.86,1.17,7.26,3,22.19,5.07,34.38.96,5.66,2.04,11.38,3.16,17.12-8.98-49.72-13.07-107.73-6.38-170.45,4.62-42.84,13.58-81.38,24.02-114.57,16.01-50.74,38.72-99.45,67.45-144.2ZM106.52,323.97c-.44,1.01-.9,2-1.33,3.01-21.2,49.72-35.52,103.02-41.68,157.66-.2,1.75-.36,3.5-.54,5.24-.42,16.71-.04,32.81,1.07,48.05.51,6.89,1.17,11.62,1.91,19.08-.21-10.04-.15-20.03.12-29.96,0-.52.04-1.07.05-1.6.03-2.47.06-4.95.12-7.41.19-8.36.63-19.62,1.73-32.86,4.56-55.29,17-100.45,26.95-130,3.54-10.5,7.43-20.9,11.6-31.22ZM60.68,556.87c1.02,22.77,3.45,45.51,7.21,68.04.21,1.21.4,2.42.61,3.63.55,3.18,1.18,6.49,1.84,9.83.32,1.65.64,3.3.97,4.95.06.3.14.62.2.92.43-2.36-.11-10-1.39-23.6-.79-8.26-1.64-17.32-2.37-26.82-.84-.77-2.04-6.26-3.38-12.82-1.4-6.83-2.61-15.23-3.69-24.12ZM50.96,643.99c2.79,16.4,6.29,32.67,10.44,48.76,3.42,12.73,7.23,25.32,11.47,37.74,10.53,30.83,23.61,60.66,39.05,89.04,2.23,3.61,4.52,7.22,6.86,10.82-32.84-56.99-55.9-120.48-67.82-186.36ZM1066.14,682.36c-.01-.05-.06.03-.13.35-.32,1.4-.66,2.73-.99,4.12.39-1.43.72-2.63,1.04-3.92.07-.29.09-.5.08-.55ZM1062.67,696.63c-.11.43-.21.91-.32,1.34-.3,1.25-.66,2.49-.97,3.74.12-.26.28-.64.4-.87.08-.17.13-.2.19-.29.17-1.09.47-2.59.7-3.91ZM85.76,726.28c.64,2.5,1.35,5.23,1.85,7.25.34.98.71,1.96,1.06,2.95,6.3,17.46,13.39,34.6,21.33,51.29,13.31,28.01,27.33,51.43,40.27,70.57-24.03-35.85-43.79-74.95-58.88-116.02-1.96-5.31-3.83-10.66-5.63-16.04ZM1046.13,752.83c-.82,2.35-1.7,4.68-2.55,7.01-.19.54-.38,1.06-.58,1.59-.98,2.68-1.93,5.36-2.96,8.02-5.78,15.3-12.22,30.35-19.25,45.02-8.44,19.36-18.32,38.87-29.75,58.21,24.84-40.11,43.02-81.01,55.09-119.85ZM1004.2,837.25c-2.84,5.24-5.75,10.44-8.75,15.57,2.4-4.04,4.77-8.14,7.1-12.29.55-1.09,1.1-2.2,1.65-3.29ZM1022.1,841.98c-31.41,54.19-71.58,103-118.9,143.07-30.4,25.74-63.64,47.79-98.84,65.85,10.83-5.32,21.42-10.96,31.71-16.92,23.95-13.87,46.86-29.62,68.43-47.2,10.55-8.61,20.75-17.67,30.63-27.11,1.04-1.02,2.09-2.02,3.12-3.05-2.47,1.57,11.04-11.5,25.03-26.44,11.66-13.18,22.75-26.92,33.21-41.2,2.38-3.25,5.02-7.08,7.54-10.73,5.74-9.38,11.25-18.96,16.51-28.75-3.56,5.34-7.2,10.77-9.04,12.86h0s-.12.16-.16.21c-.99,1.09,1.7-3.45,3.75-7.08,2.23-4.23,4.44-8.55,7.01-13.51ZM151.42,860.03c1.36,1.99,2.72,4,4.05,5.89-1.36-1.95-2.71-3.92-4.05-5.89ZM939.87,937.6c-.92,1.05-1.85,2.11-2.78,3.16.52-.54,1.03-1.09,1.55-1.62.41-.52.82-1.02,1.23-1.54ZM903.72,959.54c-1.39,1.26-2.74,2.5-4.12,3.74-2.52,2.35-5.05,4.66-7.58,6.93-4.44,3.99-8.96,7.91-13.56,11.77-1.77,1.94-3.47,3.85-5.25,5.77-1.66,1.67-3.42,3.36-5.16,5.04,8.27-6.8,16.53-13.98,24.73-21.58.54-.49,1.07-1.01,1.61-1.51.79-.92,1.5-1.71,2.54-3.01.77-.95.65-1.17,1.82-2.46.63-.7,3.1-2.98,4.97-4.69ZM865.12,984.06c-3.96,2.6-17.97,12.97-25.81,18.29,4.86-3.32,10.03-6.85,13.42-9.27,4.09-2.93,8.22-5.93,12.39-9.02ZM846.26,1000.62c-2.24,1.65-4.48,3.29-6.73,4.89-22.04,15.65-45.63,29.68-70.5,41.83-7.97,3.87-23.75,11.53-43.91,18.79-3.11,1.45-6.22,2.88-9.33,4.27,3.48-1.05,6.89-2.16,10.3-3.27,8.26-3.05,16.52-6.32,24.95-9.94,18.65-7.99,37.45-17.48,56.1-28.41,13.09-8.45,25.66-17.45,37.66-26.96.49-.41.97-.81,1.46-1.21ZM838.78,1002.72c-12.32,8.34-24.8,16.1-37.35,23.14-9.03,5.09-18.26,9.86-27.62,14.4-1.89,1.19-4.91,3.12-5.33,3.37-1.93,1.14-3.87,2.24-5.81,3.34,17.97-8.51,35.89-18.21,53.53-29.18,4.47-2.78,13.63-8.94,22.58-15.06ZM875.87,1024.39c-1.99,1.43-4.03,2.8-6.04,4.2.88-.49,1.76-.98,2.64-1.47,1.13-.9,2.27-1.81,3.4-2.73ZM744.86,1063.02c-6.33,2.39-12.99,4.68-19.87,6.9-10.05,3.53-20.45,6.71-30.88,9.29-2.28.68-4.27,1.23-6.28,1.8,14.74-3.47,29.37-7.49,43.79-12.2.4-.12.71-.21,1.11-.33,4.08-1.77,8.12-3.6,12.13-5.46ZM692.78,1071.4c-48.67,14.09-99.78,21.08-151.29,19.64,24.2,1.44,49.18,1.12,74.74-1.25,20.87-1.94,41.65-5.2,62.2-9.7,1.79-.79,3.4-1.52,5.48-2.39-2.95.5-5.65.87-7.85.99-2.46.14,1.57-1.13,2.35-1.7,4.34-1.71,9.17-3.57,14.37-5.59ZM436.94,1085.88c23.04,6.59,48.02,12,74.69,15.37,5.32.67,10.64,1.22,15.96,1.71,31.86,2.32,63.97,1.54,95.81-2.23-33.05,3.63-70.74,4.55-111.69-.18-6.3-.73-12.76-1.6-19.38-2.63-18.64-2.94-37.13-6.99-55.39-12.04Z"/>
    </clipPath>
  </defs>
  <g id="Layer_1-2" data-name="Layer_1">
    <path class="cls-55" d="M580.27,0c-38.88,2.36-82.87,8.98-130.08,23.54-22.48,6.85-46.28,15.91-69.6,26.6-9.26,4.24-34.15,16.87-46.66,23.66-6.47,3.52-11.81,6.47-18.28,9.98-3.52,1.91-3.62,1.6-5.42,2.41.17-.57.7-1.34,1.51-2.25-18.85,11.85-37.53,25.14-56.38,40.13-4.76,3.78-8.96,7.23-12.96,10.52-11.8,11.2-23.21,23.08-34.17,35.63-17.88,20.33-34.38,42.36-49.38,65.72-29.22,45.52-53.48,97.76-69.51,154.36-5.87,20.71-10.91,43.04-14.63,66.8-1.38,9.37-2.56,18.86-3.47,28.5-.19,2.03-.37,4.02-.54,5.98-1.44,16.95-2.26,34.18-2.14,51.72-.22,11.59.39,26.52.44,34.8.02,2.32,0,4.07-.02,5.84,1.4,24.4,4.57,49.13,7.05,66.51,1.94,13.62,3.31,23.2,3.77,28.77.09.36.19.72.28,1.08,3.6,13.22,7.79,26.8,12.52,40.59.08.22,3.16,10.45,2.91,11.54,1.65,4.98,3.31,9.82,4.95,14.43,1.18,3.32-.1.94-1.18-1.5-4.47-10.09-8.96-21.68-13.28-34.07-2.52-7.23-4.89-14.56-7.14-21.98,4.03,15.2,8.59,30.25,13.84,45.04.76,2.12,1.54,4.24,2.32,6.35,6.63,17.42,14.07,34.48,22.34,51.08,7.55,14.77,12.52,24.8,14.04,28.29,11.82,21.16,25.02,41.45,39.55,60.64,40.68,53.88,91.77,99.17,148.93,133.39,36.45,21.81,75.74,39.4,117.72,52.09,9.54,2.88,19.09,5.54,28.61,7.85,4.43,1.26,15.01,3.59,13.36,3.6-12.87.02-47.04-8.27-78.89-19.7-7.05-2.53-14.05-5.23-21.02-8.09,17.62,7.46,35.6,13.99,53.88,19.41,9.83,2.96,19.67,5.52,29.5,7.91.97.23,1.95.51,2.56.7,15.85,3.05,31.85,5.32,47.93,6.75,79.82,7.18,162.05-6.11,237.81-38.07.33-.16.64-.3.97-.46,8.95-4.17,14.74-7.18,24.61-11.19,22.51-11.31,70.94-40.98,94.2-57.14,11.19-7.78,15.33-10.07,15.72-9.39,3.36-2.09,2.81-.4,2.33.47-.45.81-1.2,1.83-1.94,2.85,1.2-1.01,2.41-2.02,3.6-3.04,2.09-1.78,4.08-3.48,6.26-5.34,13.75-11.64,20.46-17.61,23.25-19.43,7.84-8.17,16.87-17.55,23.06-23.44.38-.36.46-.39.78-.68,6.6-8.02,13.07-16.29,19.37-24.89,10.09-13.78,19.78-28.22,28.88-43.41,7.29-12.17,14.13-24.64,20.49-37.39,4.68-9.32,9.12-18.88,13.34-28.6,3.02-6.94,5.17-12.7,8.86-21.47,11.16-26.53,13.89-35.73,12.65-28.48-.58,3.42-1.95,8.28-3.33,12.97,3.34-9.33,6.57-18.83,9.51-28.65,8.38-26.87,14.03-53.95,16.83-57.28,2.88-3.43-3.51,32.87-5.78,44.14-5.81,27.93-13.91,55.19-23.81,81.62,5.13-11.05,9.93-22.26,14.34-33.64,4.07-11.68,7.82-23.54,11.19-35.58,2.26-8.07,6.4-24.55,9.04-35.95,1.09-4.69,2.19-9.25,3.25-14.18,1.55-5.62,3.52-14.5,4.38-16.96.72-2.08.48,1.57.02,6.08,2.92-15.06,5.26-30.23,6.9-45.5,10.88-100.53-6.53-204.32-48.04-295.86-1.46-3.19-2.93-6.38-4.45-9.55-.73-1.53-1.48-3.05-2.23-4.57-10.28-20.94-21.8-41.21-34.59-60.61-4.72-7.17-12.52-17.75-14.63-21.27-1.25-2.1-1.79-3.23-1.71-3.5-1.78-2.82-2.9-4.82-2.21-4.63.86.23,9.08,11.59,13.86,18.27,53.34,74.54,87.73,165.69,99.05,261.07,4.69,40.2,5.16,81,1.1,121.41-4.06,40.58-12.69,80.68-25.42,119.43-.8,3.08-1.6,6.18-2.49,9.32-6.59,23.3-15.16,47.21-25.78,71.4-.62,1.42-1.31,2.82-1.95,4.25.32-.61.65-1.2.97-1.81,2.66-5.14,7.36-14.91,7.86-15.34.62-.52.92-.51.98-.09,1.14-2.02,2.19-3.8,3.23-5.55,16.8-36.2,30.51-75.2,40.31-117.19,2.52-10.8,4.86-21.59,6.8-32.33,1.29-5.13,3.65-18.68,3.65-15.48,0,6.06-2.34,26.09-6.97,48.8-4.87,23.91-10.59,43.28-14.24,54.93-10.13,32.32-23.24,64.11-39.22,94.77-25.92,49.73-59.46,96.48-99.95,137.32-9.97,10.96-20.46,21.64-31.57,31.89-4.53,4.17-9.26,8.34-14.14,12.49,153.1-103.62,244.68-273.75,244.95-455.03-.19-140.06-54.88-274.99-153.04-377.56,1.08,1.38,2.15,2.7,3.24,4.14,8.02,10.53,11.9,16.81,7.32,12.01-2.84-2.98-8.84-9.93-16.45-18.43.42.69.83,1.38,1.34,2.13-.04-.05-.09-.1-.14-.15.01.02.04.06.05.07.7,1.14-2.07-1.98-5.2-5.5-5.29-5.59-10.84-11.26-16.64-16.99-14.99-14.82-30.61-28.63-46.81-41.52-1.63-1.22-3.27-2.42-4.9-3.62,12.41,10.29,24.33,21,35.41,32.33,1.78,1.82,3.37,3.55,4.96,5.28,5.05,4.83,9.6,9.31,12.63,12.66,2.28,2.54,3.97,4.65,5.82,6.87-3.02-2.99-5.42-5.18-8.08-7.62,2.51,3.04,5.03,6.07,7.4,8.99-.8-.77-1-.78-2.41-2.29-8.85-9.51-22.28-23.54-40.52-39.7-17.63-15.61-32.42-26.64-38.2-30.91-5.42-3.99-10.92-7.86-16.47-11.64C784.88,30.56,683.76,1.65,580.27,0h0ZM513.45,3.09c-.27.03-.54.06-.81.09-39.43,6.32-78.23,17.16-115.36,32.38-.98.46-2.07.92-3.02,1.37-8.4,4.12-16.81,8.5-24.61,12.81,49.04-23.34,95.01-36.42,133.79-44.58,3.41-.72,6.68-1.38,10.01-2.07ZM391.79,42.39c-7.84,3.3-15.77,6.84-23.8,10.67-7.74,3.66-15.4,7.58-23.01,11.64-2.37,1.65-4.37,3.17-6.05,4.57,1.82-1.06,3.93-2.24,5.92-3.36,6.22-3.49,12.41-6.76,18.55-9.91,9.11-4.68,18.72-9.29,28.39-13.61ZM333.51,67.01c-20.58,11.96-40.35,25.4-59.12,40.22,15.43-11.47,31.07-21.93,46.72-31.39,3.51-2.68,7.75-5.69,12.4-8.83ZM266.02,85.88c-13.49,8.42-26.6,17.38-39.31,26.87-29.43,25.8-55.1,54.07-77.23,83.5,1.64-1.79.61.22,1.23-.17-.3.57-.62,1.18-.9,1.72,8.48-11.28,17.36-22.23,26.61-32.8,13.03-14.43,26.16-27.93,37.81-37.96,5.37-4.62,4.11-2.81.52,1.25,9.85-9.27,18.79-16.97,26.34-23.19,8.69-7.14,17.06-13.51,24.93-19.22ZM193.41,139.53c-2.35,1.97-4.68,3.96-7,5.97-19.34,21.27-37.29,44.17-53.54,68.55,10.76-15.83,21.15-29.42,30.47-40.79,8.8-10.72,18.83-22.1,30.07-33.73ZM151.81,182.57c-.53.68-1.07,1.36-1.59,2.05-.31.4-.61.81-.92,1.22.83-1.1,1.67-2.18,2.51-3.28h0ZM149.3,185.85c-.67.89-1.35,1.79-2.02,2.69-.98,1.32-1.98,2.64-2.95,3.97-60.46,82.86-100.27,183.1-111.13,288.35-2.43,23.65-3.37,47.39-2.89,71.06,2.48,125.05,44.73,248.92,119.44,346.22,9.61,12.49,19.76,24.5,30.37,36.06.17.18.44.45.61.63-10.72-11.83-21.01-24.11-30.7-36.92-82.43-109.09-124.12-250.91-115.12-389.91.3-4.64.99-14.39,2.36-26.64,4.24-37.67,13.52-85.89,33.69-139.48,6.42-17.04,13.15-32.38,19.75-46.2,4.22-9.49,8.71-18.94,13.51-28.32,2.52-4.92,5.1-9.78,7.74-14.63-2.91,4.99-5.76,9.99-8.49,14.99-3.63,6.64-15.33,28.26-27.46,57.44-12.86,30.94-19.32,53.24-23.63,66.64-3.63,11.29-4.03,11.08-1.74,1.03,2.22-9.7,5-19.24,6.67-24.99,19.61-64.94,50.79-127.05,91.99-181.99ZM115.86,221C40.94,317.18.26,434.49,0,555.1c.2,168.37,79.18,327.84,214.47,433.05-23.55-20.54-45.52-43.16-65.56-67.69-3.51-4.3-6.98-8.67-10.37-13.09-41.14-53.7-72.9-115.56-93.52-181.88-6.8-21.84-12.32-44.16-16.64-66.77-2.52-13.79-4.66-27.53-6.11-41.12-3.37-31.49-.98-26.57.27-18.86,1.17,7.26,3,22.19,5.07,34.38.96,5.66,2.04,11.38,3.16,17.12-8.98-49.72-13.07-107.73-6.38-170.45,4.62-42.84,13.58-81.38,24.02-114.57,16.01-50.74,38.72-99.45,67.45-144.2ZM106.52,323.97c-.44,1.01-.9,2-1.33,3.01-21.2,49.72-35.52,103.02-41.68,157.66-.2,1.75-.36,3.5-.54,5.24-.42,16.71-.04,32.81,1.07,48.05.51,6.89,1.17,11.62,1.91,19.08-.21-10.04-.15-20.03.12-29.96,0-.52.04-1.07.05-1.6.03-2.47.06-4.95.12-7.41.19-8.36.63-19.62,1.73-32.86,4.56-55.29,17-100.45,26.95-130,3.54-10.5,7.43-20.9,11.6-31.22ZM60.68,556.87c1.02,22.77,3.45,45.51,7.21,68.04.21,1.21.4,2.42.61,3.63.55,3.18,1.18,6.49,1.84,9.83.32,1.65.64,3.3.97,4.95.06.3.14.62.2.92.43-2.36-.11-10-1.39-23.6-.79-8.26-1.64-17.32-2.37-26.82-.84-.77-2.04-6.26-3.38-12.82-1.4-6.83-2.61-15.23-3.69-24.12ZM50.96,643.99c2.79,16.4,6.29,32.67,10.44,48.76,3.42,12.73,7.23,25.32,11.47,37.74,10.53,30.83,23.61,60.66,39.05,89.04,2.23,3.61,4.52,7.22,6.86,10.82-32.84-56.99-55.9-120.48-67.82-186.36ZM1066.14,682.36c-.01-.05-.06.03-.13.35-.32,1.4-.66,2.73-.99,4.12.39-1.43.72-2.63,1.04-3.92.07-.29.09-.5.08-.55ZM1062.67,696.63c-.11.43-.21.91-.32,1.34-.3,1.25-.66,2.49-.97,3.74.12-.26.28-.64.4-.87.08-.17.13-.2.19-.29.17-1.09.47-2.59.7-3.91ZM85.76,726.28c.64,2.5,1.35,5.23,1.85,7.25.34.98.71,1.96,1.06,2.95,6.3,17.46,13.39,34.6,21.33,51.29,13.31,28.01,27.33,51.43,40.27,70.57-24.03-35.85-43.79-74.95-58.88-116.02-1.96-5.31-3.83-10.66-5.63-16.04ZM1046.13,752.83c-.82,2.35-1.7,4.68-2.55,7.01-.19.54-.38,1.06-.58,1.59-.98,2.68-1.93,5.36-2.96,8.02-5.78,15.3-12.22,30.35-19.25,45.02-8.44,19.36-18.32,38.87-29.75,58.21,24.84-40.11,43.02-81.01,55.09-119.85ZM1004.2,837.25c-2.84,5.24-5.75,10.44-8.75,15.57,2.4-4.04,4.77-8.14,7.1-12.29.55-1.09,1.1-2.2,1.65-3.29ZM1022.1,841.98c-31.41,54.19-71.58,103-118.9,143.07-30.4,25.74-63.64,47.79-98.84,65.85,10.83-5.32,21.42-10.96,31.71-16.92,23.95-13.87,46.86-29.62,68.43-47.2,10.55-8.61,20.75-17.67,30.63-27.11,1.04-1.02,2.09-2.02,3.12-3.05-2.47,1.57,11.04-11.5,25.03-26.44,11.66-13.18,22.75-26.92,33.21-41.2,2.38-3.25,5.02-7.08,7.54-10.73,5.74-9.38,11.25-18.96,16.51-28.75-3.56,5.34-7.2,10.77-9.04,12.86h0s-.12.16-.16.21c-.99,1.09,1.7-3.45,3.75-7.08,2.23-4.23,4.44-8.55,7.01-13.51ZM151.42,860.03c1.36,1.99,2.72,4,4.05,5.89-1.36-1.95-2.71-3.92-4.05-5.89ZM939.87,937.6c-.92,1.05-1.85,2.11-2.78,3.16.52-.54,1.03-1.09,1.55-1.62.41-.52.82-1.02,1.23-1.54ZM903.72,959.54c-1.39,1.26-2.74,2.5-4.12,3.74-2.52,2.35-5.05,4.66-7.58,6.93-4.44,3.99-8.96,7.91-13.56,11.77-1.77,1.94-3.47,3.85-5.25,5.77-1.66,1.67-3.42,3.36-5.16,5.04,8.27-6.8,16.53-13.98,24.73-21.58.54-.49,1.07-1.01,1.61-1.51.79-.92,1.5-1.71,2.54-3.01.77-.95.65-1.17,1.82-2.46.63-.7,3.1-2.98,4.97-4.69ZM865.12,984.06c-3.96,2.6-17.97,12.97-25.81,18.29,4.86-3.32,10.03-6.85,13.42-9.27,4.09-2.93,8.22-5.93,12.39-9.02ZM846.26,1000.62c-2.24,1.65-4.48,3.29-6.73,4.89-22.04,15.65-45.63,29.68-70.5,41.83-7.97,3.87-23.75,11.53-43.91,18.79-3.11,1.45-6.22,2.88-9.33,4.27,3.48-1.05,6.89-2.16,10.3-3.27,8.26-3.05,16.52-6.32,24.95-9.94,18.65-7.99,37.45-17.48,56.1-28.41,13.09-8.45,25.66-17.45,37.66-26.96.49-.41.97-.81,1.46-1.21ZM838.78,1002.72c-12.32,8.34-24.8,16.1-37.35,23.14-9.03,5.09-18.26,9.86-27.62,14.4-1.89,1.19-4.91,3.12-5.33,3.37-1.93,1.14-3.87,2.24-5.81,3.34,17.97-8.51,35.89-18.21,53.53-29.18,4.47-2.78,13.63-8.94,22.58-15.06ZM875.87,1024.39c-1.99,1.43-4.03,2.8-6.04,4.2.88-.49,1.76-.98,2.64-1.47,1.13-.9,2.27-1.81,3.4-2.73ZM744.86,1063.02c-6.33,2.39-12.99,4.68-19.87,6.9-10.05,3.53-20.45,6.71-30.88,9.29-2.28.68-4.27,1.23-6.28,1.8,14.74-3.47,29.37-7.49,43.79-12.2.4-.12.71-.21,1.11-.33,4.08-1.77,8.12-3.6,12.13-5.46ZM692.78,1071.4c-48.67,14.09-99.78,21.08-151.29,19.64,24.2,1.44,49.18,1.12,74.74-1.25,20.87-1.94,41.65-5.2,62.2-9.7,1.79-.79,3.4-1.52,5.48-2.39-2.95.5-5.65.87-7.85.99-2.46.14,1.57-1.13,2.35-1.7,4.34-1.71,9.17-3.57,14.37-5.59ZM436.94,1085.88c23.04,6.59,48.02,12,74.69,15.37,5.32.67,10.64,1.22,15.96,1.71,31.86,2.32,63.97,1.54,95.81-2.23-33.05,3.63-70.74,4.55-111.69-.18-6.3-.73-12.76-1.6-19.38-2.63-18.64-2.94-37.13-6.99-55.39-12.04"/>
    <g class="cls-57">
      <g class="cls-51">
        <path class="cls-22" d="M77.83,881.11s66.41-17.18,116.54-15.91c97.22,2.46,315.67,32.76,444.91,28.75,115.36-3.58,245.51-69.2,337.01-79.46,70.49-7.9,118.42,4.21,118.42,4.21,0,0-70.58,206.48-158.4,252-134.43,69.68-486.24,86.95-666.48,31.92-84.15-25.69-192-221.52-192-221.52"/>
      </g>
    </g>
    <path class="cls-41" d="M714.55,646.63h-251.28v71.52h251.28v-71.52"/>
    <path class="cls-20" d="M469.85,656.07c-.26.02-.09.01.11.01,2.92,0,5.83.32,8.76.39,5.79.15,11.67.12,17.44-.2,10.93-.6,21.38-1.55,32.46-1.55,7.05,0,13.82,1.09,21.03.88"/>
    <path class="cls-12" d="M621.76,658.19c-.24-.01-.08,0,.11,0,2.73,0,5.46-.2,8.2-.25,5.43-.1,10.94-.08,16.35.13,10.23.39,20.03.99,30.4.99,6.61,0,12.95-.69,19.71-.56"/>
    <path class="cls-41" d="M471.67,644.03l-15.6,72.93-105.36-46.8,120.96-26.12"/>
    <path class="cls-44" d="M711.22,644.34l8.74,70.84,115.95-34.62-124.69-36.21"/>
    <path class="cls-32" d="M483.86,445.9h-21.92v282.22h21.92v-282.22"/>
    <path class="cls-32" d="M717.07,385.16h-23.52v520.3h23.52V385.16"/>
    <path class="cls-13" d="M692.24,648.18c.09-.27,1.22.72,1.42.81,1.79.84,3.49,1.28,5.36,1.71,3.33.77,17.17,2.2,18.66-4.08.04-.14-1.5.35-1.58.39-1.48.69-2.96,1.25-4.48,1.73-4.6,1.45-10.98,1.98-15.52-.17-.3-.14-4.04-1.95-4.04-2.13s1.21.03,1.28.04c1.96.21,3.93.19,5.9.38,5.14.5,9.37.23,14.26-1.62.71-.27,3.94-1.38,4.24-2.61,0-.03-.76.36-.79.38-1.03.64-2.15,1.79-3.19,2.41-2.34,1.38-5.01,1.12-7.55,1.45-3.08.41-6.17-.11-9.16-1.18-.16-.05-4.98-2.91-4.95-2.56.5,7.81,18.31,8.53,21.76,7.83,1.97-.4,4.17-1.58,4.31-5.18.07-1.74-4.25,2.46-6.26,2.94-4.34,1.01-9.25-.37-13.54-1.35-1.55-.36-3.08-.8-4.61-1.26-.68-.2-1.36-.41-2.05-.49-.18-.02-.69-.13-.53-.02,3.06,2.15,8.8,1.54,11.99.84,3.03-.66,10.31-.29,14.36-6.57"/>
    <path class="cls-31" d="M373.55,624.71l14.87,51.79,25.43-1.01,12.53-61.71-52.83,10.93"/>
    <path class="cls-9" d="M396.04,653.03c-1.92-14.32-2.28-25.85-4.48-39.14,0,0,7.86-8.93,16.82-16.19"/>
    <path class="cls-35" d="M380.29,646.05l8.85,30.02,24.57-.92,6.14-32.45-39.56,3.34"/>
    <path class="cls-8" d="M384.13,632.44c3.78,14.12,5.6,22.64,9.02,37.57"/>
    <path class="cls-8" d="M402.64,628.08c-.21,11.6-.04,19.33-.5,36.99"/>
    <path class="cls-8" d="M416.81,625.16c-2.45,16.69-3.94,24.39-6.5,40.67"/>
    <path class="cls-40" d="M400.22,668.87c.71,0,1.28.62,1.28,1.39s-.57,1.39-1.28,1.39-1.28-.62-1.28-1.39.57-1.39,1.28-1.39"/>
    <path class="cls-40" d="M396.84,662.69c.56,0,1.02.53,1.02,1.19s-.46,1.2-1.02,1.2-1.03-.54-1.03-1.2.46-1.19,1.03-1.19"/>
    <path class="cls-40" d="M407.48,648.65c.57,0,1.03.46,1.03,1.04s-.46,1.04-1.03,1.04-1.02-.46-1.02-1.04.46-1.04,1.02-1.04"/>
    <path class="cls-39" d="M565.43,625.82l14.87,51.78,25.43-1.01,12.53-61.71-52.83,10.94"/>
    <path class="cls-9" d="M587.93,654.13c-1.93-14.32-2.29-25.85-4.49-39.14,0,0,7.86-8.93,16.82-16.19"/>
    <path class="cls-38" d="M571.94,646.91l8.36,29.3,25.29.04,6.14-32.45-39.79,3.1"/>
    <path class="cls-8" d="M576.01,633.54c3.78,14.12,5.61,22.64,9.03,37.57"/>
    <path class="cls-8" d="M594.52,629.18c-.2,11.6-.04,19.33-.5,36.98"/>
    <path class="cls-8" d="M608.7,626.27c-2.45,16.68-3.95,24.39-6.5,40.67"/>
    <path class="cls-40" d="M592.1,669.97c.71,0,1.29.62,1.29,1.39s-.58,1.39-1.29,1.39-1.28-.62-1.28-1.39.58-1.39,1.28-1.39"/>
    <path class="cls-40" d="M588.72,663.79c.56,0,1.02.54,1.02,1.2s-.46,1.2-1.02,1.2-1.02-.54-1.02-1.2.45-1.2,1.02-1.2"/>
    <path class="cls-40" d="M599.37,649.75c.56,0,1.02.46,1.02,1.04s-.46,1.04-1.02,1.04-1.02-.46-1.02-1.04.46-1.04,1.02-1.04"/>
    <path class="cls-56" d="M637.96,651.69c2.61,11.5,11.15,21.03,22.35,24.93,11.2,3.9,23.43,1.62,32.02-5.98,8.6-7.6,12.29-19.41,9.68-30.91"/>
    <path class="cls-30" d="M667.62,636.2c-17.68,3.48-31.04,10.47-29.83,15.58,1.21,5.12,16.55,6.44,34.23,2.96,17.67-3.49,31.03-10.47,29.82-15.59s-16.55-6.44-34.22-2.95"/>
    <path class="cls-23" d="M670.64,638.09c-14.12,2.55-25.71,7.93-25.86,12-.15,4.07,11.2,5.3,25.32,2.75,14.12-2.55,25.71-7.93,25.85-12,.15-4.07-11.19-5.3-25.31-2.75"/>
    <path class="cls-29" d="M680.87,673.39c-1.41.48-2.39,1.29-2.2,1.8.19.51,1.49.54,2.89.06,1.41-.48,2.39-1.29,2.2-1.8-.19-.51-1.49-.54-2.89-.06"/>
    <path class="cls-29" d="M676.03,672.25c-1.08.37-1.83.99-1.69,1.38.15.39,1.15.41,2.23.04,1.08-.37,1.84-.99,1.69-1.38-.15-.39-1.14-.41-2.23-.04"/>
    <path class="cls-29" d="M673.59,675.44c-1.25.4-2.14,1.09-1.98,1.55s1.31.5,2.57.11c1.25-.4,2.14-1.1,1.98-1.55s-1.31-.5-2.57-.1"/>
    <path class="cls-50" d="M698.6,649.84c.44,2.42-.14,5.41-1.36,8.27.16-1.82,1.14-5.56,1.36-8.27"/>
    <path class="cls-50" d="M693.13,657.47c.2,1.7-.34,3.75-1.32,5.68.2-1.25,1.04-3.81,1.32-5.68"/>
    <path class="cls-50" d="M646.18,661.61c1.07,2.25,3.32,4.42,6.03,6.16-1.22-1.42-4.25-4.02-6.03-6.16"/>
    <path class="cls-50" d="M657.77,661.65c1.37,2.76,4.09,5.66,7.3,8.17-1.49-1.85-5.12-5.39-7.3-8.17"/>
    <path class="cls-50" d="M677.57,660.27c1.07,1.79,1.52,4.33,1.44,6.97-.42-1.49-.79-4.76-1.44-6.97"/>
    <path class="cls-32" d="M837,670.7H320.16v246.3h516.84v-246.3"/>
    <path class="cls-32" d="M353.58,416.52h-42.31v520.3h42.31V416.52"/>
    <path class="cls-32" d="M844.06,415.35h-42.31v520.3h42.31V415.35"/>
    <path class="cls-17" d="M801.7,670.25c1.26,1,8.35,3.12,11.42,3.11,5.68-.02,30.11,2.41,32.62-5.31.06-.18-3.74.72-3.88.77-2.48.85-4.98,1.54-7.53,2.13-7.74,1.79-18.48,2.44-26.12-.21-.51-.18-6.81-2.39-6.81-2.62,0-.24,2.04.04,2.15.05,3.3.27,6.62.23,9.93.47,8.66.62,15.78.29,24.01-2,1.19-.33,6.63-1.7,7.13-3.21,0-.03-1.27.44-1.33.46-1.73.79-3.62,2.21-5.37,2.96-3.93,1.69-8.43,1.37-12.7,1.79-5.18.5-10.39-.14-15.42-1.45-.27-.07-8.37-3.58-8.33-3.14.85,9.61,30.81,10.48,36.62,9.63,3.31-.49,6.8-1.04,7.04-5.47.12-2.14-6.93,2.13-10.33,2.71-7.3,1.25-15.56-.45-22.78-1.66-2.6-.44-5.18-.99-7.76-1.55-1.14-.25-2.29-.5-3.45-.61-.3-.03-1.16-.16-.89-.02,5.15,2.64,14.82,1.89,20.18,1.03,5.11-.82,17.34.6,24.17-7.12"/>
    <path class="cls-18" d="M310.5,674.15c1.56,1.27,9.26,3.25,12.03,3,5.87-.54,31.32.45,33.35-7.98.05-.19-3.81,1.04-3.96,1.1-2.5,1.08-5.04,2-7.63,2.81-7.88,2.45-18.93,3.91-27.03,1.62-.54-.16-7.21-2.08-7.23-2.32-.01-.25,2.11-.11,2.23-.1,3.43.05,6.86-.22,10.3-.2,9,.05,16.34-.81,24.68-3.83,1.21-.44,6.74-2.29,7.14-3.95.01-.04-1.28.56-1.33.59-1.74.96-3.59,2.62-5.34,3.55-3.95,2.09-8.63,2.06-13.01,2.8-5.32.9-10.76.58-16.05-.46-.28-.06-8.92-3.96-8.85-3.5,1.58,10.22,32.64,9.76,38.58,8.44,3.39-.76,7.2-2.34,7.12-7.1-.03-2.3-7.25,3.52-10.72,4.37-7.46,1.85-16.13.62-23.69-.17-2.72-.29-5.43-.69-8.14-1.11-1.19-.18-2.39-.38-3.6-.41-.31,0-1.21-.09-.93.04,5.52,2.46,15.47.97,20.95-.32,5.22-1.23,18.15-1.13,24.64-9.87"/>
    <path class="cls-1" d="M460.21,646.38c-.04.14,4.54,3.52,6.44,3.43,3.1-.15,16.42,1.96,17.89-3.22.04-.12-2.05.45-2.13.48-1.36.55-2.74.99-4.14,1.36-4.26,1.12-9.65.72-13.79-1.15-.28-.13-4.17-.97-4.16-1.13,0-.16,1.11.05,1.17.05,1.8.22,3.61.23,5.42.43,4.72.52,8.62.37,13.14-1.08.66-.21,4.13-1.31,4.42-2.33.01-.02-1.18.52-1.21.54-.95.51-2,1.45-2.97,1.94-2.17,1.1-4.63.83-6.97,1.06-2.83.28-5.67-.21-8.4-1.15-.15-.05-3.57-2.75-3.55-2.46.33,6.5,15.73,7.67,18.92,7.16,1.81-.29,4.47-1.88,4.66-4.88.09-1.45-4.56,2.63-6.42,2.98-4.01.76-8.5-.48-12.43-1.38-1.41-.32-2.82-.72-4.22-1.13-.62-.18-1.24-.37-1.87-.45-.16-.02-.63-.12-.49-.02,2.78,1.84,8.07,1.44,11.01.92,2.81-.5,9.48-.05,13.32-5.19"/>
    <path class="cls-19" d="M441.84,700.48c-.41-.02-.13-.01.18-.01,4.61,0,9.19-.3,13.8-.38,9.14-.15,18.41-.12,27.51.19,17.22.58,33.71,1.48,51.16,1.48,11.12,0,21.79-1.04,33.16-.84"/>
    <path class="cls-19" d="M669.85,707.82c19.46-1,59.39,3.28,68.52,3.3,32.81.09,67.17-1.43,93.16-3.12"/>
    <path class="cls-19" d="M564.91,757.38c5.8,2.46,34.88-.33,50.32.59,43.27,2.58,82.68,5.46,117.93,2.19"/>
    <path class="cls-19" d="M647.14,848.08c-.43.45,4.17-.26,4.3-.29,3.76-.59,7.56-1.06,11.38-1.4,8.68-.76,17.27-.77,25.99-.84,25.6-.19,52.07,2.31,77.5.42"/>
    <path class="cls-19" d="M327.34,830.34c-.31.62,31.16-2.18,45.04-1.95,32.69.53,75.51,4.32,107.91,2.47"/>
    <path class="cls-19" d="M428.23,883.29c21.96-.87,50.62-5.16,70.78-2.56,22.7,2.93,55.13,4.07,92.75,4.07"/>
    <path class="cls-19" d="M716.37,800.59c24.57-3.65,67.94.13,89.65-1.02"/>
    <path class="cls-19" d="M739.74,874.69c10.51-2.2,39.98.52,51.72.03,16.81-.71,30.71-5.9,33.77-5.3"/>
    <path class="cls-19" d="M597.5,819.71c.81-.05,23.28-.05,25.89-.06"/>
    <path class="cls-19" d="M360.19,902.55c-3.97.33,3.37-.61,4.98-.7,11.32-.64,22.6-.22,34.08.29"/>
    <path class="cls-19" d="M449.82,778.67c-1.37-.13,2.9.18,4.36.27,5.42.3,10.68.46,16.03.62,11.96.36,23.59.7,35.73,1.26"/>
    <path class="cls-19" d="M344.03,745.79c2.27-2.67,38.39-1.72,42.81-1.46"/>
    <path class="cls-19" d="M320.72,573.97c1.48,1.56,24.92,1,27.79.86"/>
    <path class="cls-19" d="M811.77,610.79c1.48-1.56,24.92-1,27.79-.86"/>
    <path class="cls-19" d="M326.83,639.19c.96-.91,16.18-.59,18.04-.5"/>
    <path class="cls-19" d="M817.88,545.57c.96.91,16.18.59,18.04.5"/>
    <path class="cls-32" d="M320.7,446.03l.42,66.56,510.63-2.92-.43-66.56-510.62,2.92"/>
    <path class="cls-19" d="M421.27,491.13c1.85.02-3.94-.08-5.92-.13-7.34-.17-14.46-.4-21.69-.63-16.18-.52-31.91-1.04-48.34-1.47"/>
    <path class="cls-19" d="M701.93,485.2c-.41-.04-.13-.03.18-.03,4.61,0,9.19-.76,13.8-.94,9.14-.37,18.41-.29,27.51.47,17.22,1.44,33.71,3.7,51.16,3.7,11.12,0,21.79-2.59,33.16-2.09"/>
    <path class="cls-21" d="M406.87,251.37c-61.65,26.97-199.65,213.21-176.95,226.58,20.57,12.13,82.48-8.81,101.34-7.84,41.48,2.14,60.92,20.14,104.02,25.36,22.99,2.79,74.68-24.54,104.75-23.51,34.41,1.18,70.52,41.83,109.07,32.3,22.22-5.48,30.75-45.36,55.63-46.27,22.18-.81,38.82,24.38,59.34,27.46,32.17,4.83,49.64-26.64,82.46-28.25,54.9-2.7,63.05,29.79,92.69,14.55,22.04-11.34-138.73-191.67-165.37-208.44-100.15-63.03-302.6-40.12-366.98-11.95"/>
    <path class="cls-2" d="M347.93,458.24c26.64-50.75,59.76-106.35,79.29-139.66"/>
    <path class="cls-2" d="M509.29,465.62c9.74-58.33,17.2-101.16,22.54-137.58"/>
    <path class="cls-2" d="M589.82,303.89c13.29,41.23,42.35,119.09,58.34,166.12"/>
    <path class="cls-2" d="M727.28,322.15c18.35,42.76,44.84,86.35,72.2,132.75"/>
    <path class="cls-34" d="M408.81,176.92c-57.47,26.97-193.78,229.53-172.63,242.9,19.18,12.13,82.56-20.57,100.13-19.6,38.67,2.14,55.31,21.82,95.48,27.04,21.42,2.78,71.76-24.54,99.79-23.51,32.07,1.18,67.06,35.59,103,26.07,20.71-5.49,29.34-35.28,52.52-36.19,20.68-.82,35.51,14.3,54.64,17.38,29.99,4.83,38.36-23.59,56.73-21.05,23.03,3.18,97.88,39.15,125.5,23.91,20.55-11.34-136.81-218.32-161.65-235.08-93.35-63.03-293.51-30.04-353.51-1.87"/>
    <path class="cls-5" d="M354.87,367.07c30.23-56.58,64.32-113.05,82.38-139.66"/>
    <path class="cls-5" d="M516.78,375.04c-1.35-8.78,15-104.38,20.55-140.8"/>
    <path class="cls-5" d="M607.44,213.89c12.62,35.71,38.2,96.89,63.8,157.37"/>
    <path class="cls-5" d="M682.98,235.89c14.39,20.18,67.07,83.53,89.82,119.44"/>
    <path class="cls-37" d="M413.4,125.53c-56.99,23.21-183.77,203.25-162.8,214.76,19.03,10.43,76.45-26.8,93.88-25.96,38.34,1.84,49.9,23.73,89.74,28.22,21.25,2.39,73.14-22.71,100.94-21.82,31.8,1.01,66.51,30.62,102.15,22.43,20.54-4.72,29.09-30.35,52.08-31.14,20.51-.7,35.22,12.31,54.19,14.96,29.74,4.15,38.04-20.3,56.26-18.12,22.84,2.74,82.73,39.79,110.13,26.67,20.37-9.76-132.72-185.28-157.35-199.71-92.58-54.24-279.71-34.53-339.22-10.29"/>
    <path class="cls-4" d="M348.64,281.6c26.8-57.75,50.49-92.66,81.65-139.66"/>
    <path class="cls-4" d="M514.81,281.69c3.97-38.9,9.09-84.02,14.69-132.92"/>
    <path class="cls-4" d="M604.99,141.53c7.13,24.52,36.33,93.44,57.24,144.26"/>
    <path class="cls-4" d="M704.7,150.77c11.46,21.13,51.35,94.27,72.5,130.47"/>
    <path class="cls-19" d="M504.35,496.01c-1.35-.27,2.89.33,4.35.46,5.4.49,10.68.61,16.03.72,11.98.25,23.63.49,35.75,1.3"/>
    <path class="cls-3" d="M749.73,520.26c-16.09,3.74-8.43,19.63-15.76,51.3-10.13,43.71,10.1,59.73,39.46,49.58,34.46-11.91,11.79-26.79,12.62-50.88,1.09-31.82-4.77-57.35-36.32-50Z"/>
    <path class="cls-48" d="M790.76,561.17c5.84,6.04-7.7,13-4.81,1.26-6.29,8.25-11.46-4.55-2.99-4.53-10.21-3.11,1.74-13.08,3.93-4.1,1.65-11.25,12.07-.61,4.28,2.62,9.77-4.71,7.51,10.83-.41,4.75"/>
    <path class="cls-45" d="M791.61,555.55l-3.74,2.52,4.43.3-4.45-.09,3.32,2.84-3.45-2.67.94,4.29-1.14-4.23-1.8,4.1,1.61-4.17-3.85,2.35,3.74-2.52-4.42-.3,4.44.09-3.32-2.83,3.45,2.67-.94-4.29,1.14,4.23,1.8-4.1-1.61,4.17,3.85-2.35"/>
    <path class="cls-45" d="M791.63,553.25l-3.77,4.71,5.83-1.29-5.76,1.59,5.44,2.43-5.56-2.14,2.97,5.22-3.23-5.06-.64,6.02.34-6.04-4,4.51,3.77-4.71-5.84,1.29,5.77-1.59-5.44-2.43,5.55,2.15-2.96-5.22,3.22,5.06.64-6.02-.33,6.04,4-4.51"/>
    <path class="cls-48" d="M767.36,517.59c6.74,3.39-2.67,13.3-3.71,2.49-2.88,8.86-11.06-.45-3.87-2.95-9.58.4-2.41-11.59,2.11-4.63-1.94-10.02,10.04-4.09,4.4.95,6.88-6.89,9.58,6.95,1.07,4.14"/>
    <path class="cls-45" d="M766.41,512.59l-2.42,3.25,3.84-1.06-3.79,1.24,3.64,1.42-3.71-1.24,2.07,3.35-2.22-3.25-.31,4.01.12-4.01-2.56,3.13,2.42-3.25-3.83,1.06,3.79-1.24-3.65-1.42,3.71,1.24-2.06-3.35,2.22,3.24.3-4-.12,4.01,2.56-3.13"/>
    <path class="cls-45" d="M765.74,510.63l-1.79,5.11,4.55-2.82-4.41,3.05,5.33.45-5.34-.17,4.06,3.54-4.23-3.32,1.24,5.29-1.51-5.21-2.05,5.01,1.8-5.11-4.56,2.82,4.41-3.05-5.33-.45,5.34.17-4.06-3.54,4.24,3.32-1.25-5.28,1.51,5.21,2.05-5.01"/>
    <path class="cls-48" d="M785.63,531.46c6.84,4.88-5.22,14.18-4.5,2.11-4.69,9.25-12.1-2.39-3.77-3.91-10.61-1.21-.66-13.18,3.12-4.74-.41-11.36,11.76-2.79,4.69,1.8,8.75-6.41,9.35,9.29.46,4.74"/>
    <path class="cls-45" d="M785.44,525.79l-3.21,3.16,4.4-.51-4.38.71,3.77,2.18-3.88-2,1.7,4.04-1.88-3.95-1.03,4.36.82-4.39-3.35,3.01,3.22-3.16-4.41.51,4.39-.71-3.77-2.19,3.87,2-1.7-4.04,1.89,3.95,1.02-4.36-.82,4.39,3.35-3.01"/>
    <path class="cls-45" d="M785.04,523.52l-2.85,5.32,5.51-2.32-5.38,2.61,5.78,1.4-5.85-1.1,3.87,4.59-4.09-4.39.46,6.03-.77-6-3.11,5.16,2.85-5.32-5.5,2.32,5.38-2.61-5.79-1.41,5.85,1.1-3.87-4.59,4.1,4.39-.47-6.03.77,6,3.11-5.16"/>
    <path class="cls-48" d="M740.31,527.8c-7.46,3.88,3.18,14.77,4.16,2.72,3.35,9.82,12.31-.68,4.27-3.34,10.68.29,2.51-12.96-2.42-5.13,2-11.2-11.25-4.41-4.89,1.12-7.77-7.57-10.56,7.89-1.12,4.63"/>
    <path class="cls-45" d="M741.29,522.2l2.74,3.58-4.29-1.12,4.24,1.32-4.04,1.63,4.12-1.44-2.25,3.77,2.42-3.65.4,4.46-.2-4.47,2.91,3.45-2.75-3.57,4.29,1.12-4.24-1.32,4.04-1.63-4.11,1.44,2.24-3.77-2.42,3.65-.4-4.46.2,4.47-2.9-3.45"/>
    <path class="cls-45" d="M742,520.01l2.08,5.66-5.12-3.07,4.96,3.34-5.93.58,5.95-.27-4.47,4.01,4.66-3.77-1.3,5.91,1.6-5.83,2.36,5.55-2.08-5.67,5.12,3.07-4.96-3.33,5.93-.58-5.95.27,4.47-4.01-4.66,3.77,1.3-5.91-1.6,5.83-2.36-5.55"/>
    <path class="cls-48" d="M739.16,556.07c4.6,7.03-10,11.32-4.96.34-7.72,6.92-10.41-6.62-2.09-5.01-9.45-4.97,4.16-12.52,4.62-3.29,3.74-10.74,11.98,1.66,3.72,3.37,10.48-2.79,5.35,12.05-1.29,4.59"/>
    <path class="cls-45" d="M741.05,550.71l-4.15,1.78,4.29,1.12-4.34-.92,2.72,3.4-2.89-3.27.12,4.38-.32-4.37-2.54,3.69,2.36-3.8-4.21,1.59,4.14-1.78-4.29-1.12,4.34.92-2.72-3.4,2.89,3.27-.12-4.39.32,4.37,2.54-3.69-2.36,3.8,4.22-1.59"/>
    <path class="cls-45" d="M741.49,548.46l-4.58,3.92,5.97-.17-5.96.48,4.89,3.41-5.06-3.15,1.94,5.68-2.22-5.57-1.76,5.79,1.46-5.87-4.77,3.68,4.58-3.92-5.97.17,5.96-.48-4.88-3.41,5.05,3.15-1.94-5.68,2.23,5.57,1.75-5.79-1.46,5.87,4.77-3.68"/>
    <path class="cls-48" d="M791.87,589.94c5.83,6.04-7.71,13-4.82,1.26-6.29,8.25-11.46-4.55-2.99-4.53-10.21-3.11,1.74-13.08,3.93-4.09,1.66-11.25,12.07-.61,4.28,2.62,9.77-4.71,7.51,10.84-.4,4.75"/>
    <path class="cls-45" d="M792.71,584.32l-3.74,2.52,4.43.3-4.44-.09,3.31,2.83-3.45-2.67.94,4.29-1.14-4.23-1.79,4.1,1.6-4.17-3.84,2.35,3.73-2.52-4.42-.3,4.44.09-3.31-2.83,3.44,2.67-.93-4.29,1.14,4.23,1.79-4.1-1.6,4.17,3.84-2.35"/>
    <path class="cls-45" d="M792.73,582.02l-3.77,4.71,5.83-1.29-5.76,1.59,5.44,2.43-5.56-2.14,2.97,5.22-3.23-5.06-.63,6.02.33-6.04-4,4.51,3.77-4.71-5.83,1.29,5.76-1.59-5.44-2.43,5.56,2.14-2.97-5.22,3.23,5.06.64-6.02-.34,6.04,4-4.52"/>
    <path class="cls-48" d="M784.23,619.86c1.87,9.75-16.02,7.87-5.57-1.87-11.55,4.09-8.39-11.91-.03-6.41-8.09-9.68,10.17-11.81,6.53-1.51,8.91-10.05,12.32,7.2,2.54,5.35,12.7,1.66.43,15.57-3.47,4.44"/>
    <path class="cls-45" d="M788.7,614.86l-5.33.08,4.18,3.15-4.33-2.96,1.45,4.94-1.68-4.87-1.85,4.84,1.61-4.92-4.43,2.89,4.29-3.09-5.32-.16,5.32-.08-4.18-3.15,4.33,2.96-1.44-4.94,1.68,4.87,1.84-4.84-1.61,4.92,4.43-2.89-4.29,3.09,5.33.16"/>
    <path class="cls-45" d="M790.2,612.59l-6.77,2.22,6.6,2.5-6.72-2.15,3.8,5.92-4.11-5.71-.43,7.08.07-7.09-4.52,5.54,4.24-5.75-6.87,1.88,6.77-2.22-6.6-2.5,6.72,2.16-3.8-5.92,4.1,5.71.44-7.08-.07,7.09,4.51-5.54-4.23,5.75,6.87-1.88"/>
    <path class="cls-48" d="M756.91,624.66c7.05,5.09-5.48,14.66-4.68,2.16-4.9,9.56-12.51-2.54-3.88-4.07-10.98-1.3-.62-13.65,3.26-4.89-.37-11.77,12.19-2.83,4.84,1.89,9.1-6.59,9.64,9.67.46,4.91"/>
    <path class="cls-45" d="M756.74,618.78l-3.35,3.26,4.56-.51-4.54.72,3.9,2.28-4-2.09,1.73,4.2-1.93-4.1-1.08,4.51.87-4.55-3.49,3.1,3.35-3.25-4.56.51,4.54-.72-3.89-2.28,4,2.09-1.74-4.2,1.93,4.1,1.08-4.51-.87,4.55,3.49-3.1"/>
    <path class="cls-45" d="M756.34,616.43l-2.98,5.49,5.71-2.38-5.59,2.67,5.99,1.48-6.05-1.17,3.98,4.78-4.22-4.57.45,6.25-.76-6.21-3.25,5.33,2.98-5.49-5.71,2.38,5.58-2.67-5.99-1.48,6.06,1.17-3.98-4.78,4.21,4.57-.45-6.25.77,6.21,3.25-5.33"/>
    <path class="cls-48" d="M738.4,609.11c8.33,1.09,2.07,14.97-2.98,3.98.21,10.37-11.81,3.58-5.17-1.68-9.92,3.93-6.79-11.31.52-5.65-5.71-9.83,9.07-8,4.98-.62,4.71-9.77,12.63,3.79,2.65,3.96"/>
    <path class="cls-45" d="M735.56,604.19l-1.36,4.3,3.65-2.52-3.53,2.7,4.36.15-4.36.06,3.4,2.77-3.53-2.6,1.15,4.33-1.34-4.27-1.55,4.23,1.36-4.3-3.65,2.52,3.53-2.69-4.35-.15,4.36-.06-3.4-2.77,3.52,2.6-1.15-4.33,1.34,4.27,1.55-4.23"/>
    <path class="cls-45" d="M734.14,602.38l-.02,6.04,3.77-4.64-3.52,4.83,5.76-1.48-5.68,1.78,5.58,2.24-5.68-1.95,3.25,5.11-3.5-4.93-.32,6.02v-6.04s-3.75,4.64-3.75,4.64l3.52-4.83-5.77,1.48,5.69-1.78-5.58-2.23,5.68,1.95-3.25-5.1,3.5,4.93.32-6.02"/>
    <path class="cls-48" d="M735.1,584.39c4.38,7.17-10.35,11.01-4.97.18-7.94,6.68-10.2-6.94-1.93-5.07-9.3-5.26,4.54-12.39,4.72-3.14,4.07-10.62,11.91,2.04,3.61,3.49,10.56-2.47,4.97,12.21-1.43,4.54"/>
    <path class="cls-45" d="M737.15,579.09l-4.2,1.65,4.25,1.25-4.31-1.06,2.62,3.49-2.78-3.36-.03,4.39-.18-4.38-2.65,3.61,2.48-3.72-4.27,1.46,4.2-1.65-4.25-1.25,4.31,1.06-2.62-3.49,2.78,3.36.02-4.39.19,4.38,2.65-3.61-2.48,3.72,4.27-1.46"/>
    <path class="cls-45" d="M737.67,576.85l-4.71,3.78,5.97.02-5.96.29,4.77,3.56-4.95-3.3,1.76,5.74-2.05-5.64-1.93,5.73,1.64-5.82-4.89,3.54,4.71-3.78-5.98-.02,5.97-.29-4.77-3.56,4.95,3.3-1.76-5.74,2.05,5.64,1.93-5.73-1.64,5.82,4.89-3.53"/>
    <path class="cls-49" d="M792.83,571.6c8.83-1.32,6.49,14.69-1.88,4.94,3.25,10.54-11.02,7.11-5.77-.21-9,6.92-10.25-9.57-1.12-5.93-8.71-8.38,6.93-10.82,4.91-2.09,1.95-11.37,14.01.18,3.86,3.28"/>
    <path class="cls-45" d="M788.49,567.4l-.12,4.79,2.98-3.64-2.82,3.79,4.5-1.12-4.44,1.34,4.28,1.83-4.36-1.62,2.44,4.09-2.62-3.96-.34,4.78.13-4.79-2.99,3.64,2.82-3.79-4.5,1.12,4.44-1.33-4.28-1.84,4.36,1.62-2.44-4.09,2.62,3.96.34-4.78"/>
    <path class="cls-45" d="M786.51,565.96l1.75,6.17,2.49-5.84-2.19,5.97,5.46-3.21-5.28,3.48,6.35.65-6.37-.33,4.81,4.27-5.02-4.02,1.44,6.25-1.76-6.17-2.48,5.84,2.18-5.97-5.46,3.21,5.29-3.48-6.35-.65,6.37.33-4.81-4.27,5.01,4.02-1.43-6.25"/>
    <path class="cls-49" d="M789.55,541.34c8.45-2.9,9.05,13.27-.95,5.2,5.11,9.77-9.54,8.99-5.71.84-7.59,8.44-11.81-7.55-2.18-5.62-10.08-6.66,4.85-11.9,4.45-2.94-.14-11.54,13.82-2.36,4.39,2.52"/>
    <path class="cls-45" d="M784.52,538l.75,4.73,2.28-4.12-2.09,4.23,4.22-1.92-4.12,2.12,4.54,1.03-4.58-.81,3.14,3.58-3.3-3.43.54,4.76-.75-4.73-2.28,4.12,2.09-4.23-4.22,1.92,4.12-2.12-4.54-1.03,4.58.81-3.14-3.58,3.3,3.43-.54-4.76"/>
    <path class="cls-45" d="M782.31,536.95l2.85,5.75,1.38-6.2-1.06,6.27,4.79-4.14-4.57,4.38,6.36-.51-6.32.83,5.5,3.32-5.66-3.04,2.55,5.88-2.85-5.75-1.38,6.2,1.06-6.27-4.78,4.14,4.56-4.39-6.36.51,6.32-.83-5.5-3.32,5.66,3.04-2.55-5.88"/>
    <path class="cls-49" d="M735.04,537.03c-7.96-4.05-10.82,11.87.22,5.29-6.43,8.95,8.19,10.23,5.53,1.63,6.34,9.41,12.76-5.83,2.94-5.27,10.92-5.18-3.13-12.46-3.99-3.54,1.75-11.4-13.34-4.27-4.7,1.88"/>
    <path class="cls-45" d="M740.49,534.42l-1.4,4.59-1.68-4.41,1.47,4.48-3.91-2.49,3.79,2.68-4.65.38,4.66-.16-3.61,3.1,3.74-2.93-1.2,4.64,1.41-4.58,1.67,4.4-1.47-4.48,3.91,2.49-3.79-2.67,4.65-.38-4.65.16,3.6-3.1-3.74,2.93,1.2-4.64"/>
    <path class="cls-45" d="M742.82,533.69l-3.62,5.29-.5-6.33.18,6.35-4.16-4.77,3.9,4.98-6.22-1.39,6.14,1.71-5.92,2.52,6.04-2.21-3.35,5.46,3.62-5.29.51,6.33-.18-6.35,4.16,4.77-3.91-4.98,6.23,1.39-6.14-1.71,5.91-2.52-6.03,2.21,3.34-5.46"/>
    <path class="cls-49" d="M750.81,518.52c-6.21-3.16-8.44,9.26.17,4.12-5.02,6.99,6.39,7.98,4.32,1.27,4.94,7.35,9.95-4.55,2.29-4.11,8.52-4.04-2.44-9.72-3.11-2.76,1.36-8.89-10.41-3.33-3.67,1.47"/>
    <path class="cls-45" d="M755.06,516.49l-1.09,3.57-1.31-3.44,1.15,3.5-3.05-1.94,2.95,2.09-3.62.3,3.63-.12-2.82,2.42,2.92-2.29-.93,3.62,1.09-3.57,1.31,3.43-1.15-3.5,3.05,1.94-2.95-2.09,3.62-.3-3.63.12,2.82-2.42-2.92,2.29.93-3.62"/>
    <path class="cls-45" d="M756.88,515.92l-2.82,4.13-.39-4.93.13,4.95-3.24-3.72,3.05,3.89-4.86-1.09,4.79,1.33-4.62,1.96,4.71-1.73-2.61,4.27,2.83-4.13.39,4.94-.14-4.95,3.25,3.72-3.05-3.89,4.86,1.09-4.79-1.33,4.61-1.96-4.71,1.73,2.61-4.27"/>
    <path class="cls-49" d="M770.41,520.64c-6.75-3.44-9.17,10.06.18,4.48-5.45,7.59,6.94,8.68,4.69,1.38,5.37,7.98,10.81-4.94,2.49-4.46,9.26-4.39-2.65-10.55-3.38-3,1.48-9.66-11.31-3.62-3.98,1.6"/>
    <path class="cls-45" d="M775.02,518.43l-1.19,3.88-1.42-3.73,1.25,3.8-3.31-2.11,3.21,2.27-3.94.32,3.94-.13-3.06,2.63,3.18-2.48-1.02,3.93,1.19-3.88,1.42,3.73-1.24-3.8,3.31,2.11-3.21-2.27,3.94-.32-3.95.14,3.06-2.63-3.17,2.48,1.01-3.93"/>
    <path class="cls-45" d="M777,517.81l-3.07,4.49-.42-5.36.15,5.38-3.53-4.04,3.31,4.22-5.28-1.18,5.21,1.45-5.01,2.13,5.11-1.88-2.83,4.63,3.06-4.48.43,5.36-.15-5.38,3.53,4.04-3.31-4.22,5.27,1.18-5.2-1.45,5.01-2.13-5.11,1.88,2.83-4.63"/>
    <path class="cls-49" d="M740.6,565.96c8.9.63,3.14,15.75-2.92,4.41.89,10.99-12.29,4.54-5.58-1.46-10.28,4.8-7.92-11.57.2-6.03-6.68-10.07,9.12-9.05,5.24-.97,4.39-10.66,13.64,3.23,3.06,4.04"/>
    <path class="cls-45" d="M737.28,560.91l-1.17,4.65,3.71-2.91-3.57,3.08,4.63-.11-4.63.33,3.79,2.73-3.91-2.54,1.49,4.52-1.69-4.44-1.37,4.59,1.16-4.65-3.71,2.91,3.58-3.08-4.63.11,4.62-.34-3.78-2.72,3.9,2.54-1.49-4.52,1.69,4.44,1.38-4.59"/>
    <path class="cls-45" d="M735.65,559.08l.37,6.4,3.7-5.16-3.43,5.35,6.03-1.94-5.92,2.25,6.05,2.02-6.14-1.71,3.77,5.21-4.03-5.01.05,6.41-.37-6.4-3.7,5.16,3.43-5.35-6.03,1.94,5.92-2.25-6.05-2.02,6.14,1.71-3.77-5.21,4.03,5.01-.05-6.41"/>
    <path class="cls-49" d="M791.81,596.16c2.21-8.66,16.06-.3,3.83,3.65,10.97,1.08,2.29,12.91-2.43,5.23,2.9,10.97-12.79,5.74-5.89-1.26-11.1,4.79-7.29-10.58-.02-5.33-9.73-6.21,5.59-12.85,4.51-2.29"/>
    <path class="cls-45" d="M786.26,598.54l4.37,1.97-2.2-4.17,2.4,4.07.7-4.58-.48,4.61,3.35-3.24-3.19,3.39,4.71-.66-4.67.88,4.27,2.16-4.37-1.97,2.21,4.17-2.4-4.07-.71,4.58.49-4.61-3.35,3.24,3.19-3.39-4.71.66,4.67-.88-4.28-2.16"/>
    <path class="cls-45" d="M784.17,599.8l6.37.77-4.43-4.55,4.66,4.32-.84-6.28,1.16,6.22,3.06-5.6-2.77,5.74,5.8-2.78-5.65,3.07,6.32,1.09-6.37-.77,4.42,4.55-4.65-4.32.84,6.27-1.16-6.22-3.07,5.6,2.77-5.75-5.79,2.79,5.64-3.07-6.31-1.09"/>
    <path class="cls-49" d="M746.05,615.96c6.16-4.37,10.51,8.61.46,4.45,6.48,6.71-5.6,9.57-4.43,2.04-4.15,8.66-11.4-3.31-3.11-4.04-9.78-3,1.1-10.82,2.91-3.45-2.87-9.33,10.65-5.22,4.17,1"/>
    <path class="cls-45" d="M741.17,614.45l1.73,3.66.87-3.89-.69,3.93,2.97-2.56-2.84,2.7,3.93-.25-3.91.44,3.4,2.15-3.49-1.99,1.57,3.74-1.74-3.66-.86,3.89.68-3.93-2.96,2.56,2.84-2.7-3.94.25,3.92-.44-3.41-2.15,3.49,1.99-1.56-3.73"/>
    <path class="cls-45" d="M739.12,614.12l3.68,3.99-.35-5.36.63,5.34,2.89-4.5-2.66,4.65,5.05-1.93-4.94,2.19,5.26,1.38-5.32-1.11,3.47,4.16-3.68-3.99.36,5.36-.63-5.34-2.9,4.51,2.66-4.65-5.04,1.93,4.93-2.18-5.26-1.38,5.32,1.11-3.47-4.16"/>
    <path class="cls-49" d="M772.28,624.49c7.74,5.03-5.04,15.82-4.85,2.54-4.69,10.39-13.39-2.04-4.32-4.11-11.7-.8-1.37-14.44,3.19-5.36-1-12.46,12.78-3.63,5.23,1.75,9.31-7.46,10.73,9.74.75,5.18"/>
    <path class="cls-45" d="M771.79,618.26l-3.37,3.62,4.81-.77-4.78,1,4.25,2.21-4.36-2.01,2.07,4.36-2.27-4.25-.91,4.84.69-4.87-3.54,3.47,3.38-3.62-4.81.77,4.78-1-4.25-2.21,4.35,2.01-2.06-4.36,2.26,4.25.92-4.83-.69,4.86,3.53-3.47"/>
    <path class="cls-45" d="M771.24,615.79l-2.87,5.98,5.93-2.82-5.78,3.12,6.43,1.26-6.48-.92,4.46,4.86-4.7-4.62.8,6.6-1.13-6.55-3.17,5.82,2.87-5.98-5.93,2.82,5.78-3.12-6.42-1.26,6.48.92-4.47-4.86,4.71,4.62-.81-6.6,1.14,6.55,3.16-5.82"/>
    <path class="cls-49" d="M735.63,591.08c4.04-7.96,15.74,3.21,2.94,4.39,10.48,3.44-.57,13.1-3.5,4.58.43,11.34-13.74,2.82-5.48-2.52-11.88,2.25-4.82-11.91,1.13-5.21-8.13-8.17,8.26-11.32,4.91-1.25"/>
    <path class="cls-45" d="M729.7,592.19l3.83,2.87-1.24-4.54,1.45,4.49,1.69-4.31-1.48,4.39,3.98-2.43-3.85,2.61,4.74.38-4.75-.16,3.7,3.04-3.83-2.88,1.24,4.55-1.46-4.49-1.69,4.31,1.49-4.39-3.98,2.43,3.85-2.62-4.74-.38,4.75.16-3.7-3.04"/>
    <path class="cls-45" d="M727.38,592.97l6.04,2.14-3.32-5.41,3.6,5.23.55-6.31-.22,6.33,4.21-4.8-3.96,5,6.26-1.45-6.18,1.77,5.93,2.45-6.05-2.14,3.33,5.41-3.6-5.23-.55,6.31.22-6.32-4.21,4.8,3.95-5-6.26,1.46,6.18-1.77-5.92-2.44"/>
    <path class="cls-24" d="M857.61,830.94c19.19-18.59,48.3-19.05,58.07,3.27-1.06-21.6-42.15-44.51-58.07-3.27"/>
    <path class="cls-26" d="M859.11,837.03c-13.84-22.85-41.88-30.67-57.01-11.55,6.52-20.62,52.08-32.36,57.01,11.55"/>
    <path class="cls-36" d="M857.63,830.83c20.92-25.24,51.49-27.04,60.84,1.92-.23-28.37-42.43-56.8-60.84-1.92"/>
    <path class="cls-36" d="M854.74,832.22c20.99-10.04,44.43-2.08,45.48,19.39,5.7-18.38-20.24-49.31-45.48-19.39"/>
    <path class="cls-27" d="M857.36,832.51c-14.04-11.23-34.07-11.53-39.77,1.94-.26-13.04,26.94-26.83,39.77-1.94"/>
    <path class="cls-42" d="M857.6,830.96c14.81-38.43,45.37-49.36,62.21-14.66-7.44-36.51-57.46-61.29-62.21,14.66"/>
    <path class="cls-36" d="M857.65,830.8c5.28-53.7,33.51-76.41,59.39-36.41-16.8-44.97-73.84-62.83-59.39,36.41"/>
    <path class="cls-28" d="M857.83,829.52c-7.17-55.63-32.54-80.17-52.83-39.91,12.24-45.75,60.39-61.94,52.83,39.91"/>
    <path class="cls-33" d="M857.61,830.94c-7.8-25.64-33.01-40.29-52.33-25.57,11.36-18.36,58.32-18.26,52.33,25.57"/>
    <path class="cls-11" d="M861.47,791.63c5.42-34.06,29.2-29.09,38.82-18.88"/>
    <path class="cls-11" d="M848.51,777.83c-2.16-5.56-5.28-15.31-11.15-18.04-5.8-2.7-16.82,4.34-21.69,10.46"/>
    <path class="cls-11" d="M867.1,806.22c5.73-16.83,20.41-24.8,37.1-12.1"/>
    <path class="cls-11" d="M826,797.41c7.12-2.87,23.04,5.67,27.77,16.91"/>
    <path class="cls-11" d="M826.66,811.82c4.87-2.41,18.25-.14,20.52,6.1"/>
    <path class="cls-11" d="M829.06,823.05c7.08-3.54,16.78-.38,17.94,1.21"/>
    <path class="cls-11" d="M865.33,825.91c5.13-3.77,16.66-2,20.73,1.05"/>
    <path class="cls-11" d="M872,814.34c4.88-8.2,18.22-10.85,25.51-7.63"/>
    <path class="cls-11" d="M883.08,815.18c6.04-1.92,14.49-1.43,20.76,2.86"/>
    <path class="cls-45" d="M857.47,828.49c21.31,3.23,35.16,28.71,30.9,56.87-4.25,28.15-25.01,48.39-46.32,45.16-21.31-3.23-35.16-28.71-30.9-56.86,4.25-28.16,25.01-48.39,46.32-45.16"/>
    <path class="cls-15" d="M828.51,843.07c-1.2,4.59,8.65,6.93,11.34,1.43"/>
    <path class="cls-15" d="M859.36,844.87c-.02,4.05,10.82,7.13,12.26.34"/>
    <path class="cls-15" d="M822,857.96c-1.53,4.09,7.55,9.89,11.32,4.15"/>
    <path class="cls-15" d="M850.8,858.51c-.74,6.55,10.64,7.93,12.81,2.49"/>
    <path class="cls-15" d="M874.32,864.32c-.49,4.45,8.26,3.68,8.7-.28"/>
    <path class="cls-15" d="M814.85,878.24c-.03-.2-.02.17.05.37,1.7,4.87,6.45,6.46,10.82,4.05"/>
    <path class="cls-15" d="M842.7,873.66c-1.2,5.16,10.42,8.79,12.85,1.3"/>
    <path class="cls-15" d="M867.3,887.47c2.12,3.74,11.46,2.84,12.17-3.34"/>
    <path class="cls-15" d="M818.94,894.21c-.92,5.54,13.56,9.54,15.88-.08"/>
    <path class="cls-15" d="M844.75,893.78c.58,3.97,10.29,6.9,14.16.87"/>
    <path class="cls-15" d="M868.88,900.6c.39,5.16,10.54,4.7,10.66-.62"/>
    <path class="cls-15" d="M827.55,910.62c-1.16,2.68,12.45,6.66,14.93-.27"/>
    <path class="cls-15" d="M857.22,910.04c0,2.49,7.06,6,9.06,1.02"/>
    <path class="cls-15" d="M840.95,921.82c1.12,4.03,11.3,6.89,15.05-.71"/>
    <path class="cls-24" d="M759.64,852.79c10.52-20.53,34.18-28.99,48.37-13.46-6.87-17.36-46.82-24.66-48.37,13.46"/>
    <path class="cls-26" d="M762.56,857.36c-17.66-14.82-42.75-13.43-49.81,6.4-.4-18.67,33.58-40.93,49.81-6.4"/>
    <path class="cls-36" d="M759.63,852.7c10.07-26.44,34.57-36.41,50.26-15.34-8.08-23.12-50.47-34.64-50.26,15.34"/>
    <path class="cls-36" d="M757.65,854.64c14.37-14.04,35.73-14.05,42.56,3.21-.44-16.6-30.24-34.68-42.56-3.21"/>
    <path class="cls-27" d="M759.87,854.15c-14.6-5.28-31.05.05-31.96,12.64-3.84-10.58,14.56-29.41,31.96-12.64"/>
    <path class="cls-42" d="M759.64,852.82c1.42-35.52,23.36-52.95,46.77-29.27-16.22-27.77-64-34.12-46.77,29.27"/>
    <path class="cls-36" d="M759.63,852.67c-10.61-45.36,6.16-71.76,38.43-46.26-26.23-32.09-77.81-30.83-38.43,46.26"/>
    <path class="cls-28" d="M759.42,851.57c-21.31-43.48-48.87-56.48-54.27-17.93-2.71-40.8,32.15-67.41,54.27,17.93"/>
    <path class="cls-33" d="M759.64,852.79c-13.5-18.79-38.18-23.76-49.87-6.35,4.17-18.16,42.58-31.13,49.87,6.35"/>
    <path class="cls-10" d="M751.87,819.59c-5.04-29.35,15.78-31.89,26.48-26.22"/>
    <path class="cls-10" d="M737.44,811.92c-3.31-3.95-8.57-11.05-14.13-11.65-5.49-.59-12.54,8.23-14.81,14.58"/>
    <path class="cls-10" d="M760.53,829.95c0-15.34,9.79-25.94,26.95-20.2"/>
    <path class="cls-10" d="M724.49,834.18c5.01-4.32,20.41-1.77,27.39,6.11"/>
    <path class="cls-10" d="M729.03,845.77c3.31-3.33,14.88-5.19,18.47-.72"/>
    <path class="cls-10" d="M734.11,854.28c4.8-4.86,13.61-4.97,15-4"/>
    <path class="cls-10" d="M764.55,846.54c3.15-4.51,13.06-6.27,17.23-4.9"/>
    <path class="cls-10" d="M766.78,835.23c1.72-8.05,11.88-13.93,18.74-13.32"/>
    <path class="cls-10" d="M776.08,832.84c4.4-3.25,11.44-5.2,17.76-3.43"/>
    <path class="cls-43" d="M758.84,850.84c18.32-3.29,36.72,13.7,41.07,37.89,4.34,24.2-7,46.5-25.31,49.79-18.32,3.29-36.72-13.69-41.07-37.89-4.34-24.2,7-46.5,25.31-49.79"/>
    <path class="cls-16" d="M739.23,870.8c.29,4.09,9,3.26,9.66-1.98"/>
    <path class="cls-16" d="M764.94,863.7c1.11,3.32,10.82,2.82,10.11-3.13"/>
    <path class="cls-16" d="M738.05,884.78c-.12,3.77,8.91,5.99,10.4.25"/>
    <path class="cls-16" d="M761.74,877.22c1.21,5.56,10.9,3.53,11.16-1.52"/>
    <path class="cls-16" d="M782.57,875.44c.84,3.78,7.78.71,7.04-2.64"/>
    <path class="cls-16" d="M737.84,903.34c-.08-.16.02.14.14.29,2.75,3.5,7.07,3.49,9.97.3"/>
    <path class="cls-16" d="M759.32,891.86c.46,4.55,10.97,4.29,10.87-2.51"/>
    <path class="cls-16" d="M783.27,896.31c2.77,2.47,10.16-.87,9.03-6.11"/>
    <path class="cls-16" d="M745.62,915.26c.79,4.79,13.73,4.03,12.96-4.48"/>
    <path class="cls-16" d="M766.59,907.73c1.58,3.09,10.33,2.77,11.82-3.23"/>
    <path class="cls-16" d="M788.21,906.6c1.75,4.11,9.92.91,8.54-3.47"/>
    <path class="cls-16" d="M757.22,926.27c-.2,2.52,12.03,1.98,12.13-4.37"/>
    <path class="cls-16" d="M781.31,917.56c.69,2.04,7.43,2.94,7.68-1.68"/>
    <path class="cls-16" d="M771.28,931.71c2.04,2.98,11.15,2.49,12.11-4.76"/>
    <path class="cls-46" d="M250.5,830.23c-24.63,11.04-33.4,44.03-19.59,73.63,13.82,29.6,45.04,44.66,69.67,33.62,24.62-11.04,33.4-44.04,19.58-73.63-13.82-29.6-45.03-44.66-69.66-33.62"/>
    <path class="cls-29" d="M263.98,835.05c-2.76,1.06-4.67,2.73-4.27,3.72.4.99,2.96.93,5.72-.13,2.76-1.06,4.67-2.73,4.27-3.72-.4-.99-2.96-.93-5.72.13"/>
    <path class="cls-29" d="M254.39,833.21c-2.12.82-3.6,2.1-3.29,2.86.31.77,2.28.72,4.41-.1,2.12-.82,3.59-2.1,3.29-2.86-.31-.76-2.29-.72-4.41.1"/>
    <path class="cls-29" d="M249.69,839.68c-2.47.89-4.2,2.34-3.86,3.22.33.89,2.61.88,5.08-.01,2.47-.89,4.2-2.34,3.86-3.22-.34-.89-2.62-.88-5.08,0"/>
    <path class="cls-50" d="M300.25,852.44c5.26,4.34,9.53,11.78,12.33,20.12-2.96-4.17-7.85-13.95-12.33-20.12"/>
    <path class="cls-50" d="M292.29,895.98c2.67,3.87,4.08,9.55,4.33,15.54-1.17-3.3-2.53-10.64-4.33-15.54"/>
    <path class="cls-50" d="M235.76,893.99c.74,3.44,3.15,7.18,6.34,10.46-1.22-2.35-4.56-6.93-6.34-10.46"/>
    <path class="cls-50" d="M315.95,903.1c1.32,3.53,1.29,8.2.28,12.86-.25-2.79.15-8.71-.28-12.86"/>
    <path class="cls-50" d="M310.03,916.17c.76,2.51.53,5.75-.37,8.94-.06-1.94.48-6.04.37-8.94"/>
    <path class="cls-50" d="M277.75,930.75c2.15,2.32,5.66,4.07,9.54,5.11-1.99-1.25-6.59-3.21-9.54-5.11"/>
    <path class="cls-50" d="M288.39,840.8c-2.54-2.8-6.72-4.93-11.34-6.21,2.36,1.52,7.84,3.92,11.34,6.21"/>
    <path class="cls-50" d="M277.12,856.45c-1.9-3.79-5.24-7.85-9.03-11.38,1.86,2.57,6.27,7.54,9.03,11.38"/>
    <path class="cls-50" d="M238.76,865.37c-1.08-2.96-1.01-6.87-.13-10.76.19,2.33-.2,7.29.13,10.76"/>
    <path class="cls-50" d="M254.41,882.21c2.42,8.28,8.4,17.66,15.87,26.18-3.13-5.84-11.27-17.45-15.87-26.18"/>
    <path class="cls-25" d="M414.19,855.23c-24.94-10.32-54.94,5.96-66.96,36.34s-1.53,63.41,23.41,73.72c24.94,10.32,54.95-5.96,66.96-36.34,12.02-30.38,1.53-63.41-23.41-73.72"/>
    <path class="cls-29" d="M419.96,868.33c-2.67-1.27-5.19-1.52-5.64-.55-.45.97,1.36,2.79,4.02,4.07,2.67,1.28,5.2,1.52,5.64.55.45-.97-1.36-2.8-4.02-4.07"/>
    <path class="cls-29" d="M414.7,860.11c-2.05-.98-3.99-1.18-4.34-.43-.34.75,1.05,2.15,3.1,3.14,2.05.98,4,1.17,4.34.42.34-.75-1.05-2.15-3.1-3.13"/>
    <path class="cls-29" d="M406.77,861.13c-2.34-1.18-4.58-1.45-4.99-.59-.42.86,1.15,2.51,3.49,3.69,2.35,1.18,4.58,1.45,5,.59.41-.85-1.16-2.51-3.5-3.69"/>
    <path class="cls-50" d="M432.22,906.64c.46,6.8-2.01,15.02-6.15,22.79,1-5.02,4.75-15.29,6.15-22.79"/>
    <path class="cls-50" d="M395.11,930.76c-.97,4.59-4.14,9.52-8.31,13.82,1.59-3.12,5.98-9.15,8.31-13.82"/>
    <path class="cls-50" d="M357.73,888.31c-1.99,2.9-3.05,7.21-3.25,11.79.88-2.5,1.91-8.07,3.25-11.79"/>
    <path class="cls-50" d="M406.19,952.85c-1.66,3.39-5.08,6.57-9.16,9.04,1.85-2.1,6.44-5.88,9.16-9.04"/>
    <path class="cls-50" d="M392.62,957.52c-1.29,2.28-3.8,4.34-6.74,5.88,1.37-1.38,4.72-3.8,6.74-5.88"/>
    <path class="cls-50" d="M359.85,944.08c-.21,3.15.93,6.91,2.84,10.43-.46-2.3-2.19-6.99-2.84-10.43"/>
    <path class="cls-50" d="M432.54,890.02c.29-3.77-1.03-8.27-3.27-12.51.52,2.76,2.54,8.39,3.27,12.51"/>
    <path class="cls-50" d="M413.43,892.58c1.45-3.98,2.1-9.2,2.07-14.38-.59,3.12-1.17,9.73-2.07,14.38"/>
    <path class="cls-50" d="M380.59,870.83c1.42-2.82,4.3-5.45,7.73-7.48-1.56,1.74-5.43,4.86-7.73,7.48"/>
    <path class="cls-50" d="M379.1,893.77c-4.35,7.44-7.06,18.23-8.12,29.52,2.09-6.29,4.93-20.18,8.12-29.52"/>
    <path class="cls-52" d="M532.73,595.61c-1.61.03-23.08.14-26.16.16-4.41.03-1.63,2.34-.87,3.65,2.93,5.07-4.69,15.53-6.34,22.9-1.9,8.5,4.29,16.99,19.33,16.33,0,0,.11,35.34.11,35.34l-12.68,2.62,28.94-.26-13.11-2.48-.32-35.17c13.96-1.54,20.62-7.76,19.44-15.93-1-6.95-10.47-17.65-8.1-23.06.96-2.19,3.39-4.16-.24-4.1"/>
    <path class="cls-54" d="M486.14,580.2l20.78-2.91s.15.36.21.55c4.92,14.25,12.91,43.49,12.91,43.49l-2.11.81-12.46-42-19.1,2.66-.23-2.6"/>
    <path class="cls-47" d="M504.36,612.43c-4.96,8.03-10.74,26.62,16.19,25.41,25.02-1.12,21.42-19.17,14.2-25.81l-30.39.39"/>
    <path class="cls-14" d="M531.46,586.88l-4.78,27.22"/>
    <path class="cls-53" d="M549.87,591.29c-1.94-1.29-4.17-2.09-5.7-.35-.78-2.04-3.97-2.58-5.18-.45-.89-1.52-3.8-3.09-6.63-.57.09-1.82-3.84-2.67-5.37-.46-.41-1.89-3.49-2.64-5.66-.58-1.95-2.6-4.36-1.64-6.95-.64l19.73-17.76,15.76,20.82"/>
    <path class="cls-7" d="M521.36,588.69l12.69-18.03"/>
    <path class="cls-7" d="M526.99,589.38l7.16-18.74"/>
    <path class="cls-7" d="M532.47,589.69l1.68-19.01"/>
    <path class="cls-7" d="M538.99,590.34l-4.86-19.52"/>
    <path class="cls-7" d="M544.27,590.78l-10.15-20.29"/>
    <path class="cls-30" d="M504.96,624.02c.39-.01.71.31.71.73s-.32.77-.7.79c-.39.02-.7-.31-.71-.73,0-.42.32-.77.7-.79"/>
    <path class="cls-30" d="M503.55,626.78c.27-.01.49.22.49.51s-.22.54-.49.55c-.27.01-.49-.21-.49-.51s.22-.54.49-.55"/>
    <path class="cls-30" d="M503.39,619.99c.39-.02.7.31.7.73s-.31.77-.7.79-.7-.31-.7-.73.31-.77.7-.79"/>
    <path class="cls-30" d="M522.08,626.98c.53-.02.97.43.97,1s-.44,1.06-.97,1.08c-.53.02-.96-.43-.96-1s.43-1.06.96-1.08"/>
    <path class="cls-30" d="M520.13,630.78c.37-.02.67.3.67.7,0,.4-.3.73-.67.75-.36.02-.66-.3-.66-.7s.3-.74.66-.75"/>
    <path class="cls-30" d="M515.84,623.41c.53-.02.97.43.97,1s-.44,1.06-.97,1.09c-.53.02-.96-.43-.96-1.01s.43-1.06.96-1.08"/>
    <path class="cls-30" d="M535.35,620.39c.39-.02.7.29.7.67s-.31.71-.7.72c-.38.02-.7-.28-.7-.67s.32-.71.7-.72"/>
    <path class="cls-30" d="M533.94,622.93c.26-.01.48.2.48.46s-.21.5-.48.5c-.27.01-.49-.2-.49-.46s.22-.49.49-.5"/>
    <path class="cls-30" d="M533.78,616.7c.38-.02.7.29.7.67s-.31.71-.7.72c-.39.02-.7-.28-.7-.67s.31-.71.7-.72"/>
    <path class="cls-30" d="M520.81,614.07c.27-.01.49.21.49.51s-.22.54-.49.55-.49-.22-.49-.51.22-.54.49-.55"/>
    <path class="cls-49" d="M800.13,920.61c-28.79-18.55-45.87,41.1-1.23,20.24-27.98,31.68,27.29,42.22,20.49,8.37,20.53,38.38,50.92-17.3,13.26-18.94,43.67-15.54-7.14-48.75-13.86-15.04,11.09-42.82-49.27-21.47-18.66,5.37"/>
    <path class="cls-45" d="M821.91,912.78l-7.12,16.94-4.69-17.45,3.88,17.68-13.95-11,13.42,11.67-17.88-.35,17.82,1.2-14.97,10.43,15.41-9.73-6.35,17.23,7.12-16.94,4.69,17.45-3.89-17.68,13.95,11-13.41-11.67,17.87.35-17.81-1.2,14.97-10.44-15.41,9.73,6.35-17.23"/>
    <path class="cls-45" d="M831.11,910.88l-15.86,18.8.52-24.34-1.77,24.3-14.03-19.82,12.98,20.52-23.23-7.73,22.78,8.89-23.54,7.32,23.88-6.12-14.88,19.56,15.86-18.8-.52,24.34,1.77-24.3,14.03,19.82-12.98-20.52,23.22,7.73-22.77-8.89,23.54-7.32-23.88,6.12,14.88-19.56"/>
    <path class="cls-49" d="M311.76,927.3c-24.31-15.66-38.73,34.71-1.03,17.1-23.63,26.76,23.04,35.66,17.3,7.07,17.34,32.41,43.01-14.61,11.2-16,36.87-13.12-6.03-41.17-11.7-12.7,9.36-36.16-41.61-18.13-15.77,4.53"/>
    <path class="cls-45" d="M330.16,920.69l-6.01,14.31-3.97-14.74,3.29,14.93-11.78-9.29,11.32,9.85-15.09-.29,15.04,1.01-12.64,8.81,13.01-8.21-5.36,14.55,6.01-14.3,3.97,14.73-3.28-14.93,11.78,9.29-11.33-9.86,15.09.3-15.04-1.01,12.64-8.81-13.01,8.22,5.36-14.56"/>
    <path class="cls-45" d="M337.93,919.09l-13.39,15.88.44-20.55-1.5,20.52-11.85-16.74,10.96,17.32-19.61-6.52,19.24,7.51-19.89,6.18,20.17-5.17-12.57,16.52,13.4-15.88-.45,20.55,1.5-20.52,11.85,16.73-10.96-17.32,19.61,6.52-19.23-7.51,19.88-6.18-20.16,5.17,12.56-16.52"/>
  </g>
</svg>