<svg id="Layer_2" xmlns="http://www.w3.org/2000/svg" viewBox="0 0 1143.48 1104.27">
  <defs>
    <style>
      .cls-1 {
        fill: none;
        stroke: #4c6120;
        stroke-linecap: round;
        stroke-linejoin: round;
        stroke-width: 5.85px;
      }

      .cls-2 {
        fill: #f6f6f6;
      }

      .cls-3 {
        fill: #fff;
      }

      .cls-4 {
        fill: #66b2af;
      }

      .cls-5 {
        fill: #f2b03f;
        fill-rule: evenodd;
      }
    </style>
  </defs>
  <g id="Layer_1-2" data-name="Layer_1">
    <path class="cls-4" d="M580.27,0c-38.88,2.35-82.87,8.97-130.08,23.54-22.48,6.84-46.27,15.91-69.6,26.6-9.26,4.23-34.15,16.87-46.65,23.66-6.48,3.52-11.81,6.47-18.29,9.98-3.52,1.9-3.62,1.59-5.42,2.41.17-.57.7-1.34,1.51-2.25-18.85,11.84-37.53,25.13-56.38,40.13-4.75,3.78-8.96,7.22-12.96,10.52-11.79,11.2-23.2,23.08-34.17,35.63-17.88,20.33-34.37,42.35-49.37,65.72-29.23,45.51-53.49,97.76-69.52,154.36-5.87,20.71-10.91,43.04-14.63,66.8-1.38,9.36-2.56,18.86-3.47,28.5-.19,2.03-.37,4.02-.54,5.97-1.44,16.95-2.26,34.18-2.14,51.72-.22,11.59.39,26.52.45,34.81.01,2.32,0,4.07-.03,5.83,1.4,24.4,4.57,49.13,7.05,66.51,1.95,13.62,3.31,23.2,3.77,28.77.1.36.19.72.28,1.08,3.6,13.22,7.79,26.79,12.52,40.58.08.22,3.16,10.45,2.91,11.54,1.65,4.98,3.31,9.82,4.95,14.42,1.18,3.33-.1.94-1.18-1.5-4.47-10.09-8.96-21.68-13.28-34.07-2.52-7.23-4.89-14.56-7.13-21.98,4.02,15.2,8.58,30.25,13.83,45.03.76,2.13,1.54,4.24,2.32,6.36,6.63,17.42,14.07,34.48,22.34,51.07,7.55,14.77,12.52,24.8,14.05,28.3,11.81,21.15,25.02,41.44,39.54,60.64,40.68,53.88,91.77,99.17,148.93,133.39,36.45,21.81,75.75,39.4,117.72,52.08,9.54,2.88,19.09,5.55,28.61,7.85,4.44,1.26,15.01,3.6,13.36,3.6-12.87.03-47.04-8.26-78.89-19.7-7.05-2.53-14.05-5.23-21.02-8.09,17.62,7.46,35.6,13.99,53.88,19.41,9.83,2.96,19.67,5.52,29.5,7.91.97.23,1.95.51,2.56.7,15.85,3.05,31.85,5.32,47.93,6.76,79.82,7.17,162.05-6.11,237.81-38.08.33-.15.64-.29.97-.45,8.95-4.17,14.74-7.18,24.61-11.19,22.51-11.32,70.94-40.98,94.2-57.14,11.19-7.78,15.33-10.07,15.72-9.4,3.37-2.09,2.81-.4,2.33.47-.45.82-1.2,1.84-1.94,2.86,1.2-1.01,2.42-2.02,3.61-3.04,2.09-1.78,4.07-3.48,6.26-5.34,13.74-11.64,20.45-17.61,23.24-19.43,7.84-8.16,16.87-17.55,23.06-23.43.38-.37.46-.39.78-.69,6.6-8.01,13.07-16.28,19.37-24.88,10.09-13.78,19.78-28.22,28.88-43.42,7.29-12.16,14.13-24.64,20.5-37.39,4.67-9.32,9.11-18.87,13.34-28.6,3.01-6.94,5.16-12.7,8.85-21.47,11.16-26.53,13.89-35.73,12.65-28.47-.58,3.41-1.95,8.28-3.32,12.97,3.33-9.34,6.56-18.84,9.5-28.65,8.38-26.87,14.03-53.95,16.83-57.28,2.88-3.44-3.51,32.87-5.78,44.14-5.81,27.92-13.91,55.19-23.8,81.62,5.12-11.05,9.92-22.26,14.33-33.64,4.08-11.67,7.82-23.53,11.2-35.58,2.25-8.06,6.39-24.55,9.03-35.94,1.09-4.69,2.19-9.25,3.26-14.18,1.54-5.63,3.51-14.5,4.37-16.97.72-2.07.48,1.57.02,6.08,2.92-15.06,5.26-30.23,6.9-45.5,10.88-100.53-6.53-204.32-48.04-295.85-1.46-3.19-2.93-6.39-4.45-9.55-.73-1.54-1.48-3.05-2.22-4.57-10.29-20.94-21.81-41.22-34.59-60.62-4.73-7.16-12.53-17.74-14.64-21.26-1.25-2.11-1.79-3.23-1.71-3.51-1.78-2.81-2.9-4.81-2.21-4.62.86.23,9.08,11.58,13.86,18.26,53.34,74.54,87.73,165.69,99.05,261.07,4.69,40.2,5.16,81,1.1,121.42-4.06,40.57-12.69,80.68-25.42,119.43-.8,3.08-1.6,6.18-2.49,9.32-6.59,23.29-15.16,47.21-25.78,71.4-.62,1.42-1.31,2.82-1.94,4.24.31-.6.64-1.2.96-1.81,2.66-5.13,7.36-14.91,7.87-15.33.61-.52.92-.51.97-.1,1.14-2.01,2.2-3.8,3.23-5.55,16.8-36.2,30.51-75.21,40.31-117.19,2.52-10.8,4.87-21.6,6.8-32.33,1.29-5.13,3.65-18.68,3.65-15.48,0,6.06-2.34,26.08-6.97,48.79-4.87,23.92-10.59,43.29-14.24,54.93-10.13,32.32-23.24,64.11-39.22,94.77-25.92,49.73-59.46,96.49-99.94,137.32-9.98,10.96-20.47,21.64-31.58,31.89-4.53,4.17-9.26,8.33-14.13,12.49,153.09-103.62,244.67-273.75,244.94-455.03-.18-140.06-54.88-275-153.04-377.57,1.08,1.38,2.15,2.71,3.24,4.15,8.02,10.53,11.9,16.81,7.32,12.01-2.84-2.98-8.84-9.93-16.45-18.43.42.68.83,1.38,1.35,2.13-.05-.06-.1-.1-.15-.15,0,.01.04.05.05.07.7,1.14-2.07-1.98-5.19-5.5-5.3-5.59-10.84-11.26-16.64-16.99-15-14.82-30.61-28.63-46.82-41.53-1.63-1.21-3.26-2.42-4.9-3.61,12.41,10.29,24.33,21,35.41,32.33,1.78,1.81,3.37,3.54,4.97,5.27,5.04,4.83,9.59,9.31,12.62,12.67,2.29,2.53,3.97,4.65,5.82,6.87-3.02-2.99-5.42-5.18-8.08-7.62,2.52,3.03,5.03,6.07,7.4,8.98-.8-.76-.99-.77-2.41-2.29-8.85-9.5-22.28-23.53-40.52-39.69-17.63-15.62-32.41-26.64-38.2-30.91-5.41-3.99-10.92-7.86-16.47-11.65C784.88,30.55,683.76,1.64,580.27,0h0ZM513.45,3.09c-.27.03-.54.06-.81.09-39.43,6.32-78.23,17.15-115.35,32.38-.99.45-2.08.92-3.03,1.37-8.4,4.11-16.81,8.49-24.61,12.8,49.04-23.33,95.01-36.41,133.8-44.58,3.4-.71,6.67-1.38,10-2.06ZM391.8,42.38c-7.85,3.31-15.78,6.85-23.81,10.68-7.74,3.66-15.4,7.58-23.01,11.64-2.37,1.65-4.37,3.16-6.05,4.57,1.82-1.06,3.93-2.24,5.92-3.36,6.23-3.5,12.41-6.76,18.55-9.92,9.11-4.67,18.72-9.28,28.4-13.61ZM333.51,67.01c-20.58,11.96-40.35,25.4-59.11,40.22,15.43-11.47,31.06-21.94,46.71-31.39,3.52-2.68,7.75-5.69,12.4-8.83ZM266.02,85.88c-13.49,8.41-26.6,17.38-39.3,26.87-29.44,25.8-55.11,54.07-77.23,83.49,1.63-1.78.6.22,1.22-.17-.3.58-.62,1.19-.89,1.72,8.47-11.27,17.35-22.22,26.6-32.8,13.04-14.42,26.16-27.93,37.81-37.95,5.37-4.62,4.11-2.81.52,1.25,9.85-9.27,18.79-16.98,26.34-23.19,8.69-7.15,17.06-13.52,24.93-19.22ZM193.41,139.53c-2.35,1.97-4.68,3.96-7,5.97-19.34,21.26-37.28,44.17-53.54,68.54,10.77-15.83,21.16-29.41,30.48-40.78,8.79-10.73,18.83-22.1,30.06-33.73ZM151.81,182.56c-.53.69-1.07,1.36-1.59,2.05-.31.41-.61.82-.92,1.23.83-1.1,1.68-2.18,2.51-3.28ZM149.3,185.84c-.67.9-1.34,1.8-2.02,2.7-.98,1.32-1.97,2.64-2.95,3.96-60.46,82.86-100.27,183.11-111.13,288.35-2.43,23.65-3.37,47.4-2.89,71.07,2.48,125.05,44.73,248.92,119.45,346.22,9.6,12.49,19.75,24.5,30.36,36.06.17.17.44.45.62.63-10.73-11.83-21.02-24.11-30.71-36.92-82.43-109.09-124.12-250.91-115.12-389.91.31-4.64.99-14.39,2.36-26.64,4.24-37.67,13.52-85.89,33.69-139.48,6.42-17.04,13.16-32.38,19.75-46.2,4.22-9.49,8.71-18.94,13.51-28.32,2.52-4.92,5.1-9.79,7.74-14.63-2.91,4.99-5.76,9.99-8.49,14.99-3.63,6.64-15.33,28.26-27.46,57.44-12.85,30.94-19.32,53.24-23.63,66.64-3.63,11.29-4.03,11.08-1.74,1.03,2.22-9.71,5-19.24,6.67-24.99,19.61-64.94,50.79-127.06,91.99-182ZM115.86,221C40.94,317.17.26,434.48,0,555.1c.21,168.37,79.18,327.84,214.47,433.05-23.54-20.54-45.52-43.16-65.56-67.69-3.51-4.31-6.97-8.67-10.37-13.09-41.14-53.7-72.9-115.56-93.52-181.89-6.79-21.83-12.32-44.15-16.63-66.77-2.53-13.79-4.67-27.53-6.12-41.12-3.37-31.49-.98-26.56.27-18.86,1.17,7.25,3,22.19,5.07,34.37.97,5.66,2.04,11.38,3.17,17.12-8.99-49.72-13.08-107.74-6.39-170.46,4.62-42.83,13.58-81.37,24.02-114.57,16.01-50.73,38.72-99.44,67.45-144.19ZM106.52,323.97c-.44,1.01-.9,1.99-1.33,3.01-21.2,49.72-35.52,103.01-41.68,157.66-.2,1.74-.36,3.49-.54,5.24-.42,16.71-.04,32.81,1.08,48.05.5,6.89,1.16,11.62,1.9,19.08-.21-10.03-.14-20.02.12-29.96,0-.52.04-1.07.05-1.6.03-2.47.06-4.94.12-7.4.2-8.36.63-19.62,1.74-32.86,4.55-55.3,16.99-100.45,26.95-130,3.53-10.5,7.42-20.91,11.59-31.22ZM60.68,556.87c1.02,22.77,3.45,45.5,7.22,68.04.2,1.21.39,2.42.6,3.63.55,3.18,1.19,6.49,1.84,9.83.32,1.65.64,3.3.97,4.95.07.3.14.61.2.91.43-2.35-.11-10-1.39-23.59-.79-8.27-1.64-17.32-2.37-26.83-.84-.77-2.04-6.26-3.38-12.82-1.4-6.83-2.61-15.23-3.69-24.12ZM50.96,643.99c2.79,16.4,6.29,32.67,10.44,48.76,3.42,12.73,7.23,25.33,11.47,37.74,10.53,30.83,23.61,60.66,39.05,89.04,2.24,3.61,4.52,7.22,6.86,10.82-32.84-56.99-55.9-120.48-67.82-186.36ZM1066.14,682.36c-.01-.06-.06.02-.13.35-.32,1.4-.66,2.73-.99,4.12.39-1.42.72-2.63,1.04-3.92.07-.29.09-.5.08-.55ZM1062.67,696.63c-.11.43-.21.91-.32,1.34-.3,1.25-.66,2.49-.97,3.74.13-.27.28-.65.4-.88.09-.17.13-.2.19-.29.18-1.09.47-2.59.7-3.91ZM85.77,726.28c.64,2.49,1.34,5.23,1.84,7.25.35.98.71,1.96,1.06,2.94,6.3,17.46,13.39,34.6,21.33,51.29,13.32,28.01,27.34,51.43,40.27,70.57-24.03-35.85-43.79-74.94-58.88-116.02-1.95-5.31-3.83-10.66-5.62-16.03ZM1046.14,752.83c-.83,2.35-1.7,4.67-2.56,7.01-.18.53-.38,1.06-.57,1.59-.99,2.67-1.94,5.36-2.97,8.02-5.78,15.3-12.22,30.35-19.25,45.02-8.43,19.36-18.32,38.86-29.75,58.21,24.84-40.11,43.02-81.01,55.1-119.85ZM1004.2,837.25c-2.84,5.24-5.75,10.44-8.75,15.58,2.41-4.05,4.77-8.15,7.1-12.29.56-1.09,1.1-2.19,1.65-3.29ZM1022.11,841.98c-31.42,54.19-71.58,102.99-118.91,143.07-30.39,25.74-63.64,47.79-98.83,65.85,10.82-5.32,21.41-10.96,31.7-16.92,23.95-13.87,46.87-29.62,68.43-47.2,10.55-8.6,20.75-17.67,30.63-27.11,1.04-1.01,2.09-2.02,3.13-3.05-2.48,1.57,11.03-11.5,25.02-26.44,11.66-13.17,22.75-26.92,33.21-41.2,2.38-3.24,5.02-7.07,7.54-10.73,5.74-9.37,11.25-18.95,16.51-28.75-3.55,5.35-7.2,10.78-9.03,12.86h0c-.04.05-.12.16-.16.21-.99,1.09,1.7-3.46,3.75-7.08,2.23-4.23,4.44-8.55,7.02-13.51ZM151.42,860.02c1.36,2,2.72,4,4.05,5.9-1.36-1.96-2.71-3.92-4.05-5.9ZM939.88,937.6c-.93,1.05-1.86,2.11-2.79,3.16.52-.54,1.03-1.09,1.55-1.63.41-.51.82-1.01,1.24-1.53ZM903.72,959.53c-1.39,1.27-2.74,2.5-4.12,3.74-2.52,2.35-5.05,4.66-7.58,6.93-4.44,3.99-8.96,7.91-13.56,11.76-1.77,1.95-3.46,3.86-5.25,5.78-1.66,1.67-3.41,3.36-5.16,5.04,8.27-6.8,16.54-13.98,24.73-21.57.54-.5,1.07-1.02,1.61-1.52.79-.92,1.5-1.71,2.54-3,.77-.95.65-1.18,1.82-2.47.64-.7,3.11-2.99,4.97-4.69ZM865.12,984.06c-3.96,2.6-17.97,12.96-25.81,18.29,4.86-3.33,10.03-6.85,13.42-9.27,4.09-2.93,8.23-5.93,12.39-9.02ZM846.26,1000.62c-2.24,1.65-4.48,3.29-6.73,4.89-22.03,15.65-45.62,29.68-70.5,41.83-7.97,3.87-23.75,11.53-43.91,18.79-3.11,1.45-6.22,2.88-9.32,4.27,3.47-1.05,6.88-2.15,10.29-3.26,8.26-3.05,16.52-6.32,24.95-9.95,18.65-7.99,37.45-17.48,56.11-28.4,13.08-8.45,25.65-17.44,37.65-26.96.5-.41.97-.81,1.46-1.21ZM838.78,1002.72c-12.32,8.33-24.79,16.09-37.35,23.13-9.03,5.1-18.26,9.86-27.62,14.4-1.89,1.19-4.91,3.12-5.33,3.37-1.93,1.14-3.87,2.24-5.8,3.34,17.96-8.51,35.88-18.21,53.53-29.18,4.46-2.78,13.62-8.94,22.57-15.06ZM875.87,1024.39c-1.99,1.42-4.02,2.8-6.04,4.2.88-.49,1.76-.98,2.64-1.48,1.13-.9,2.27-1.81,3.4-2.72ZM744.86,1063.02c-6.33,2.39-12.99,4.68-19.86,6.9-10.05,3.53-20.46,6.71-30.89,9.29-2.28.67-4.26,1.23-6.28,1.8,14.74-3.47,29.37-7.49,43.8-12.2.39-.12.7-.21,1.1-.33,4.08-1.77,8.12-3.6,12.13-5.46ZM692.78,1071.4c-48.67,14.09-99.78,21.08-151.29,19.64,24.2,1.43,49.18,1.12,74.74-1.25,20.87-1.94,41.65-5.2,62.2-9.7,1.79-.79,3.4-1.53,5.48-2.4-2.95.51-5.64.87-7.85.99-2.46.14,1.57-1.13,2.35-1.7,4.34-1.71,9.17-3.57,14.37-5.58ZM436.95,1085.88c23.03,6.59,48.01,12,74.68,15.37,5.33.67,10.64,1.22,15.96,1.71,31.87,2.33,63.97,1.54,95.81-2.23-33.05,3.63-70.74,4.55-111.69-.18-6.3-.73-12.76-1.6-19.38-2.64-18.64-2.93-37.13-6.98-55.38-12.03"/>
    <path class="cls-1" d="M501.9,188.65c-110.29,25.67-57.8,134.55-108.07,351.65-69.38,299.63,69.24,409.43,270.5,339.84,236.25-81.68,80.82-183.64,86.49-348.73,7.51-218.13-32.69-393.09-248.92-342.76Z"/>
    <path class="cls-2" d="M783.16,469.08c40.01,41.43-52.81,89.1-32.99,8.63-43.12,56.52-78.56-31.21-20.49-31.06-70.02-21.32,11.89-89.65,26.91-28.07,11.36-77.1,82.74-4.15,29.33,17.95,67-32.28,51.51,74.27-2.76,32.55"/>
    <path class="cls-5" d="M788.96,430.58l-25.62,17.29,30.32,2.04-30.43-.64,22.7,19.42-23.62-18.31,6.41,29.37-7.79-29-12.32,28.11,11.01-28.6-26.36,16.11,25.62-17.29-30.32-2.04,30.43.64-22.7-19.42,23.62,18.31-6.41-29.37,7.79,29,12.32-28.11-11.01,28.6,26.36-16.11"/>
    <path class="cls-5" d="M789.08,414.79l-25.83,32.31,39.98-8.82-39.5,10.87,37.28,16.67-38.09-14.71,20.34,35.78-22.12-34.67-4.37,41.24,2.29-41.39-27.41,30.93,25.83-32.3-39.98,8.81,39.5-10.87-37.28-16.66,38.08,14.7-20.33-35.78,22.11,34.67,4.38-41.23-2.3,41.39,27.42-30.94"/>
    <path class="cls-2" d="M622.73,170.36c46.18,23.22-18.29,91.15-25.38,17.1-19.75,60.68-75.81-3.11-26.58-20.22-65.64,2.72-16.54-79.48,14.46-31.76-13.25-68.69,68.86-28.08,30.17,6.5,47.18-47.24,65.68,47.61,7.33,28.38"/>
    <path class="cls-5" d="M616.21,136.03l-16.57,22.25,26.29-7.27-25.96,8.49,24.99,9.71-25.45-8.5,14.16,22.97-15.21-22.24-2.1,27.46.84-27.49-17.54,21.46,16.57-22.24-26.3,7.27,25.97-8.49-24.99-9.71,25.45,8.5-14.15-22.97,15.2,22.24,2.1-27.47-.84,27.5,17.54-21.47"/>
    <path class="cls-5" d="M611.63,122.62l-12.29,35.03,31.25-19.33-30.24,20.93,36.53,3.05-36.63-1.15,27.85,24.27-29.03-22.8,8.54,36.23-10.34-35.75-14.05,34.34,12.3-35.03-31.25,19.34,30.23-20.93-36.52-3.06,36.62,1.16-27.84-24.28,29.02,22.81-8.53-36.23,10.34,35.74,14.04-34.34"/>
    <path class="cls-2" d="M747.99,265.44c46.85,33.49-35.78,97.2-30.88,14.48-32.15,63.41-82.93-16.44-25.8-26.82-72.72-8.27-4.56-90.33,21.38-32.49-2.81-77.89,80.62-19.09,32.1,12.33,60.03-43.9,64.13,63.69,3.2,32.5"/>
    <path class="cls-5" d="M746.7,226.54l-22.06,21.64,30.19-3.49-30.04,4.89,25.85,14.98-26.56-13.73,11.64,27.72-12.92-27.1-7.03,29.88,5.65-30.12-23,20.62,22.06-21.65-30.19,3.5,30.04-4.9-25.85-14.97,26.56,13.72-11.64-27.72,12.92,27.1,7.02-29.88-5.64,30.13,23-20.62"/>
    <path class="cls-5" d="M743.95,210.99l-19.54,36.45,37.72-15.93-36.87,17.86,39.68,9.63-40.12-7.55,26.49,31.5-28.04-30.09,3.18,41.35-5.25-41.12-21.35,35.39,19.54-36.45-37.72,15.92,36.88-17.86-39.69-9.63,40.12,7.56-26.49-31.5,28.04,30.08-3.18-41.34,5.26,41.12,21.34-35.39"/>
    <path class="cls-2" d="M437.3,240.3c-51.08,26.6,21.81,101.25,28.55,18.65,22.95,67.29,84.4-4.66,29.29-22.94,73.16,2,17.17-88.8-16.62-35.16,13.69-76.73-77.15-30.19-33.51,7.72-53.29-51.88-72.41,54.08-7.71,31.73"/>
    <path class="cls-5" d="M444.02,201.96l18.81,24.52-29.41-7.69,29.07,9.06-27.69,11.2,28.21-9.87-15.4,25.82,16.59-25.02,2.77,30.56-1.37-30.61,19.88,23.64-18.81-24.52,29.41,7.68-29.07-9.05,27.7-11.21-28.22,9.87,15.4-25.82-16.59,25.03-2.77-30.57,1.37,30.62-19.88-23.64"/>
    <path class="cls-5" d="M448.91,186.95l14.25,38.82-35.12-21.04,34.01,22.84-40.64,3.98,40.79-1.87-30.64,27.49,31.97-25.86-8.93,40.49,10.95-39.98,16.19,38.03-14.25-38.83,35.12,21.05-34.01-22.84,40.64-3.98-40.78,1.86,30.64-27.48-31.98,25.86,8.93-40.49-10.95,39.98-16.19-38.03"/>
    <path class="cls-2" d="M429.46,434.13c31.54,48.19-68.57,77.62-34.02,2.3-52.95,47.44-71.33-45.38-14.32-34.35-64.78-34.06,28.49-85.84,31.7-22.53,25.61-73.61,82.05,11.43,25.44,23.13,71.87-19.16,36.69,82.6-8.8,31.45"/>
    <path class="cls-5" d="M442.37,397.4l-28.41,12.18,29.41,7.69-29.78-6.33,18.67,23.32-19.78-22.41.8,30.05-2.23-29.94-17.37,25.3,16.18-26.03-28.91,10.89,28.41-12.18-29.41-7.69,29.78,6.33-18.67-23.33,19.78,22.42-.8-30.05,2.22,29.94,17.38-25.3-16.18,26.03,28.91-10.89"/>
    <path class="cls-5" d="M445.44,381.92l-31.42,26.88,40.92-1.17-40.84,3.28,33.5,23.36-34.65-21.58,13.27,38.96-15.23-38.2-12.03,39.68,10.01-40.23-32.72,25.25,31.43-26.89-40.93,1.17,40.84-3.28-33.5-23.35,34.66,21.58-13.27-38.96,15.23,38.2,12.02-39.68-10.01,40.22,32.72-25.24"/>
    <path class="cls-2" d="M790.73,666.27c40,41.43-52.82,89.09-33,8.63-43.12,56.53-78.56-31.2-20.49-31.05-70.02-21.33,11.89-89.66,26.91-28.07,11.36-77.11,82.74-4.16,29.33,17.95,67-32.29,51.51,74.26-2.75,32.54"/>
    <path class="cls-5" d="M796.52,627.77l-25.62,17.29,30.32,2.04-30.43-.64,22.71,19.42-23.63-18.31,6.41,29.37-7.79-29-12.32,28.11,11.01-28.6-26.36,16.11,25.62-17.29-30.32-2.04,30.43.64-22.7-19.42,23.62,18.31-6.41-29.36,7.79,28.99,12.33-28.11-11.02,28.6,26.36-16.11"/>
    <path class="cls-5" d="M796.64,611.99l-25.83,32.29,39.98-8.81-39.5,10.87,37.28,16.67-38.09-14.71,20.34,35.78-22.12-34.67-4.37,41.24,2.29-41.39-27.41,30.93,25.83-32.3-39.98,8.81,39.5-10.87-37.28-16.66,38.08,14.7-20.33-35.78,22.12,34.67,4.37-41.23-2.29,41.39,27.41-30.93"/>
    <path class="cls-2" d="M738.39,871.37c12.78,66.82-109.79,53.97-38.2-12.78-79.16,28.03-57.52-81.62-.2-43.95-55.46-66.32,69.69-80.97,44.75-10.37,61.06-68.89,84.49,49.36,17.4,36.7,87.11,11.37,2.95,106.72-23.75,30.4"/>
    <path class="cls-5" d="M768.99,837.05l-36.5.54,28.66,21.61-29.68-20.29,9.91,33.87-11.53-33.38-12.63,33.19,11.02-33.71-30.34,19.83,29.37-21.16-36.47-1.1,36.5-.54-28.67-21.61,29.68,20.29-9.9-33.86,11.53,33.37,12.63-33.19-11.03,33.71,30.35-19.83-29.37,21.16,36.47,1.1"/>
    <path class="cls-5" d="M779.31,821.52l-46.41,15.25,45.23,17.11-46.08-14.77,26.08,40.57-28.15-39.15-3.01,48.52.53-48.57-30.97,37.94,29.02-39.44-47.1,12.87,46.41-15.25-45.22-17.12,46.08,14.78-26.09-40.57,28.15,39.15,3.02-48.52-.54,48.57,30.97-37.94-29.01,39.44,47.09-12.87"/>
    <path class="cls-2" d="M551.09,904.25c48.35,34.9-37.53,100.47-32.05,14.83-33.61,65.51-85.79-17.42-26.58-27.9-75.26-8.92-4.28-93.56,22.3-33.53-2.53-80.67,83.57-19.38,33.17,12.92,62.39-45.17,66.1,66.27,3.16,33.68"/>
    <path class="cls-5" d="M549.94,863.95l-22.94,22.31,31.28-3.47-31.14,4.92,26.7,15.63-27.44-14.34,11.92,28.76-13.25-28.12-7.42,30.9,5.99-31.17-23.91,21.25,22.94-22.31-31.28,3.47,31.14-4.92-26.7-15.63,27.44,14.33-11.92-28.76,13.25,28.13,7.42-30.9-5.99,31.16,23.91-21.24"/>
    <path class="cls-5" d="M547.18,847.84l-20.42,37.64,39.14-16.3-38.27,18.31,41.04,10.17-41.51-8.02,27.28,32.75-28.89-31.29,3.09,42.83-5.24-42.61-22.28,36.54,20.42-37.65-39.14,16.31,38.27-18.31-41.04-10.17,41.51,8.02-27.28-32.75,28.89,31.29-3.09-42.83,5.24,42.61,22.28-36.54"/>
    <path class="cls-2" d="M424.2,797.65c57.1,7.49,14.2,102.6-20.43,27.31,1.49,71.08-80.89,24.53-35.38-11.53-68.05,26.95-46.55-77.54,3.57-38.72-39.15-67.39,62.14-54.8,34.12-4.23,32.3-67,86.56,26,18.12,27.17"/>
    <path class="cls-5" d="M404.75,763.93l-9.27,29.48,24.99-17.3-24.2,18.47,29.86,1.04-29.89.39,23.31,18.98-24.16-17.82,7.87,29.66-9.2-29.23-10.58,29.02,9.27-29.48-24.99,17.29,24.2-18.46-29.85-1.04,29.89-.4-23.32-18.97,24.16,17.82-7.87-29.66,9.2,29.23,10.58-29.02"/>
    <path class="cls-5" d="M395.01,751.5l-.08,41.36,25.78-31.8-24.13,33.11,39.55-10.19-38.95,12.22,38.2,15.33-38.91-13.34,22.27,34.98-23.99-33.81-2.17,41.27.08-41.35-25.78,31.8,24.12-33.11-39.54,10.18,38.95-12.22-38.2-15.32,38.9,13.34-22.26-34.98,23.99,33.81,2.17-41.28"/>
    <path class="cls-2" d="M401.61,628.22c30.03,49.15-70.94,75.46-34.08,1.24-54.39,45.78-69.88-47.56-13.24-34.77-63.69-36.06,31.13-84.92,32.38-21.54,27.88-72.78,81.66,13.96,24.72,23.91,72.42-16.93,34.1,83.69-9.78,31.16"/>
    <path class="cls-5" d="M415.65,591.91l-28.77,11.29,29.15,8.6-29.56-7.25,17.93,23.89-19.07-23.02-.13,30.07-1.3-30-18.14,24.75,16.97-25.52-29.23,9.99,28.77-11.3-29.15-8.59,29.56,7.25-17.93-23.89,19.07,23.01.13-30.06,1.3,29.99,18.15-24.75-16.98,25.52,29.23-9.98"/>
    <path class="cls-5" d="M419.21,576.53l-32.25,25.9,40.94.1-40.92,2.01,32.76,24.38-33.97-22.65,12.06,39.36-14.04-38.66-13.25,39.29,11.25-39.89-33.49,24.22,32.25-25.9-40.94-.11,40.91-2.01-32.75-24.38,33.97,22.65-12.06-39.36,14.04,38.66,13.25-39.29-11.26,39.9,33.5-24.22"/>
    <path class="cls-3" d="M797.31,540.53c60.54-9.04,44.51,100.7-12.89,33.88,22.3,72.2-75.49,48.73-39.53-1.43-61.66,47.44-70.24-65.62-7.68-40.61-59.71-57.42,47.48-74.17,33.64-14.3,13.41-77.91,96.06,1.25,26.46,22.46"/>
    <path class="cls-5" d="M767.57,511.76l-.85,32.84,20.48-24.98-19.33,25.94,30.81-7.66-30.43,9.14,29.38,12.57-29.9-11.14,16.72,28.01-17.96-27.19-2.32,32.76.85-32.84-20.48,24.98,19.33-25.95-30.81,7.67,30.43-9.14-29.38-12.57,29.9,11.14-16.72-28.01,17.96,27.19,2.32-32.76"/>
    <path class="cls-5" d="M753.98,501.91l12.01,42.29,17.05-40.04-14.97,40.9,37.43-21.98-36.23,23.88,43.52,4.49-43.66-2.26,32.98,29.24-34.4-27.53,9.85,42.81-12.01-42.29-17.04,40.04,14.97-40.89-37.43,21.97,36.23-23.88-43.52-4.48,43.65,2.25-32.98-29.23,34.4,27.53-9.85-42.82"/>
    <path class="cls-3" d="M774.86,333.15c57.9-19.88,62.04,90.95-6.53,35.65,35.03,66.96-65.4,61.62-39.13,5.77-52.04,57.83-80.99-51.8-14.92-38.55-69.14-45.64,33.23-81.55,30.48-20.17-.95-79.04,94.69-16.19,30.1,17.3"/>
    <path class="cls-5" d="M740.4,310.25l5.11,32.45,15.61-28.29-14.3,29.03,28.91-13.14-28.27,14.52,31.17,7.03-31.42-5.54,21.52,24.52-22.59-23.48,3.66,32.63-5.12-32.44-15.61,28.28,14.3-29.02-28.91,13.13,28.27-14.52-31.17-7.03,31.43,5.54-21.53-24.52,22.59,23.48-3.65-32.63"/>
    <path class="cls-5" d="M725.25,303.03l19.48,39.41,9.5-42.47-7.31,42.93,32.83-28.4-31.3,30.06,43.61-3.49-43.34,5.7,37.74,22.77-38.83-20.83,17.45,40.31-19.48-39.41-9.5,42.47,7.31-42.93-32.83,28.4,31.3-30.06-43.61,3.49,43.34-5.7-37.74-22.77,38.83,20.84-17.45-40.32"/>
    <path class="cls-3" d="M401.21,303.58c-54.54-27.8-74.16,81.36,1.48,36.21-44.07,61.4,56.12,70.17,37.93,11.19,43.43,64.55,87.44-39.94,20.17-36.08,74.85-35.5-21.48-85.39-27.36-24.23,12.01-78.14-91.49-29.29-32.22,12.91"/>
    <path class="cls-5" d="M438.54,285.73l-9.61,31.41-11.5-30.19,10.1,30.74-26.78-17.05,25.95,18.33-31.85,2.6,31.9-1.09-24.75,21.26,25.65-20.08-8.18,31.8,9.61-31.41,11.49,30.19-10.1-30.74,26.79,17.05-25.95-18.33,31.85-2.6-31.9,1.08,24.74-21.26-25.65,20.09,8.19-31.8"/>
    <path class="cls-5" d="M454.55,280.7l-24.81,36.29-3.46-43.38,1.22,43.53-28.52-32.71,26.78,34.14-42.69-9.55,42.11,11.71-40.55,17.25,41.36-15.19-22.93,37.48,24.81-36.29,3.46,43.38-1.22-43.53,28.52,32.71-26.78-34.14,42.7,9.55-42.12-11.71,40.56-17.25-41.36,15.19,22.92-37.48"/>
    <path class="cls-3" d="M509.31,176.73c-42.56-21.69-57.86,63.48,1.15,28.25-34.38,47.9,43.79,54.75,29.6,8.73,33.88,50.36,68.22-31.16,15.74-28.15,58.39-27.7-16.77-66.63-21.35-18.91,9.36-60.96-71.38-22.85-25.14,10.08"/>
    <path class="cls-5" d="M538.43,162.8l-7.5,24.51-8.96-23.56,7.88,23.99-20.9-13.31,20.25,14.3-24.85,2.03,24.88-.84-19.3,16.58,20.01-15.66-6.39,24.8,7.5-24.5,8.97,23.55-7.88-23.98,20.9,13.3-20.25-14.3,24.85-2.03-24.88.85,19.3-16.59-20.01,15.67,6.38-24.81"/>
    <path class="cls-5" d="M550.93,158.88l-19.36,28.31-2.7-33.84.95,33.96-22.25-25.52,20.89,26.63-33.3-7.45,32.85,9.14-31.64,13.46,32.27-11.85-17.88,29.24,19.35-28.32,2.7,33.85-.95-33.97,22.25,25.53-20.89-26.64,33.3,7.46-32.85-9.14,31.64-13.47-32.27,11.86,17.89-29.24"/>
    <path class="cls-3" d="M643.63,191.25c-46.22-23.55-62.85,68.95,1.25,30.69-37.34,52.03,47.56,59.46,32.15,9.48,36.8,54.7,74.1-33.85,17.09-30.57,63.43-30.09-18.21-72.37-23.18-20.54,10.17-66.21-77.54-24.82-27.31,10.94"/>
    <path class="cls-5" d="M675.26,176.12l-8.14,26.62-9.74-25.58,8.56,26.05-22.7-14.45,21.99,15.53-26.99,2.21,27.03-.92-20.97,18.01,21.74-17.01-6.94,26.94,8.15-26.62,9.74,25.59-8.56-26.05,22.7,14.45-22-15.54,26.99-2.2-27.02.92,20.96-18.02-21.73,17.02,6.93-26.95"/>
    <path class="cls-5" d="M688.83,171.86l-21.02,30.76-2.93-36.76,1.03,36.89-24.17-27.73,22.69,28.93-36.17-8.09,35.69,9.92-34.37,14.63,35.05-12.88-19.43,31.76,21.02-30.75,2.94,36.76-1.04-36.89,24.17,27.72-22.69-28.93,36.17,8.1-35.68-9.93,34.36-14.62-35.05,12.87,19.43-31.76"/>
    <path class="cls-3" d="M439.3,501.87c61.06,4.35,21.51,107.96-19.97,30.25,6.05,75.33-84.29,31.13-38.26-10-70.51,32.87-54.27-79.35,1.35-41.31-45.78-69.05,62.48-62.05,35.94-6.63,30.05-73.12,93.48,22.14,20.94,27.69"/>
    <path class="cls-5" d="M416.53,467.31l-7.98,31.86,25.43-19.92-24.52,21.11,31.75-.77-31.69,2.3,25.93,18.67-26.75-17.39,10.21,30.98-11.6-30.45-9.4,31.46,7.98-31.86-25.43,19.92,24.52-21.11-31.74.77,31.69-2.3-25.94-18.66,26.76,17.39-10.22-30.98,11.6,30.44,9.4-31.46"/>
    <path class="cls-5" d="M405.42,454.74l2.51,43.89,25.36-35.37-23.52,36.65,41.32-13.29-40.56,15.41,41.49,13.86-42.11-11.71,25.82,35.71-27.58-34.36.29,43.93-2.51-43.89-25.36,35.37,23.52-36.65-41.32,13.3,40.56-15.42-41.49-13.86,42.11,11.71-25.82-35.71,27.58,34.36-.29-43.93"/>
    <path class="cls-3" d="M790.35,708.9c15.11-59.32,110.07-2.03,26.24,25.01,75.21,7.4,15.69,88.47-16.63,35.88,19.85,75.23-87.71,39.35-40.41-8.64-76.07,32.8-49.99-72.5-.16-36.55-66.63-42.55,38.36-88.08,30.96-15.7"/>
    <path class="cls-5" d="M752.31,725.17l29.94,13.51-15.1-28.56,16.43,27.87,4.87-31.38-3.35,31.6,22.97-22.21-21.86,23.25,32.3-4.57-32.02,6.02,29.29,14.83-29.94-13.5,15.1,28.56-16.43-27.87-4.87,31.38,3.36-31.6-22.97,22.21,21.86-23.25-32.31,4.57,32.02-6.03-29.29-14.83"/>
    <path class="cls-5" d="M737.96,733.89l43.64,5.3-30.31-31.22,31.9,29.64-5.76-43.02,7.98,42.65,21-38.38-18.99,39.37,39.73-19.08-38.71,21.05,43.28,7.5-43.63-5.3,30.31,31.22-31.9-29.64,5.76,43.02-7.99-42.65-20.99,38.38,18.99-39.37-39.73,19.08,38.71-21.05-43.29-7.5"/>
    <path class="cls-3" d="M476.63,844.65c42.25-29.97,72.07,59.01,3.21,30.5,44.43,45.99-38.37,65.63-30.38,14.02-28.44,59.37-78.11-22.71-21.32-27.73-67.02-20.54,7.51-74.13,19.93-23.65-19.64-63.94,73-35.75,28.56,6.86"/>
    <path class="cls-5" d="M443.19,834.29l11.9,25.11,5.92-26.68-4.68,26.97,20.33-17.56-19.48,18.53,26.98-1.73-26.83,3,23.32,14.77-23.94-13.67,10.76,25.62-11.9-25.12-5.92,26.69,4.68-26.98-20.33,17.56,19.48-18.53-26.98,1.73,26.83-3-23.32-14.76,23.94,13.66-10.76-25.61"/>
    <path class="cls-5" d="M429.17,832.04l25.22,27.34-2.43-36.74,4.32,36.59,19.87-30.89-18.23,31.87,34.57-13.24-33.82,14.98,36.07,9.47-36.49-7.65,23.79,28.56-25.23-27.33,2.43,36.74-4.32-36.59-19.86,30.88,18.23-31.86-34.57,13.23,33.82-14.97-36.07-9.47,36.49,7.64-23.79-28.56"/>
    <path class="cls-3" d="M656.45,903.07c53.07,34.47-34.53,108.46-33.2,17.4-32.2,71.18-91.84-13.99-29.62-28.19-80.25-5.52-9.43-98.94,21.88-36.71-6.9-85.37,87.57-24.9,35.84,11.97,63.76-51.13,73.51,66.79,5.1,35.53"/>
    <path class="cls-5" d="M653.13,860.42l-23.16,24.84,32.98-5.31-32.75,6.84,29.11,15.18-29.82-13.77,14.13,29.86-15.51-29.12-6.25,33.15,4.72-33.35-24.24,23.76,23.16-24.84-32.97,5.31,32.74-6.84-29.11-15.17,29.82,13.76-14.13-29.86,15.52,29.12,6.24-33.14-4.72,33.34,24.24-23.76"/>
    <path class="cls-5" d="M649.36,843.48l-19.68,40.97,40.63-19.32-39.6,21.41,44.03,8.63-44.41-6.34,30.62,33.29-32.25-31.65,5.51,45.23-7.78-44.89-21.71,39.9,19.68-40.97-40.63,19.32,39.6-21.4-44.03-8.63,44.41,6.33-30.62-33.29,32.25,31.66-5.5-45.23,7.77,44.88,21.71-39.9"/>
    <path class="cls-3" d="M405.25,674.07c27.66-54.61,107.87,21.99,20.16,30.13,71.79,23.6-3.95,89.76-24.04,31.4,2.99,77.74-94.17,19.3-37.56-17.24-81.39,15.45-33.01-81.65,7.8-35.71-55.77-56.03,56.62-77.61,33.64-8.58"/>
    <path class="cls-5" d="M364.58,681.67l26.28,19.7-8.52-31.16,9.97,30.78,11.58-29.56-10.15,30.1,27.25-16.68-26.39,17.94,32.51,2.58-32.56-1.1,25.37,20.86-26.29-19.7,8.52,31.16-9.97-30.79-11.58,29.57,10.16-30.11-27.26,16.68,26.4-17.93-32.52-2.58,32.56,1.09-25.36-20.85"/>
    <path class="cls-5" d="M348.68,687.05l41.43,14.68-22.78-37.07,24.68,35.87,3.75-43.24-1.5,43.37,28.85-32.89-27.11,34.29,42.93-9.97-42.36,12.11,40.61,16.75-41.43-14.68,22.78,37.08-24.68-35.88-3.75,43.24,1.5-43.37-28.85,32.89,27.11-34.29-42.93,9.98,42.36-12.12-40.61-16.75"/>
  </g>
</svg>