<svg id="Layer_1" xmlns="http://www.w3.org/2000/svg" viewBox="0 0 1140.5 1104.29"><path d="M579.08,0c-88.23,2.72-189.31,39.39-270.04,86.19.17-.57.7-1.34,1.51-2.25-140.03,85.4-225.32,244.1-241.04,407.63-6.05,60.53.4,132.93,9.38,188.72,4.05,17.04,11.49,34.22,15.43,52.12,16.57,47.64-14.5-31.95-16.64-43.13,35.35,135.1,121.45,254.41,241.01,324.79,47.31,29.21,105.85,50.72,159.69,63.53-15.36.62-70.88-15.18-99.91-27.79,126.3,56.11,273.06,45.33,397.26-14.94,27.35-12.55,83.66-51.41,109.92-66.54,5.31-3.05,1.48,1.77.39,3.33,72.34-55.9,114.61-125.02,147.89-207.69,15.3-37.9,15.08-37.21,9.33-15.5,8.72-20.77,22.75-80.13,26.33-85.93,1.03,30-17.12,92.69-29.58,125.76,21.07-42.32,30.68-90.19,42.19-136.31.72-2.07.48,1.57.02,6.08,30.51-152.4-8.85-315.84-98.75-440.86,128.24,157.19,149.16,397.82,56.17,600.52,3.17-4.9,7.95-18.37,9.8-17.24,26.69-49.23,42.76-116.38,53.99-170.55-13.38,146.59-94.89,284.5-206.08,380.19,280.61-180.76,327.81-597.02,91.9-832.6,21.96,28.72,10.34,16.53-5.89-2.27.42.68.83,1.38,1.35,2.13l-.15-.15c-20.68-22.04-47.9-48.65-73.5-67.56,20.71,17.26,41.67,37.31,58.82,57.14-3.02-2.99-5.42-5.18-8.08-7.62,2.52,3.03,5.03,6.07,7.4,8.98C871.5,57.48,724.96,2.58,579.08,0h0ZM512.26,3.09c-49.48,8.27-99.83,21.77-143.8,46.64,53.86-25.38,98.97-37.59,143.8-46.64ZM390.62,42.38c-17.47,8.04-37.29,15.27-52.87,26.89,17.32-9.96,34.53-18.66,52.87-26.89ZM332.32,67.01c-20.58,11.96-40.35,25.4-59.11,40.22,19.88-15.2,39.21-26.02,59.11-40.22ZM264.83,85.88c-46.56,27.01-85.29,69.14-116.53,110.36,1.63-1.78.6.22,1.22-.17-.3.58-.62,1.19-.89,1.72,18.13-24.42,43.1-52.3,64.41-70.75,5.37-4.62,4.11-2.81.52,1.25,18.16-17,33.29-29.33,51.27-42.41ZM192.22,139.53c-23.67,21.34-42.05,48.07-60.54,74.51,20.95-30.3,36.01-48.74,60.54-74.51ZM150.62,182.56c-.85,1.09-1.69,2.17-2.51,3.28.83-1.1,1.68-2.18,2.51-3.28ZM148.12,185.84C-19.86,399.7-7.69,736.48,179.55,934.83,13.52,751.81-14.23,471.32,110.78,252.73c-16.02,22.8-52.98,110.27-59.58,139.07-3.63,11.29-4.03,11.08-1.74,1.03,18.67-75.51,52.1-144.31,98.66-206.99ZM114.67,221C-72.11,451.69-24.74,810.03,213.28,988.15c-97.06-84.01-162.2-202.52-186.08-329.44-2.49-7.95-11.77-83.7-5.85-59.98,1.8,12.16,4.96,36.23,8.24,51.49C1.51,511.19,34.62,340.91,114.67,221ZM105.33,323.97c-30.53,72.09-51.81,154.04-40.57,233.04-3.27-79.5,14.18-172.24,40.57-233.04ZM59.49,556.87c1.34,29.32,4.9,58.55,10.83,87.36.75-7.66-2.98-37.05-3.76-50.42-3.4-8-5.51-25.22-7.07-36.94ZM49.78,643.99c11.44,65.23,33.31,129.83,67.82,186.36-32.84-56.99-55.9-120.48-67.82-186.36ZM1064.96,682.36c-.44,1.3-.73,3.05-1.12,4.47.39-1.57.91-3.02,1.12-4.47ZM1061.48,696.63c-.39,1.7-.85,3.39-1.29,5.08.87-1.54.9-3.2,1.29-5.08ZM84.58,726.28c12.85,44.7,40.92,97.27,64.5,132.05-27.13-40.44-48.92-85.34-64.5-132.05ZM1044.96,752.83c-15.16,41.89-32.44,80.75-55.1,119.85,24.84-40.11,43.02-81.01,55.1-119.85ZM1003.01,837.25c-2.84,5.24-5.75,10.44-8.75,15.58,2.98-5.12,6.14-10.22,8.75-15.58ZM1020.92,841.98c-51.19,88.76-126.68,162.61-217.74,208.92,49.24-24.19,94.6-55.88,133.89-94.28,20.96-20.83,67.23-73.15,82.28-107.12-3.68,5.55-7.19,10.77-9.2,13.07.95-2.7,8.25-15.11,10.77-20.59ZM150.23,860.02c1.36,2,2.72,4,4.05,5.9-1.36-1.96-2.71-3.92-4.05-5.9ZM938.69,937.6c-.93,1.05-1.86,2.11-2.79,3.16.99-1.01,1.92-2.03,2.79-3.16ZM902.53,959.53c-11.98,11.09-24.48,21.35-35.67,33.25,12.81-10.19,24.2-20.93,35.67-33.25ZM863.94,984.06c-3.96,2.6-17.97,12.96-25.81,18.29,9.94-6.76,16.81-11.6,25.81-18.29ZM845.07,1000.62c-42.33,31.15-77.88,48.56-130.46,69.78,46.48-15.09,92.14-38.35,130.46-69.78ZM837.6,1002.72c-24.2,17.18-50.78,29.64-76.1,44.24,27.66-13.23,49.1-25.47,76.1-44.24ZM874.69,1024.39c-1.99,1.42-4.02,2.8-6.04,4.2,2.24-1.08,4.13-2.62,6.04-4.2ZM743.67,1063.02c-18.32,6.84-37.95,12.98-57.03,17.99,19.27-4.89,39.07-9.18,57.03-17.99ZM691.6,1071.4c-48.67,14.09-99.78,21.08-151.29,19.64,46.26,1.97,97.23.4,142.42-13.35-19.9,3.53,2.48-3.48,8.87-6.29ZM435.76,1085.88c58.14,17.4,125.11,22.75,186.45,14.85-55.29,6.87-128.36,2.17-186.45-14.85" style="fill:#66b2af;"/><path d="M500.71,188.65l-.66-2.85c-14.03,3.27-25.6,7.88-35.15,13.96-8.36,5.31-15.16,11.74-20.68,19.24-9.66,13.15-15.38,29.49-19.22,49.06-5.75,29.37-7.32,66.15-11.1,111.17-3.77,45.02-9.72,98.26-24.11,160.41-12.38,53.46-18.17,100.95-18.17,142.56,0,36.81,4.54,69.02,13.09,96.66,12.82,41.45,34.74,72.65,63.82,93.4,29.08,20.75,65.19,30.99,106.19,30.99,33.51,0,70.31-6.82,109.38-20.33,51.65-17.87,84.9-36.73,105.41-57.36,10.25-10.31,17.29-21.09,21.73-32.3,4.45-11.21,6.29-22.84,6.28-34.83,0-15.06-2.88-30.7-7.14-47.07-6.4-24.56-15.92-50.8-23.81-79.16-7.89-28.37-14.17-58.84-14.17-91.83,0-2.93.05-5.87.15-8.84.54-15.68.83-31.15.83-46.33,0-42.89-2.34-83.49-8.12-120.34-4.34-27.63-10.61-53.15-19.3-75.92-13.03-34.15-31.54-62.17-57.17-81.65-12.81-9.73-27.38-17.31-43.85-22.44-16.47-5.13-34.83-7.82-55.24-7.82-20.98,0-44.14,2.84-69.67,8.78l.66,2.85.66,2.85c25.17-5.86,47.89-8.63,68.34-8.63,35.38,0,63.97,8.26,87.12,23.16,17.36,11.19,31.69,26.16,43.46,44.38,17.65,27.33,29.49,62,36.89,101.87,7.4,39.86,10.36,84.9,10.36,132.91,0,15.1-.29,30.5-.83,46.12-.1,3.03-.16,6.05-.16,9.04,0,44.99,11.4,85.15,22.69,121.25,5.65,18.05,11.28,35.1,15.47,51.22,4.2,16.12,6.96,31.29,6.96,45.6,0,11.4-1.74,22.24-5.87,32.68-6.21,15.65-17.83,30.51-37.59,44.88-19.76,14.36-47.63,28.14-86.02,41.41-38.57,13.34-74.75,20.01-107.47,20.01-26.69,0-51.07-4.44-72.62-13.29-32.33-13.3-58.36-36.48-76.46-69.99-18.09-33.51-28.17-77.41-28.17-131.91,0-41.06,5.72-88.13,18.02-141.24,12.6-54.44,18.77-102.09,22.65-143.31,2.91-30.91,4.54-58.2,6.63-81.99,1.57-17.84,3.4-33.71,6.21-47.64,2.1-10.45,4.75-19.8,8.23-28.09,5.22-12.44,12.24-22.48,22.17-30.47,9.93-7.99,22.86-13.97,40-17.96l-.66-2.85Z" style="fill:#4c6120;"/><path d="M781.97,469.08c40.01,41.43-52.81,89.1-32.99,8.63-43.12,56.52-78.56-31.21-20.49-31.06-70.02-21.32,11.89-89.65,26.91-28.07,11.36-77.1,82.74-4.15,29.33,17.95,67-32.28,51.51,74.27-2.76,32.55" style="fill:#f6f6f6;"/><polyline points="787.78 430.58 762.15 447.87 792.47 449.91 762.04 449.27 784.74 468.69 761.12 450.38 767.53 479.75 759.74 450.75 747.42 478.86 758.44 450.26 732.07 466.37 757.69 449.08 727.37 447.04 757.8 447.68 735.1 428.26 758.72 446.57 752.31 417.2 760.1 446.2 772.42 418.09 761.41 446.69 787.78 430.58" style="fill:#f2b03f; fill-rule:evenodd;"/><polyline points="787.89 414.79 762.06 447.1 802.04 438.28 762.54 449.15 799.82 465.82 761.73 451.11 782.07 486.89 759.96 452.22 755.58 493.46 757.87 452.07 730.46 483 756.29 450.7 716.31 459.51 755.81 448.64 718.53 431.98 756.62 446.68 736.28 410.9 758.39 445.57 762.78 404.34 760.47 445.73 787.89 414.79" style="fill:#f2b03f; fill-rule:evenodd;"/><path d="M621.54,170.36c46.18,23.22-18.29,91.15-25.38,17.1-19.75,60.68-75.81-3.11-26.58-20.22-65.64,2.72-16.54-79.48,14.46-31.76-13.25-68.69,68.86-28.08,30.17,6.5,47.18-47.24,65.68,47.61,7.33,28.38" style="fill:#f6f6f6;"/><polyline points="615.03 136.03 598.46 158.28 624.74 151.01 598.78 159.5 623.78 169.21 598.32 160.71 612.48 183.68 597.28 161.44 595.17 188.9 596.01 161.41 578.47 182.87 595.04 160.63 568.74 167.9 594.71 159.41 569.72 149.7 595.17 158.2 581.03 135.23 596.22 157.47 598.32 130 597.48 157.5 615.03 136.03" style="fill:#f2b03f; fill-rule:evenodd;"/><polyline points="610.44 122.62 598.15 157.65 629.4 138.32 599.16 159.25 635.69 162.3 599.06 161.15 626.91 185.42 597.88 162.62 606.42 198.85 596.08 163.1 582.03 197.44 594.33 162.41 563.08 181.75 593.31 160.82 556.79 157.76 593.41 158.92 565.57 134.64 594.6 157.45 586.06 121.22 596.4 156.96 610.44 122.62" style="fill:#f2b03f; fill-rule:evenodd;"/><path d="M746.8,265.44c46.85,33.49-35.78,97.2-30.88,14.48-32.15,63.41-82.93-16.44-25.8-26.82-72.72-8.27-4.56-90.33,21.38-32.49-2.81-77.89,80.62-19.09,32.1,12.33,60.03-43.9,64.13,63.69,3.2,32.5" style="fill:#f6f6f6;"/><polyline points="745.51 226.54 723.46 248.18 753.64 244.69 723.6 249.58 749.46 264.56 722.89 250.83 734.53 278.55 721.62 251.45 714.58 281.33 720.23 251.21 697.23 271.83 719.29 250.18 689.1 253.68 719.14 248.78 693.29 233.81 719.85 247.53 708.21 219.81 721.13 246.91 728.15 217.03 722.51 247.16 745.51 226.54" style="fill:#f2b03f; fill-rule:evenodd;"/><polyline points="742.76 210.99 723.22 247.44 760.94 231.51 724.07 249.37 763.76 259 723.63 251.45 750.12 282.95 722.08 252.86 725.26 294.21 720.01 253.09 698.66 288.48 718.21 252.03 680.48 267.95 717.37 250.09 677.67 240.46 717.79 248.02 691.3 216.52 719.35 246.6 716.16 205.26 721.42 246.38 742.76 210.99" style="fill:#f2b03f; fill-rule:evenodd;"/><path d="M436.12,240.3c-51.08,26.6,21.81,101.25,28.55,18.65,22.95,67.29,84.4-4.66,29.29-22.94,73.16,2,17.17-88.8-16.62-35.16,13.69-76.73-77.15-30.19-33.51,7.72-53.29-51.88-72.41,54.08-7.71,31.73" style="fill:#f6f6f6;"/><polyline points="442.83 201.96 461.64 226.48 432.23 218.79 461.3 227.85 433.62 239.05 461.82 229.18 446.42 255 463.01 229.98 465.78 260.54 464.41 229.93 484.29 253.57 465.48 229.05 494.89 236.73 465.82 227.68 493.53 216.47 465.3 226.34 480.71 200.52 464.12 225.55 461.35 194.98 462.71 225.6 442.83 201.96" style="fill:#f2b03f; fill-rule:evenodd;"/><polyline points="447.72 186.95 461.97 225.77 426.85 204.73 460.87 227.57 420.22 231.55 461.01 229.68 430.37 257.17 462.35 231.31 453.41 271.8 464.37 231.82 480.55 269.85 466.3 231.02 501.42 252.07 467.41 229.23 508.05 225.25 467.28 227.11 497.91 199.63 465.94 225.49 474.87 185 463.91 224.98 447.72 186.95" style="fill:#f2b03f; fill-rule:evenodd;"/><path d="M428.28,434.13c31.54,48.19-68.57,77.62-34.02,2.3-52.95,47.44-71.33-45.38-14.32-34.35-64.78-34.06,28.49-85.84,31.7-22.53,25.61-73.61,82.05,11.43,25.44,23.13,71.87-19.16,36.69,82.6-8.8,31.45" style="fill:#f6f6f6;"/><polyline points="441.19 397.4 412.78 409.58 442.19 417.27 412.4 410.94 431.07 434.26 411.29 411.85 412.1 441.9 409.87 411.96 392.49 437.26 408.67 411.23 379.76 422.12 408.17 409.94 378.76 402.25 408.54 408.58 389.87 385.25 409.65 407.67 408.85 377.62 411.07 407.56 428.46 382.26 412.28 408.29 441.19 397.4" style="fill:#f2b03f; fill-rule:evenodd;"/><polyline points="444.26 381.92 412.83 408.8 453.76 407.63 412.91 410.91 446.41 434.27 411.76 412.69 425.03 451.65 409.8 413.45 397.78 453.13 407.78 412.9 375.06 438.15 406.49 411.26 365.56 412.43 406.4 409.15 372.9 385.8 407.56 407.38 394.29 368.42 409.53 406.62 421.54 366.94 411.53 407.16 444.26 381.92" style="fill:#f2b03f; fill-rule:evenodd;"/><path d="M789.54,666.27c40,41.43-52.82,89.09-33,8.63-43.12,56.53-78.56-31.2-20.49-31.05-70.02-21.33,11.89-89.66,26.91-28.07,11.36-77.11,82.74-4.16,29.33,17.95,67-32.29,51.51,74.26-2.75,32.54" style="fill:#f6f6f6;"/><polyline points="795.33 627.77 769.71 645.06 800.03 647.1 769.6 646.46 792.31 665.88 768.69 647.57 775.1 676.94 767.3 647.94 754.98 676.05 765.99 647.45 739.63 663.56 765.26 646.27 734.94 644.23 765.37 644.87 742.66 625.45 766.28 643.76 759.87 614.4 767.66 643.39 779.99 615.28 768.97 643.88 795.33 627.77" style="fill:#f2b03f; fill-rule:evenodd;"/><polyline points="795.46 611.99 769.62 644.28 809.6 635.47 770.1 646.34 807.38 663.01 769.29 648.3 789.63 684.08 767.51 649.41 763.14 690.65 765.44 649.26 738.03 680.19 763.85 647.89 723.87 656.7 763.37 645.83 726.1 629.17 764.17 643.87 743.85 608.09 765.96 642.76 770.33 601.53 768.04 642.92 795.46 611.99" style="fill:#f2b03f; fill-rule:evenodd;"/><path d="M737.21,871.37c12.78,66.82-109.79,53.97-38.2-12.78-79.16,28.03-57.52-81.62-.2-43.95-55.46-66.32,69.69-80.97,44.75-10.37,61.06-68.89,84.49,49.36,17.4,36.7,87.11,11.37,2.95,106.72-23.75,30.4" style="fill:#f6f6f6;"/><polyline points="767.8 837.05 731.3 837.59 759.96 859.2 730.28 838.91 740.19 872.78 728.66 839.4 716.03 872.59 727.05 838.88 696.71 858.71 726.08 837.55 689.62 836.45 726.12 835.91 697.44 814.3 727.12 834.59 717.22 800.73 728.76 834.1 741.38 800.91 730.35 834.62 760.71 814.79 731.33 835.95 767.8 837.05" style="fill:#f2b03f; fill-rule:evenodd;"/><polyline points="778.12 821.52 731.71 836.77 776.94 853.88 730.87 839.11 756.94 879.68 728.79 840.53 725.78 889.05 726.31 840.48 695.35 878.42 724.37 838.98 677.26 851.85 723.67 836.6 678.46 819.48 724.53 834.26 698.44 793.69 726.6 832.84 729.62 784.32 729.07 832.89 760.04 794.95 731.03 834.39 778.12 821.52" style="fill:#f2b03f; fill-rule:evenodd;"/><path d="M549.9,904.25c48.35,34.9-37.53,100.47-32.05,14.83-33.61,65.51-85.79-17.42-26.58-27.9-75.26-8.92-4.28-93.56,22.3-33.53-2.53-80.67,83.57-19.38,33.17,12.92,62.39-45.17,66.1,66.27,3.16,33.68" style="fill:#f6f6f6;"/><polyline points="548.76 863.95 525.81 886.26 557.1 882.79 525.96 887.71 552.65 903.34 525.21 889 537.13 917.76 523.88 889.64 516.46 920.54 522.46 889.37 498.54 910.62 521.48 888.31 490.21 891.78 521.35 886.86 494.64 871.23 522.08 885.56 510.16 856.8 523.41 884.93 530.83 854.03 524.85 885.19 548.76 863.95" style="fill:#f2b03f; fill-rule:evenodd;"/><polyline points="545.99 847.84 525.57 885.48 564.71 869.18 526.44 887.49 567.48 897.66 525.97 889.64 553.26 922.39 524.37 891.1 527.46 933.93 522.21 891.32 499.94 927.86 520.35 890.21 481.21 906.52 519.48 888.21 478.44 878.04 519.96 886.06 492.67 853.31 521.56 884.6 518.47 841.77 523.71 884.38 545.99 847.84" style="fill:#f2b03f; fill-rule:evenodd;"/><path d="M423.01,797.65c57.1,7.49,14.2,102.6-20.43,27.31,1.49,71.08-80.89,24.53-35.38-11.53-68.05,26.95-46.55-77.54,3.57-38.72-39.15-67.39,62.14-54.8,34.12-4.23,32.3-67,86.56,26,18.12,27.17" style="fill:#f6f6f6;"/><polyline points="403.56 763.93 394.29 793.41 419.28 776.11 395.08 794.58 424.94 795.62 395.05 796.01 418.37 814.99 394.21 797.17 402.07 826.83 392.87 797.6 382.29 826.62 391.56 797.14 366.57 814.43 390.78 795.97 360.92 794.93 390.81 794.53 367.49 775.56 391.65 793.38 383.78 763.72 392.98 792.95 403.56 763.93" style="fill:#f2b03f; fill-rule:evenodd;"/><polyline points="393.82 751.5 393.74 792.86 419.53 761.06 395.39 794.17 434.94 783.98 395.99 796.2 434.19 811.53 395.28 798.19 417.55 833.17 393.56 799.36 391.39 840.63 391.47 799.28 365.69 831.08 389.81 797.97 350.28 808.15 389.22 795.93 351.03 780.61 389.92 793.95 367.66 758.97 391.65 792.78 393.82 751.5" style="fill:#f2b03f; fill-rule:evenodd;"/><path d="M400.42,628.22c30.03,49.15-70.94,75.46-34.08,1.24-54.39,45.78-69.88-47.56-13.24-34.77-63.69-36.06,31.13-84.92,32.38-21.54,27.88-72.78,81.66,13.96,24.72,23.91,72.42-16.93,34.1,83.69-9.78,31.16" style="fill:#f6f6f6;"/><polyline points="414.46 591.91 385.69 603.2 414.85 611.8 385.28 604.55 403.21 628.44 384.14 605.42 384.01 635.49 382.71 605.49 364.57 630.24 381.54 604.72 352.31 614.71 381.08 603.41 351.94 594.82 381.49 602.07 363.56 578.18 382.63 601.19 382.76 571.13 384.06 601.12 402.21 576.37 385.23 601.89 414.46 591.91" style="fill:#f2b03f; fill-rule:evenodd;"/><polyline points="418.03 576.53 385.78 602.43 426.71 602.53 385.79 604.54 418.55 628.92 384.58 606.27 396.64 645.63 382.6 606.97 369.35 646.26 380.6 606.37 347.12 630.59 379.37 604.69 338.42 604.58 379.33 602.57 346.58 578.19 380.55 600.84 368.49 561.48 382.53 600.14 395.78 560.85 384.53 600.75 418.03 576.53" style="fill:#f2b03f; fill-rule:evenodd;"/><path d="M796.12,540.53c60.54-9.04,44.51,100.7-12.89,33.88,22.3,72.2-75.49,48.73-39.53-1.43-61.66,47.44-70.24-65.62-7.68-40.61-59.71-57.42,47.48-74.17,33.64-14.3,13.41-77.91,96.06,1.25,26.46,22.46" style="fill:#fff;"/><polyline points="766.38 511.76 765.53 544.6 786.01 519.62 766.69 545.56 797.49 537.9 767.06 547.04 796.44 559.61 766.54 548.47 783.26 576.48 765.3 549.29 762.98 582.05 763.83 549.21 743.35 574.19 762.69 548.24 731.87 555.91 762.3 546.77 732.92 534.2 762.82 545.34 746.1 517.33 764.06 544.52 766.38 511.76" style="fill:#f2b03f; fill-rule:evenodd;"/><polyline points="752.79 501.91 764.8 544.2 781.85 504.16 766.88 545.06 804.31 523.08 768.08 546.96 811.6 551.45 767.94 549.19 800.92 578.43 766.53 550.9 776.37 593.71 764.37 551.42 747.32 591.46 762.29 550.57 724.87 572.54 761.1 548.66 717.57 544.18 761.22 546.43 728.24 517.2 762.64 544.73 752.79 501.91" style="fill:#f2b03f; fill-rule:evenodd;"/><path d="M773.67,333.15c57.9-19.88,62.04,90.95-6.53,35.65,35.03,66.96-65.4,61.62-39.13,5.77-52.04,57.83-80.99-51.8-14.92-38.55-69.14-45.64,33.23-81.55,30.48-20.17-.95-79.04,94.69-16.19,30.1,17.3" style="fill:#fff;"/><polyline points="739.21 310.25 744.32 342.7 759.94 314.41 745.63 343.44 774.54 330.3 746.28 344.82 777.44 351.85 746.03 346.31 767.54 370.83 744.96 347.35 748.62 379.98 743.49 347.54 727.88 375.82 742.19 346.8 713.28 359.93 741.54 345.41 710.37 338.38 741.8 343.92 720.28 319.4 742.87 342.88 739.21 310.25" style="fill:#f2b03f; fill-rule:evenodd;"/><polyline points="724.06 303.03 743.54 342.44 753.04 299.97 745.73 342.9 778.56 314.5 747.26 344.56 790.87 341.07 747.53 346.77 785.28 369.54 746.44 348.71 763.89 389.02 744.41 349.61 734.91 392.08 742.22 349.15 709.39 377.55 740.69 347.49 697.08 350.98 740.42 345.28 702.69 322.51 741.51 343.35 724.06 303.03" style="fill:#f2b03f; fill-rule:evenodd;"/><path d="M400.03,303.58c-54.54-27.8-74.16,81.36,1.48,36.21-44.07,61.4,56.12,70.17,37.93,11.19,43.43,64.55,87.44-39.94,20.17-36.08,74.85-35.5-21.48-85.39-27.36-24.23,12.01-78.14-91.49-29.29-32.22,12.91" style="fill:#fff;"/><polyline points="437.35 285.73 427.74 317.14 416.24 286.95 426.35 317.69 399.56 300.64 425.51 318.97 393.66 321.57 425.56 320.48 400.81 341.74 426.46 321.66 418.28 353.46 427.89 322.05 439.38 352.24 429.28 321.5 456.07 338.55 430.12 320.22 461.97 317.62 430.07 318.7 454.81 297.44 429.16 317.53 437.35 285.73" style="fill:#f2b03f; fill-rule:evenodd;"/><polyline points="453.37 280.7 428.55 316.99 425.1 273.61 426.31 317.14 397.79 284.43 424.57 318.57 381.88 309.02 423.99 320.73 383.44 337.98 424.8 322.79 401.87 360.27 426.69 323.98 430.14 367.36 428.92 323.83 457.44 356.54 430.66 322.4 473.37 331.95 431.24 320.24 471.8 302.99 430.44 318.18 453.37 280.7" style="fill:#f2b03f; fill-rule:evenodd;"/><path d="M508.12,176.73c-42.56-21.69-57.86,63.48,1.15,28.25-34.38,47.9,43.79,54.75,29.6,8.73,33.88,50.36,68.22-31.16,15.74-28.15,58.39-27.7-16.77-66.63-21.35-18.91,9.36-60.96-71.38-22.85-25.14,10.08" style="fill:#fff;"/><polyline points="537.24 162.8 529.74 187.31 520.78 163.75 528.66 187.74 507.76 174.43 528.01 188.73 503.16 190.76 528.04 189.92 508.74 206.5 528.76 190.84 522.37 215.64 529.87 191.14 538.83 214.69 530.96 190.71 551.85 204.01 531.6 189.71 556.46 187.68 531.57 188.53 550.87 171.94 530.87 187.61 537.24 162.8" style="fill:#f2b03f; fill-rule:evenodd;"/><polyline points="549.74 158.88 530.38 187.19 527.69 153.35 528.63 187.31 506.38 161.79 527.28 188.42 493.97 180.97 526.82 190.11 495.19 203.57 527.46 191.72 509.57 220.96 528.92 192.64 531.62 226.49 530.67 192.52 552.92 218.05 532.03 191.41 565.33 198.87 532.48 189.73 564.12 176.26 531.85 188.12 549.74 158.88" style="fill:#f2b03f; fill-rule:evenodd;"/><path d="M642.44,191.25c-46.22-23.55-62.85,68.95,1.25,30.69-37.34,52.03,47.56,59.46,32.15,9.48,36.8,54.7,74.1-33.85,17.09-30.57,63.43-30.09-18.21-72.37-23.18-20.54,10.17-66.21-77.54-24.82-27.31,10.94" style="fill:#fff;"/><polyline points="674.07 176.12 665.94 202.74 656.19 177.16 664.76 203.21 642.05 188.76 664.04 204.29 637.05 206.5 664.08 205.58 643.12 223.59 664.85 206.58 657.91 233.52 666.06 206.9 675.8 232.49 667.24 206.44 689.94 220.89 667.94 205.35 694.94 203.15 667.91 204.07 688.87 186.05 667.14 203.07 674.07 176.12" style="fill:#f2b03f; fill-rule:evenodd;"/><polyline points="687.64 171.86 666.62 202.62 663.69 165.86 664.72 202.75 640.55 175.02 663.24 203.95 627.07 195.86 662.76 205.78 628.39 220.41 663.44 207.53 644.01 239.29 665.03 208.54 667.97 245.3 666.94 208.41 691.1 236.13 668.41 207.2 704.58 215.3 668.9 205.37 703.26 190.75 668.21 203.62 687.64 171.86" style="fill:#f2b03f; fill-rule:evenodd;"/><path d="M438.12,501.87c61.06,4.35,21.51,107.96-19.97,30.25,6.05,75.33-84.29,31.13-38.26-10-70.51,32.87-54.27-79.35,1.35-41.31-45.78-69.05,62.48-62.05,35.94-6.63,30.05-73.12,93.48,22.14,20.94,27.69" style="fill:#fff;"/><polyline points="415.35 467.31 407.37 499.17 432.79 479.25 408.28 500.36 440.03 499.59 408.33 501.89 434.26 520.56 407.51 503.17 417.72 534.15 406.12 503.7 396.72 535.16 404.71 503.3 379.28 523.22 403.79 502.11 372.05 502.88 403.74 500.58 377.8 481.92 404.56 499.31 394.35 468.33 405.94 498.77 415.35 467.31" style="fill:#f2b03f; fill-rule:evenodd;"/><polyline points="404.23 454.74 406.74 498.63 432.1 463.26 408.58 499.91 449.9 486.62 409.35 502.03 450.83 515.89 408.72 504.18 434.54 539.89 406.96 505.53 407.26 549.46 404.74 505.57 379.38 540.94 402.9 504.29 361.58 517.59 402.14 502.17 360.65 488.31 402.76 500.02 376.94 464.31 404.53 498.67 404.23 454.74" style="fill:#f2b03f; fill-rule:evenodd;"/><path d="M789.16,708.9c15.11-59.32,110.07-2.03,26.24,25.01,75.21,7.4,15.69,88.47-16.63,35.88,19.85,75.23-87.71,39.35-40.41-8.64-76.07,32.8-49.99-72.5-.16-36.55-66.63-42.55,38.36-88.08,30.96-15.7" style="fill:#fff;"/><polyline points="751.12 725.17 781.06 738.68 765.96 710.12 782.39 737.99 787.26 706.61 783.91 738.21 806.88 716 785.03 739.25 817.32 734.68 785.3 740.7 814.6 755.53 784.65 742.03 799.76 770.59 783.32 742.72 778.46 774.1 781.81 742.5 758.85 764.71 780.71 741.46 748.39 746.03 780.41 740 751.12 725.17" style="fill:#f2b03f; fill-rule:evenodd;"/><polyline points="736.78 733.89 780.41 739.19 750.1 707.97 782.01 737.61 776.24 694.59 784.22 737.24 805.22 698.86 786.23 738.23 825.96 719.15 787.26 740.2 830.53 747.7 786.9 742.4 817.21 773.62 785.31 743.98 791.07 787 783.08 744.35 762.1 782.73 781.08 743.36 741.35 762.44 780.06 741.39 736.78 733.89" style="fill:#f2b03f; fill-rule:evenodd;"/><path d="M475.44,844.65c42.25-29.97,72.07,59.01,3.21,30.5,44.43,45.99-38.37,65.63-30.38,14.02-28.44,59.37-78.11-22.71-21.32-27.73-67.02-20.54,7.51-74.13,19.93-23.65-19.64-63.94,73-35.75,28.56,6.86" style="fill:#fff;"/><polyline points="442.01 834.29 453.9 859.4 459.82 832.72 455.14 859.69 475.47 842.13 455.99 860.66 482.97 858.93 456.14 861.93 479.46 876.7 455.53 863.03 466.28 888.65 454.38 863.53 448.46 890.22 453.14 863.24 432.81 880.8 452.29 862.27 425.31 864 452.14 861 428.82 846.24 452.76 859.9 442.01 834.29" style="fill:#f2b03f; fill-rule:evenodd;"/><polyline points="427.98 832.04 453.21 859.38 450.78 822.64 455.1 859.23 474.96 828.34 456.73 860.21 491.3 846.97 457.48 861.95 493.55 871.42 457.06 863.77 480.85 892.33 455.62 865 458.05 901.74 453.73 865.15 433.87 896.03 452.1 864.17 417.53 877.4 451.35 862.43 415.28 852.96 451.78 860.6 427.98 832.04" style="fill:#f2b03f; fill-rule:evenodd;"/><path d="M655.26,903.07c53.07,34.47-34.53,108.46-33.2,17.4-32.2,71.18-91.84-13.99-29.62-28.19-80.25-5.52-9.43-98.94,21.88-36.71-6.9-85.37,87.57-24.9,35.84,11.97,63.76-51.13,73.51,66.79,5.1,35.53" style="fill:#fff;"/><polyline points="651.94 860.42 628.78 885.26 661.76 879.95 629.01 886.79 658.12 901.97 628.3 888.2 642.44 918.06 626.92 888.94 620.67 922.09 625.39 888.74 601.15 912.5 624.31 887.66 591.35 892.97 624.08 886.13 594.97 870.96 624.79 884.72 610.66 854.86 626.19 883.98 632.42 850.84 627.71 884.18 651.94 860.42" style="fill:#f2b03f; fill-rule:evenodd;"/><polyline points="648.17 843.48 628.49 884.45 669.12 865.13 629.53 886.54 673.55 895.17 629.14 888.83 659.76 922.12 627.51 890.47 633.03 935.7 625.24 890.81 603.53 930.71 623.21 889.74 582.58 909.06 622.19 887.66 578.15 879.03 622.56 885.36 591.94 852.07 624.19 883.73 618.69 838.5 626.46 883.38 648.17 843.48" style="fill:#f2b03f; fill-rule:evenodd;"/><path d="M404.06,674.07c27.66-54.61,107.87,21.99,20.16,30.13,71.79,23.6-3.95,89.76-24.04,31.4,2.99,77.74-94.17,19.3-37.56-17.24-81.39,15.45-33.01-81.65,7.8-35.71-55.77-56.03,56.62-77.61,33.64-8.58" style="fill:#fff;"/><polyline points="363.39 681.67 389.67 701.37 381.15 670.21 391.12 700.99 402.71 671.43 392.55 701.53 419.8 684.85 393.41 702.79 425.92 705.37 393.37 704.27 418.73 725.13 392.44 705.43 400.96 736.59 390.99 705.8 379.41 735.37 389.57 705.26 362.31 721.94 388.71 704.01 356.19 701.43 388.76 702.52 363.39 681.67" style="fill:#f2b03f; fill-rule:evenodd;"/><polyline points="347.49 687.05 388.92 701.73 366.14 664.66 390.82 700.53 394.57 657.29 393.07 700.66 421.92 667.77 394.81 702.06 437.74 692.09 395.38 704.2 435.99 720.95 394.56 706.27 417.35 743.35 392.66 707.47 388.91 750.71 390.41 707.34 361.56 740.23 388.67 705.94 345.74 715.92 388.1 703.8 347.49 687.05" style="fill:#f2b03f; fill-rule:evenodd;"/></svg>